<?xml version="1.0" encoding="utf-8"?>
<!-- Generator: Adobe Illustrator 16.0.0, SVG Export Plug-In . SVG Version: 6.00 Build 0)  -->
<!DOCTYPE svg PUBLIC "-//W3C//DTD SVG 1.1//EN" "http://www.w3.org/Graphics/SVG/1.1/DTD/svg11.dtd">
<svg version="1.1" id="Layer_1" xmlns="http://www.w3.org/2000/svg" xmlns:xlink="http://www.w3.org/1999/xlink" x="0px" y="0px"
	 width="547.945px" height="20.794px" viewBox="0 0 547.945 20.794" enable-background="new 0 0 547.945 20.794"
	 xml:space="preserve">
<g>
	<g>
		<g>
			<path fill="#FFFFFF" d="M12.996,19.742l-2.802-5.786H8.279v5.786H3.623V2.584h7.67c0.996,0,1.908,0.102,2.732,0.308
				c0.825,0.205,1.532,0.525,2.12,0.966c0.589,0.44,1.042,1.019,1.362,1.728c0.317,0.711,0.478,1.575,0.478,2.586
				c0,1.291-0.28,2.347-0.837,3.162c-0.558,0.818-1.31,1.438-2.261,1.862l3.441,6.546H12.996z M12.774,6.974
				c-0.321-0.343-0.858-0.518-1.614-0.518h-2.88v3.75h2.805c0.79,0,1.349-0.164,1.677-0.489c0.328-0.328,0.492-0.799,0.492-1.42
				C13.254,7.756,13.091,7.314,12.774,6.974z"/>
		</g>
		<g>
			<path fill="#FFFFFF" d="M21.168,19.742V2.584h13.139v3.998h-8.432v2.302h5.075v3.922h-5.075v2.939h8.603v3.997H21.168z"/>
		</g>
		<g>
			<path fill="#FFFFFF" d="M51.757,15.146c-0.393,1.104-0.979,1.994-1.765,2.67c-0.785,0.682-1.751,1.172-2.904,1.475
				c-1.153,0.301-2.488,0.452-4.009,0.452h-5.563V2.584h6.005c1.339,0,2.558,0.139,3.652,0.416c1.094,0.279,2.023,0.749,2.784,1.412
				c0.759,0.661,1.348,1.53,1.764,2.612c0.417,1.076,0.623,2.425,0.623,4.041C52.344,12.683,52.149,14.042,51.757,15.146z
				 M47.259,9.105c-0.14-0.573-0.364-1.038-0.672-1.399c-0.313-0.358-0.719-0.624-1.226-0.796c-0.506-0.172-1.129-0.257-1.864-0.257
				h-1.174v9.018h1.028c0.737,0,1.365-0.077,1.888-0.229c0.522-0.159,0.951-0.41,1.288-0.761c0.334-0.351,0.575-0.817,0.721-1.397
				c0.149-0.58,0.222-1.297,0.222-2.146C47.468,10.354,47.397,9.675,47.259,9.105z"/>
		</g>
		<g>
			<path fill="#FFFFFF" d="M72.516,19.742v-6.765h-5.342v6.765H62.32V2.584h4.854v6.251h5.342V2.584h4.854v17.158H72.516z"/>
		</g>
		<g>
			<path fill="#FFFFFF" d="M91.926,19.742l-0.931-3.014H85.85l-0.932,3.014h-5.098l6.223-17.158h4.807l6.224,17.158H91.926z
				 M89.526,11.824c-0.15-0.555-0.278-1.039-0.392-1.444c-0.114-0.41-0.218-0.778-0.308-1.105c-0.09-0.326-0.169-0.624-0.234-0.894
				c-0.063-0.271-0.122-0.55-0.17-0.846c-0.048,0.296-0.107,0.581-0.17,0.859c-0.064,0.276-0.144,0.579-0.234,0.905
				c-0.09,0.327-0.193,0.694-0.307,1.105c-0.115,0.407-0.242,0.881-0.393,1.42l-0.316,1.13h2.841L89.526,11.824z"/>
		</g>
		<g>
			<path fill="#FFFFFF" d="M106.045,6.727v13.015h-4.755V6.727h-4.805V2.584h14.363v4.143H106.045z"/>
		</g>
	</g>
	<g>
		<path fill="#FFFFFF" d="M116.439,4.979c-0.086,0.21-0.206,0.392-0.36,0.543c-0.156,0.156-0.336,0.277-0.547,0.365
			c-0.208,0.088-0.435,0.129-0.682,0.129c-0.244,0-0.471-0.042-0.681-0.129c-0.207-0.088-0.392-0.209-0.547-0.365
			c-0.151-0.152-0.273-0.333-0.36-0.543c-0.087-0.211-0.132-0.439-0.132-0.681c0-0.245,0.045-0.471,0.132-0.682
			c0.087-0.211,0.209-0.392,0.36-0.544c0.156-0.157,0.34-0.276,0.547-0.364c0.21-0.088,0.437-0.131,0.681-0.131
			c0.247,0,0.474,0.043,0.682,0.131c0.21,0.088,0.391,0.208,0.547,0.364c0.155,0.153,0.274,0.333,0.36,0.544
			c0.087,0.21,0.134,0.437,0.134,0.682C116.573,4.54,116.526,4.768,116.439,4.979z M116.184,3.729
			c-0.072-0.176-0.174-0.33-0.303-0.462c-0.13-0.129-0.285-0.23-0.46-0.305c-0.176-0.072-0.368-0.108-0.571-0.108
			c-0.206,0-0.396,0.036-0.572,0.108c-0.175,0.074-0.328,0.175-0.455,0.305c-0.131,0.133-0.233,0.286-0.306,0.462
			c-0.072,0.177-0.11,0.367-0.11,0.569c0,0.205,0.038,0.396,0.11,0.571c0.072,0.174,0.175,0.326,0.306,0.458
			c0.127,0.132,0.28,0.232,0.455,0.305c0.177,0.072,0.366,0.107,0.572,0.107c0.203,0,0.395-0.036,0.571-0.107
			c0.175-0.072,0.33-0.173,0.46-0.305c0.129-0.133,0.23-0.285,0.303-0.458c0.075-0.174,0.113-0.366,0.113-0.571
			C116.296,4.096,116.259,3.906,116.184,3.729z M115.523,4.253c-0.072,0.094-0.171,0.158-0.291,0.192l0.385,0.759h-0.373
			l-0.366-0.727h-0.36v0.727h-0.319V3.326h0.822c0.081,0,0.16,0.012,0.233,0.032c0.074,0.021,0.14,0.057,0.197,0.103
			c0.053,0.045,0.099,0.105,0.131,0.177c0.034,0.069,0.049,0.156,0.049,0.256C115.631,4.043,115.596,4.161,115.523,4.253z
			 M115.227,3.702c-0.055-0.046-0.128-0.066-0.214-0.066h-0.495v0.534h0.495c0.086,0,0.159-0.022,0.214-0.065
			c0.06-0.043,0.086-0.109,0.086-0.203C115.313,3.812,115.286,3.744,115.227,3.702z"/>
	</g>
	<g>
		<path fill="#FFFFFF" d="M136.27,14.819c-0.372,1.107-0.896,2.045-1.574,2.813c-0.677,0.769-1.487,1.359-2.429,1.772
			c-0.941,0.412-1.975,0.619-3.098,0.619c-1.14,0-2.177-0.202-3.11-0.607c-0.934-0.404-1.735-0.991-2.404-1.76
			c-0.669-0.768-1.189-1.701-1.561-2.801c-0.372-1.098-0.558-2.35-0.558-3.754s0.186-2.66,0.558-3.767
			c0.372-1.107,0.896-2.045,1.574-2.813c0.677-0.769,1.487-1.359,2.429-1.772c0.942-0.413,1.982-0.619,3.123-0.619
			c1.124,0,2.152,0.202,3.085,0.607c0.934,0.405,1.735,0.991,2.404,1.76c0.669,0.768,1.189,1.702,1.562,2.8
			c0.372,1.099,0.558,2.351,0.558,3.755C136.828,12.458,136.642,13.714,136.27,14.819z M132.119,7.013
			c-0.76-0.958-1.751-1.438-2.974-1.438c-1.223,0-2.202,0.471-2.937,1.413s-1.103,2.297-1.103,4.064c0,1.769,0.38,3.132,1.14,4.089
			c0.76,0.959,1.751,1.438,2.974,1.438s2.202-0.471,2.937-1.412c0.735-0.941,1.103-2.297,1.103-4.064
			C133.259,9.334,132.878,7.972,132.119,7.013z"/>
		<path fill="#FFFFFF" d="M153.406,10.495c-0.314,0.719-0.754,1.31-1.317,1.771c-0.563,0.463-1.23,0.803-2,1.017
			c-0.771,0.215-1.603,0.322-2.497,0.322h-3.826v6.146h-3.445V2.403h7.584c0.809,0,1.578,0.111,2.305,0.334s1.363,0.566,1.908,1.029
			c0.545,0.462,0.975,1.037,1.289,1.722c0.313,0.686,0.471,1.491,0.471,2.417C153.878,8.913,153.721,9.776,153.406,10.495z
			 M149.625,6.326c-0.456-0.351-1.074-0.527-1.854-0.527h-4.005v4.411h4.055c1.658,0,2.488-0.743,2.488-2.23
			C150.31,7.229,150.082,6.677,149.625,6.326z"/>
		<path fill="#FFFFFF" d="M157.174,19.752V2.403h12.02v3.396h-8.575v2.974h4.981v3.396h-4.981v4.188h8.947v3.396H157.174z"/>
		<path fill="#FFFFFF" d="M184.263,19.752l-6.369-9.467c-0.215-0.331-0.442-0.682-0.682-1.053c-0.24-0.372-0.417-0.673-0.533-0.905
			c0,0.166,0.004,0.409,0.012,0.731s0.013,0.673,0.013,1.053c0,0.364,0.003,0.728,0.012,1.091c0.008,0.363,0.012,0.668,0.012,0.917
			v7.634h-3.445V2.403h3.346l6.126,9.17c0.214,0.33,0.44,0.682,0.679,1.053c0.239,0.373,0.416,0.674,0.531,0.905
			c0-0.165-0.004-0.409-0.012-0.731c-0.009-0.322-0.012-0.664-0.012-1.028c0-0.38-0.004-0.751-0.013-1.115
			c-0.008-0.363-0.012-0.669-0.012-0.917V2.403h3.445v17.349H184.263z"/>
		<path fill="#FFFFFF" d="M204.114,16.759c-0.264,0.676-0.678,1.258-1.239,1.744s-1.268,0.861-2.119,1.126
			c-0.851,0.264-1.871,0.396-3.061,0.396c-1.454,0-2.776-0.281-3.965-0.842c-1.189-0.562-2.115-1.33-2.776-2.306l2.503-2.23
			c0.611,0.71,1.292,1.219,2.044,1.524s1.549,0.459,2.392,0.459c1.041,0,1.805-0.149,2.292-0.447
			c0.487-0.297,0.731-0.775,0.731-1.438c0-0.28-0.05-0.523-0.149-0.73s-0.285-0.4-0.558-0.582s-0.665-0.355-1.177-0.521
			c-0.512-0.164-1.173-0.338-1.982-0.52c-0.793-0.182-1.524-0.396-2.193-0.645c-0.669-0.248-1.244-0.562-1.723-0.941
			c-0.479-0.38-0.851-0.859-1.115-1.438c-0.265-0.578-0.396-1.297-0.396-2.156c0-0.793,0.161-1.503,0.483-2.131
			c0.322-0.628,0.764-1.161,1.326-1.599c0.562-0.438,1.218-0.772,1.97-1.004c0.752-0.231,1.557-0.347,2.417-0.347
			c1.354,0,2.541,0.241,3.557,0.724c1.016,0.482,1.937,1.157,2.763,2.022l-2.503,2.434c-0.562-0.578-1.161-1.02-1.797-1.326
			c-0.636-0.305-1.351-0.458-2.144-0.458c-0.462,0-0.851,0.046-1.165,0.136c-0.314,0.091-0.57,0.21-0.769,0.359
			s-0.339,0.313-0.421,0.495c-0.083,0.182-0.124,0.371-0.124,0.569c0,0.281,0.053,0.516,0.161,0.706
			c0.107,0.189,0.293,0.359,0.558,0.507c0.264,0.148,0.619,0.289,1.065,0.42s1.016,0.28,1.71,0.445s1.384,0.359,2.069,0.582
			s1.305,0.532,1.859,0.928c0.554,0.396,1.004,0.899,1.351,1.509c0.347,0.61,0.521,1.386,0.521,2.325
			C204.511,15.332,204.378,16.083,204.114,16.759z"/>
		<path fill="#FFFFFF" d="M214.846,5.799v13.953h-3.445V5.799h-4.981V2.403h13.408v3.396H214.846z"/>
		<path fill="#FFFFFF" d="M232.393,19.752l-1.363-3.866h-6.345l-1.363,3.866h-3.718l6.642-17.349h3.371l6.592,17.349H232.393z
			 M228.725,9.442c-0.182-0.512-0.352-1.008-0.508-1.487c-0.157-0.479-0.277-0.884-0.359-1.215
			c-0.083,0.331-0.202,0.735-0.359,1.215c-0.157,0.479-0.326,0.975-0.508,1.487l-1.115,3.147h3.965L228.725,9.442z"/>
		<path fill="#FFFFFF" d="M248.725,7.459c-0.314-0.595-0.723-1.057-1.227-1.388s-1.152-0.496-1.945-0.496
			c-0.645,0-1.223,0.136-1.735,0.409c-0.512,0.273-0.942,0.653-1.289,1.14c-0.347,0.488-0.612,1.066-0.793,1.735
			c-0.182,0.669-0.272,1.409-0.272,2.218c0,0.777,0.091,1.5,0.272,2.168s0.45,1.251,0.806,1.747
			c0.355,0.496,0.789,0.885,1.301,1.165c0.512,0.281,1.09,0.421,1.735,0.421c0.793,0,1.441-0.173,1.945-0.52
			c0.504-0.348,0.987-0.908,1.45-1.686l2.925,1.734c-0.595,1.24-1.417,2.202-2.466,2.888s-2.367,1.028-3.953,1.028
			c-1.14,0-2.173-0.211-3.098-0.632s-1.722-1.021-2.392-1.797c-0.669-0.776-1.186-1.714-1.549-2.813
			c-0.364-1.098-0.545-2.333-0.545-3.705c0-1.322,0.19-2.532,0.57-3.631c0.38-1.099,0.908-2.041,1.586-2.825
			c0.677-0.785,1.487-1.396,2.429-1.834s1.983-0.657,3.123-0.657c0.81,0,1.545,0.095,2.206,0.285
			c0.661,0.19,1.251,0.455,1.772,0.793c0.521,0.339,0.975,0.744,1.363,1.215c0.388,0.471,0.722,0.987,1.003,1.549L248.725,7.459z"/>
		<path fill="#FFFFFF" d="M266.346,19.752l-4.709-8.377l-2.776,3.271v5.105h-3.445V2.403h3.445v4.932c0,0.165,0,0.38,0,0.644
			c0,0.248-0.004,0.504-0.012,0.769c-0.009,0.264-0.017,0.521-0.025,0.768c-0.008,0.248-0.012,0.438-0.012,0.57
			c0.115-0.198,0.313-0.471,0.595-0.818c0.281-0.347,0.537-0.661,0.768-0.942l4.858-5.923h4.188l-5.081,5.998l6.369,11.351H266.346z
			"/>
		<path fill="#FFFFFF" d="M293.532,10.495c-0.314,0.719-0.754,1.31-1.316,1.771c-0.563,0.463-1.23,0.803-2,1.017
			c-0.771,0.215-1.603,0.322-2.497,0.322h-3.826v6.146h-3.444V2.403h7.584c0.809,0,1.577,0.111,2.305,0.334
			c0.727,0.223,1.363,0.566,1.908,1.029s0.975,1.037,1.289,1.722c0.312,0.686,0.471,1.491,0.471,2.417
			C294.005,8.913,293.847,9.776,293.532,10.495z M289.751,6.326c-0.455-0.351-1.073-0.527-1.854-0.527h-4.005v4.411h4.056
			c1.658,0,2.487-0.743,2.487-2.23C290.436,7.229,290.208,6.677,289.751,6.326z"/>
		<path fill="#FFFFFF" d="M297.3,19.752V2.403h3.445v13.953h8.699v3.396H297.3z"/>
		<path fill="#FFFFFF" d="M324.216,19.752l-1.363-3.866h-6.344l-1.363,3.866h-3.719l6.643-17.349h3.371l6.592,17.349H324.216z
			 M320.548,9.442c-0.182-0.512-0.352-1.008-0.508-1.487c-0.158-0.479-0.277-0.884-0.359-1.215
			c-0.084,0.331-0.203,0.735-0.359,1.215c-0.158,0.479-0.326,0.975-0.508,1.487l-1.115,3.147h3.965L320.548,9.442z"/>
		<path fill="#FFFFFF" d="M336.212,5.799v13.953h-3.445V5.799h-4.982V2.403h13.408v3.396H336.212z"/>
		<path fill="#FFFFFF" d="M348.009,5.799v3.247h5.229v3.395h-5.229v7.312h-3.445V2.403h12.391v3.396H348.009z"/>
		<path fill="#FFFFFF" d="M372.978,14.819c-0.373,1.107-0.896,2.045-1.574,2.813s-1.486,1.359-2.43,1.772
			c-0.941,0.412-1.975,0.619-3.098,0.619c-1.141,0-2.176-0.202-3.109-0.607c-0.934-0.404-1.736-0.991-2.404-1.76
			c-0.67-0.768-1.189-1.701-1.562-2.801c-0.371-1.098-0.557-2.35-0.557-3.754s0.186-2.66,0.557-3.767
			c0.373-1.107,0.896-2.045,1.574-2.813c0.678-0.769,1.488-1.359,2.43-1.772c0.941-0.413,1.982-0.619,3.123-0.619
			c1.123,0,2.15,0.202,3.084,0.607c0.934,0.405,1.736,0.991,2.404,1.76c0.67,0.768,1.189,1.702,1.562,2.8
			c0.371,1.099,0.557,2.351,0.557,3.755C373.534,12.458,373.349,13.714,372.978,14.819z M368.825,7.013
			c-0.76-0.958-1.752-1.438-2.975-1.438s-2.201,0.471-2.936,1.413c-0.736,0.942-1.104,2.297-1.104,4.064
			c0,1.769,0.381,3.132,1.141,4.089c0.76,0.959,1.75,1.438,2.975,1.438c1.221,0,2.201-0.471,2.936-1.412
			c0.736-0.941,1.104-2.297,1.104-4.064C369.966,9.334,369.585,7.972,368.825,7.013z"/>
		<path fill="#FFFFFF" d="M387.081,19.752l-3.105-6.245h-3.502v6.245h-3.445V2.403h8.08c0.809,0,1.578,0.111,2.305,0.334
			s1.363,0.566,1.908,1.029s0.975,1.037,1.289,1.722c0.314,0.686,0.471,1.491,0.471,2.417c0,1.305-0.277,2.375-0.83,3.209
			c-0.555,0.834-1.385,1.466-2.49,1.896l3.32,6.741H387.081z M386.853,6.304c-0.439-0.337-1.049-0.505-1.828-0.505h-4.551v4.436
			h4.551c1.658,0,2.488-0.747,2.488-2.243C387.513,7.204,387.292,6.641,386.853,6.304z"/>
		<path fill="#FFFFFF" d="M407.487,19.752v-6.37c0-0.23,0.004-0.527,0.014-0.892c0.008-0.363,0.012-0.735,0.012-1.115
			c0-0.38,0.004-0.735,0.012-1.066c0.008-0.33,0.014-0.578,0.014-0.743c-0.133,0.331-0.311,0.768-0.535,1.313
			s-0.451,1.065-0.684,1.561l-3.527,7.708l-3.51-7.708c-0.232-0.496-0.459-1.016-0.682-1.561c-0.221-0.545-0.398-0.983-0.531-1.313
			c0,0.165,0.004,0.413,0.014,0.743c0.008,0.331,0.012,0.686,0.012,1.066c0,0.38,0.004,0.752,0.012,1.115
			c0.01,0.364,0.014,0.661,0.014,0.892v6.37h-3.396V2.403h3.346l3.609,7.856c0.115,0.248,0.23,0.508,0.346,0.781
			c0.115,0.272,0.227,0.542,0.334,0.805c0.107,0.265,0.207,0.513,0.297,0.743c0.09,0.232,0.16,0.422,0.211,0.57
			c0.115-0.33,0.281-0.771,0.496-1.326c0.215-0.553,0.439-1.078,0.672-1.573l3.504-7.856h3.395v17.349H407.487z"/>
		<path fill="#FFFFFF" d="M435.901,15.006c-0.504,1.099-1.174,1.999-2.008,2.702c-0.834,0.701-1.783,1.218-2.85,1.549
			c-1.066,0.33-2.152,0.495-3.26,0.495h-5.18V2.403h5.428c1.24,0,2.383,0.153,3.434,0.458c1.049,0.306,1.957,0.805,2.725,1.5
			c0.77,0.694,1.373,1.59,1.811,2.689c0.438,1.099,0.656,2.441,0.656,4.027C436.657,12.599,436.405,13.907,435.901,15.006z
			 M431.87,7.118c-0.812-0.879-2.139-1.319-3.98-1.319h-1.84v10.558h1.717c0.912,0,1.703-0.127,2.375-0.383
			c0.672-0.254,1.223-0.611,1.654-1.072c0.43-0.461,0.754-1.016,0.969-1.665s0.324-1.369,0.324-2.159
			C433.089,9.318,432.683,7.998,431.87,7.118z"/>
		<path fill="#FFFFFF" d="M440.376,19.752V2.403h3.443v17.349H440.376z"/>
		<path fill="#FFFFFF" d="M458.606,19.752l-3.105-6.245h-3.502v6.245h-3.445V2.403h8.078c0.811,0,1.578,0.111,2.307,0.334
			c0.727,0.223,1.361,0.566,1.908,1.029c0.545,0.462,0.975,1.037,1.287,1.722c0.314,0.686,0.473,1.491,0.473,2.417
			c0,1.305-0.277,2.375-0.832,3.209c-0.553,0.834-1.383,1.466-2.49,1.896l3.322,6.741H458.606z M458.378,6.304
			c-0.439-0.337-1.049-0.505-1.828-0.505h-4.551v4.436h4.551c1.658,0,2.486-0.747,2.486-2.243
			C459.036,7.204,458.817,6.641,458.378,6.304z"/>
		<path fill="#FFFFFF" d="M466.249,19.752V2.403h12.02v3.396h-8.574v2.974h4.98v3.396h-4.98v4.188h8.945v3.396H466.249z"/>
		<path fill="#FFFFFF" d="M491.429,7.459c-0.314-0.595-0.723-1.057-1.227-1.388s-1.152-0.496-1.945-0.496
			c-0.645,0-1.223,0.136-1.736,0.409c-0.512,0.273-0.941,0.653-1.287,1.14c-0.348,0.488-0.611,1.066-0.793,1.735
			c-0.184,0.669-0.273,1.409-0.273,2.218c0,0.777,0.09,1.5,0.273,2.168c0.182,0.669,0.449,1.251,0.805,1.747
			s0.789,0.885,1.301,1.165c0.512,0.281,1.092,0.421,1.734,0.421c0.793,0,1.441-0.173,1.947-0.52
			c0.502-0.348,0.986-0.908,1.449-1.686l2.924,1.734c-0.594,1.24-1.416,2.202-2.465,2.888c-1.051,0.686-2.367,1.028-3.953,1.028
			c-1.141,0-2.174-0.211-3.098-0.632c-0.926-0.421-1.723-1.021-2.393-1.797s-1.186-1.714-1.549-2.813
			c-0.363-1.098-0.545-2.333-0.545-3.705c0-1.322,0.189-2.532,0.57-3.631c0.379-1.099,0.908-2.041,1.586-2.825
			s1.486-1.396,2.428-1.834s1.982-0.657,3.123-0.657c0.811,0,1.545,0.095,2.205,0.285c0.662,0.19,1.252,0.455,1.773,0.793
			c0.52,0.339,0.975,0.744,1.363,1.215c0.387,0.471,0.723,0.987,1.004,1.549L491.429,7.459z"/>
		<path fill="#FFFFFF" d="M505.085,5.799v13.953h-3.445V5.799h-4.98V2.403h13.408v3.396H505.085z"/>
		<path fill="#FFFFFF" d="M526.362,14.819c-0.373,1.107-0.896,2.045-1.574,2.813s-1.486,1.359-2.43,1.772
			c-0.941,0.412-1.975,0.619-3.098,0.619c-1.141,0-2.176-0.202-3.109-0.607c-0.934-0.404-1.736-0.991-2.404-1.76
			c-0.67-0.768-1.189-1.701-1.562-2.801c-0.371-1.098-0.557-2.35-0.557-3.754s0.186-2.66,0.557-3.767
			c0.373-1.107,0.896-2.045,1.574-2.813c0.678-0.769,1.488-1.359,2.43-1.772c0.941-0.413,1.982-0.619,3.123-0.619
			c1.123,0,2.15,0.202,3.084,0.607c0.934,0.405,1.736,0.991,2.404,1.76c0.67,0.768,1.189,1.702,1.562,2.8
			c0.371,1.099,0.557,2.351,0.557,3.755C526.919,12.458,526.733,13.714,526.362,14.819z M522.21,7.013
			c-0.76-0.958-1.752-1.438-2.975-1.438s-2.201,0.471-2.936,1.413c-0.736,0.942-1.104,2.297-1.104,4.064
			c0,1.769,0.381,3.132,1.141,4.089c0.76,0.959,1.75,1.438,2.975,1.438c1.221,0,2.201-0.471,2.936-1.412
			c0.736-0.941,1.104-2.297,1.104-4.064C523.351,9.334,522.97,7.972,522.21,7.013z"/>
		<path fill="#FFFFFF" d="M540.466,19.752l-3.105-6.245h-3.502v6.245h-3.445V2.403h8.08c0.809,0,1.578,0.111,2.305,0.334
			s1.363,0.566,1.908,1.029s0.975,1.037,1.289,1.722c0.314,0.686,0.471,1.491,0.471,2.417c0,1.305-0.277,2.375-0.83,3.209
			c-0.555,0.834-1.385,1.466-2.49,1.896l3.32,6.741H540.466z M540.237,6.304c-0.439-0.337-1.049-0.505-1.828-0.505h-4.551v4.436
			h4.551c1.658,0,2.488-0.747,2.488-2.243C540.897,7.204,540.677,6.641,540.237,6.304z"/>
	</g>
</g>
</svg>
