<?xml version="1.0" encoding="UTF-8" standalone="no"?>
<svg
   xmlns:dc="http://purl.org/dc/elements/1.1/"
   xmlns:cc="http://creativecommons.org/ns#"
   xmlns:rdf="http://www.w3.org/1999/02/22-rdf-syntax-ns#"
   xmlns:svg="http://www.w3.org/2000/svg"
   xmlns="http://www.w3.org/2000/svg"
   id="svg2"
   version="1.1"
   viewBox="0 0 469.33 226.47"
   height="226.47pt"
   width="469.33pt">
  <metadata
     id="metadata51">
    <rdf:RDF>
      <cc:Work
         rdf:about="">
        <dc:format>image/svg+xml</dc:format>
        <dc:type
           rdf:resource="http://purl.org/dc/dcmitype/StillImage" />
        <dc:title></dc:title>
      </cc:Work>
    </rdf:RDF>
  </metadata>
  <defs
     id="defs4">
    <clipPath
       id="clip1">
      <path
         id="path7"
         d="M 455 196 L 469.328125 196 L 469.328125 211 L 455 211 Z M 455 196 " />
    </clipPath>
    <clipPath
       id="clip2">
      <path
         id="path10"
         d="M 57 153 L 108 153 L 108 226.46875 L 57 226.46875 Z M 57 153 " />
    </clipPath>
  </defs>
  <g
     id="surface1324">
    <g
       id="g13"
       clip-rule="nonzero"
       clip-path="url(#clip1)">
      <path
         id="path15"
         d="M 462.363281 208.914062 C 459.464844 208.914062 457.109375 206.558594 457.109375 203.664062 C 457.109375 200.765625 459.464844 198.410156 462.363281 198.410156 C 465.257812 198.410156 467.613281 200.765625 467.613281 203.664062 C 467.613281 206.558594 465.257812 208.914062 462.363281 208.914062 Z M 469.324219 203.664062 C 469.324219 199.820312 466.199219 196.699219 462.363281 196.699219 C 458.523438 196.699219 455.398438 199.820312 455.398438 203.664062 C 455.398438 207.5 458.523438 210.625 462.363281 210.625 C 466.199219 210.625 469.324219 207.5 469.324219 203.664062 "
         style=" stroke:none;fill-rule:nonzero;fill:rgb(27.616882%,23.103333%,20.703125%);fill-opacity:1;" />
    </g>
    <path
       id="path17"
       d="M 463.550781 202.4375 C 463.550781 203.050781 463.160156 203.460938 462.4375 203.460938 L 461.394531 203.460938 L 461.394531 201.40625 L 462.410156 201.40625 C 463.132812 201.40625 463.550781 201.746094 463.550781 202.429688 Z M 464.972656 202.398438 L 464.972656 202.359375 C 464.972656 201.6875 464.769531 201.152344 464.398438 200.78125 C 463.96875 200.351562 463.335938 200.128906 462.546875 200.128906 L 459.984375 200.128906 L 459.984375 206.949219 L 461.394531 206.949219 L 461.394531 204.710938 L 462.28125 204.710938 L 463.539062 206.949219 L 465.160156 206.949219 L 463.707031 204.417969 C 464.457031 204.085938 464.972656 203.433594 464.972656 202.398438 "
       style=" stroke:none;fill-rule:nonzero;fill:rgb(27.616882%,23.103333%,20.703125%);fill-opacity:1;" />
    <path
       id="path19"
       d="M 11.855469 183.132812 L 11.855469 182.503906 C 11.855469 172.113281 17.207031 164.457031 25.496094 164.457031 C 33.578125 164.457031 39.347656 172.222656 39.347656 182.609375 L 39.347656 183.238281 C 39.347656 193.625 33.996094 201.390625 25.707031 201.390625 C 17.628906 201.390625 11.855469 193.523438 11.855469 183.132812 Z M 51.207031 183.34375 L 51.207031 182.398438 C 51.207031 165.925781 40.398438 153.964844 25.707031 153.964844 C 10.914062 153.964844 0 166.136719 0 182.503906 L 0 183.449219 C 0 199.921875 10.808594 211.777344 25.496094 211.777344 C 40.292969 211.777344 51.207031 199.710938 51.207031 183.34375 "
       style=" stroke:none;fill-rule:nonzero;fill:rgb(27.616882%,23.103333%,20.703125%);fill-opacity:1;" />
    <g
       id="g21"
       clip-rule="nonzero"
       clip-path="url(#clip2)">
      <path
         id="path23"
         d="M 69.5625 183.34375 L 69.5625 182.292969 C 69.5625 171.382812 75.648438 164.457031 82.78125 164.457031 C 89.917969 164.457031 95.6875 171.277344 95.6875 182.398438 L 95.6875 183.34375 C 95.6875 194.464844 90.023438 201.183594 82.78125 201.183594 C 75.648438 201.183594 69.5625 194.253906 69.5625 183.34375 Z M 107.652344 183.554688 L 107.652344 182.085938 C 107.652344 163.300781 97.15625 153.964844 86.035156 153.964844 C 78.058594 153.964844 73.234375 158.582031 69.769531 163.933594 L 69.769531 155.011719 L 57.914062 155.011719 L 57.914062 226.46875 L 69.769531 226.46875 L 69.769531 202.230469 C 73.128906 207.160156 77.957031 211.675781 86.035156 211.675781 C 97.261719 211.675781 107.652344 202.230469 107.652344 183.554688 "
         style=" stroke:none;fill-rule:nonzero;fill:rgb(27.616882%,23.103333%,20.703125%);fill-opacity:1;" />
    </g>
    <path
       id="path25"
       d="M 137.832031 163.933594 C 144.757812 163.933594 148.746094 170.332031 149.375 179.144531 L 125.871094 179.144531 C 126.710938 169.703125 131.328125 163.933594 137.832031 163.933594 Z M 159.027344 203.175781 L 152.835938 195.828125 C 149.164062 199.398438 145.28125 201.707031 140.035156 201.707031 C 132.796875 201.707031 127.023438 196.667969 125.976562 187.332031 L 160.8125 187.332031 C 160.914062 185.652344 160.914062 183.972656 160.914062 183.238281 C 160.914062 166.554688 152.941406 153.964844 137.832031 153.964844 C 124.191406 153.964844 114.117188 165.925781 114.117188 182.609375 L 114.117188 183.449219 C 114.117188 200.867188 125.238281 211.777344 139.511719 211.777344 C 147.800781 211.777344 153.992188 208.527344 159.027344 203.175781 "
       style=" stroke:none;fill-rule:nonzero;fill:rgb(27.616882%,23.103333%,20.703125%);fill-opacity:1;" />
    <path
       id="path27"
       d="M 195.734375 153.964844 C 188.179688 153.964844 183.667969 158.265625 180.519531 163.195312 L 180.519531 155.011719 L 168.660156 155.011719 L 168.660156 210.625 L 180.519531 210.625 L 180.519531 176.941406 C 180.519531 169.28125 184.820312 164.667969 191.011719 164.667969 C 197.308594 164.667969 200.980469 168.96875 200.980469 176.730469 L 200.980469 210.625 L 212.835938 210.625 L 212.835938 173.375 C 212.835938 161.519531 206.4375 153.964844 195.734375 153.964844 "
       style=" stroke:none;fill-rule:nonzero;fill:rgb(27.616882%,23.103333%,20.703125%);fill-opacity:1;" />
    <path
       id="path29"
       d="M 260.632812 194.78125 L 260.632812 194.675781 C 260.632812 185.964844 254.125 181.980469 245.523438 178.097656 C 239.015625 175.15625 234.609375 173.269531 234.609375 169.597656 L 234.609375 169.386719 C 234.609375 166.34375 237.234375 163.933594 241.640625 163.933594 C 246.046875 163.933594 250.664062 166.03125 254.859375 168.863281 L 259.898438 160.152344 C 254.652344 156.378906 248.039062 154.175781 241.851562 154.175781 C 231.460938 154.175781 223.488281 160.46875 223.488281 170.4375 L 223.488281 170.648438 C 223.488281 179.773438 230.414062 183.554688 238.703125 187.121094 C 245.3125 189.953125 249.613281 191.738281 249.613281 195.726562 L 249.613281 195.828125 C 249.613281 199.292969 246.78125 201.914062 241.851562 201.914062 C 236.917969 201.914062 231.566406 199.5 226.53125 195.410156 L 220.96875 203.910156 C 227.371094 209.261719 235.03125 211.675781 241.640625 211.675781 C 252.34375 211.675781 260.632812 205.691406 260.632812 194.78125 "
       style=" stroke:none;fill-rule:nonzero;fill:rgb(27.616882%,23.103333%,20.703125%);fill-opacity:1;" />
    <path
       id="path31"
       d="M 297.347656 209.050781 L 297.347656 199.292969 C 295.351562 200.34375 293.253906 200.867188 290.945312 200.867188 C 287.167969 200.867188 284.964844 199.082031 284.964844 194.78125 L 284.964844 165.191406 L 297.453125 165.191406 L 297.453125 155.011719 L 284.964844 155.011719 L 284.964844 140.007812 L 273.109375 140.007812 L 273.109375 155.011719 L 267.023438 155.011719 L 268.96875 165.191406 L 273.109375 165.191406 L 273.109375 197.195312 C 273.109375 208.003906 279.300781 211.464844 287.484375 211.464844 C 291.472656 211.464844 294.617188 210.519531 297.347656 209.050781 "
       style=" stroke:none;fill-rule:nonzero;fill:rgb(27.616882%,23.103333%,20.703125%);fill-opacity:1;" />
    <path
       id="path33"
       d="M 336.902344 191.949219 C 336.902344 198.242188 331.65625 202.859375 324.835938 202.757812 C 319.695312 202.652344 315.8125 199.5 315.8125 193.941406 L 315.8125 193.730469 C 315.8125 187.855469 319.800781 184.390625 326.617188 184.390625 C 330.605469 184.390625 334.175781 185.230469 336.902344 186.386719 Z M 342.777344 160.050781 C 339.210938 156.378906 333.648438 154.382812 326.410156 154.382812 C 318.960938 154.382812 313.398438 156.167969 308.046875 158.792969 L 311.40625 168.234375 C 315.078125 166.554688 319.484375 164.875 324.835938 164.875 C 332.390625 164.875 336.796875 168.757812 336.796875 176.207031 L 336.796875 178.515625 C 333.019531 177.257812 329.242188 176.3125 323.996094 176.3125 C 312.246094 176.3125 304.269531 182.1875 304.269531 194.152344 L 304.269531 194.675781 C 304.269531 205.484375 312.035156 211.675781 321.269531 211.675781 C 328.507812 211.675781 333.441406 208.527344 336.691406 203.804688 L 336.691406 210.625 L 348.339844 210.625 L 348.339844 176.101562 C 348.339844 169.179688 346.449219 163.722656 342.777344 160.050781 "
       style=" stroke:none;fill-rule:nonzero;fill:rgb(27.616882%,23.103333%,20.703125%);fill-opacity:1;" />
    <path
       id="path35"
       d="M 398.742188 203.386719 L 392.34375 195.515625 C 389.089844 198.769531 385.835938 201.183594 381.007812 201.183594 C 372.929688 201.183594 367.265625 193.941406 367.265625 183.132812 L 367.265625 182.609375 C 367.265625 172.113281 372.929688 164.667969 380.695312 164.667969 C 385.730469 164.667969 388.984375 167.183594 391.921875 170.226562 L 398.53125 161.519531 C 393.914062 156.902344 388.667969 153.964844 380.695312 153.964844 C 366.109375 153.964844 355.300781 165.925781 355.300781 182.503906 L 355.300781 183.554688 C 355.300781 200.132812 365.792969 211.777344 380.273438 211.777344 C 388.773438 211.777344 394.335938 208.316406 398.742188 203.386719 "
       style=" stroke:none;fill-rule:nonzero;fill:rgb(27.616882%,23.103333%,20.703125%);fill-opacity:1;" />
    <path
       id="path37"
       d="M 435.03125 181.761719 L 426.710938 190.707031 L 437.875 210.625 L 451.617188 210.625 L 435.03125 181.761719 "
       style=" stroke:none;fill-rule:nonzero;fill:rgb(27.616882%,23.103333%,20.703125%);fill-opacity:1;" />
    <path
       id="path39"
       d="M 437.035156 155.011719 L 418.042969 179.460938 L 418.042969 134.863281 L 406.183594 134.863281 L 406.183594 210.625 L 418.042969 210.625 L 418.042969 194.570312 L 451.09375 155.011719 L 437.035156 155.011719 "
       style=" stroke:none;fill-rule:nonzero;fill:rgb(27.616882%,23.103333%,20.703125%);fill-opacity:1;" />
    <path
       id="path41"
       d="M 285.007812 36.246094 L 258.757812 36.246094 L 258.757812 32.089844 C 258.757812 28.859375 256.144531 26.246094 252.917969 26.246094 L 200.863281 26.246094 C 197.636719 26.246094 195.023438 28.859375 195.023438 32.089844 L 195.023438 36.246094 L 168.773438 36.246094 L 168.773438 10.796875 C 168.773438 4.855469 173.632812 -0.00390625 179.570312 -0.00390625 L 274.210938 -0.00390625 C 280.148438 -0.00390625 285.007812 4.855469 285.007812 10.796875 L 285.007812 36.246094 "
       style=" stroke:none;fill-rule:nonzero;fill:rgb(92.965698%,9.494019%,26.130676%);fill-opacity:1;" />
    <path
       id="path43"
       d="M 274.210938 113.757812 L 179.570312 113.757812 C 173.632812 113.757812 168.773438 108.898438 168.773438 102.957031 L 168.773438 77.507812 L 195.023438 77.507812 L 195.023438 81.664062 C 195.023438 84.890625 197.636719 87.507812 200.863281 87.507812 L 252.917969 87.507812 C 256.144531 87.507812 258.757812 84.890625 258.757812 81.664062 L 258.757812 77.507812 L 285.007812 77.507812 L 285.007812 102.957031 C 285.007812 108.898438 280.148438 113.757812 274.210938 113.757812 "
       style=" stroke:none;fill-rule:nonzero;fill:rgb(92.965698%,9.494019%,26.130676%);fill-opacity:1;" />
    <path
       id="path45"
       d="M 168.773438 70.003906 L 195.023438 70.003906 L 195.023438 43.753906 L 168.773438 43.753906 Z M 168.773438 70.003906 "
       style=" stroke:none;fill-rule:nonzero;fill:rgb(92.965698%,9.494019%,26.130676%);fill-opacity:1;" />
    <path
       id="path47"
       d="M 258.757812 70.003906 L 285.007812 70.003906 L 285.007812 43.753906 L 258.757812 43.753906 Z M 258.757812 70.003906 "
       style=" stroke:none;fill-rule:nonzero;fill:rgb(92.965698%,9.494019%,26.130676%);fill-opacity:1;" />
  </g>
</svg>
