<?xml version="1.0" encoding="UTF-8" standalone="no"?>
<svg
   xmlns:dc="http://purl.org/dc/elements/1.1/"
   xmlns:cc="http://creativecommons.org/ns#"
   xmlns:rdf="http://www.w3.org/1999/02/22-rdf-syntax-ns#"
   xmlns:svg="http://www.w3.org/2000/svg"
   xmlns="http://www.w3.org/2000/svg"
   xmlns:sodipodi="http://sodipodi.sourceforge.net/DTD/sodipodi-0.dtd"
   xmlns:inkscape="http://www.inkscape.org/namespaces/inkscape"
   version="1.1"
   id="svg4188"
   viewBox="0 0 195 96"
   height="96"
   width="195"
   inkscape:version="0.91 r13725"
   sodipodi:docname="logo.svg">
  <sodipodi:namedview
     pagecolor="#ffffff"
     bordercolor="#666666"
     borderopacity="1"
     objecttolerance="10"
     gridtolerance="10"
     guidetolerance="10"
     inkscape:pageopacity="0"
     inkscape:pageshadow="2"
     inkscape:window-width="2560"
     inkscape:window-height="1016"
     id="namedview29"
     showgrid="false"
     inkscape:zoom="4.9866667"
     inkscape:cx="107.9242"
     inkscape:cy="19.042381"
     inkscape:window-x="0"
     inkscape:window-y="27"
     inkscape:window-maximized="1"
     inkscape:current-layer="svg4188" />
  <defs
     id="defs4190">
    <clipPath
       id="clip1">
      <path
         d="m 455,196 14.32812,0 0,15 L 455,211 Z m 0,0"
         id="path7"
         inkscape:connector-curvature="0" />
    </clipPath>
    <clipPath
       id="clip2">
      <path
         d="m 57,153 51,0 0,73.46875 -51,0 z m 0,0"
         id="path10"
         inkscape:connector-curvature="0" />
    </clipPath>
  </defs>
  <metadata
     id="metadata4193">
    <rdf:RDF>
      <cc:Work
         rdf:about="">
        <dc:format>image/svg+xml</dc:format>
        <dc:type
           rdf:resource="http://purl.org/dc/dcmitype/StillImage" />
        <dc:title></dc:title>
      </cc:Work>
    </rdf:RDF>
  </metadata>
  <g
     transform="matrix(0.68400289,0,0,0.68400289,-5.1088314,-624.50341)"
     id="layer1">
    <g
       transform="matrix(0.60235063,0,0,0.60235063,8.9619172,914.54612)"
       id="surface1324">
      <g
         style="clip-rule:nonzero"
         clip-path="url(#clip1)"
         id="g13">
        <path
           style="fill:#453a33;fill-opacity:1;fill-rule:nonzero;stroke:none"
           d="m 462.36328,208.91406 c -2.89844,0 -5.25391,-2.35547 -5.25391,-5.25 0,-2.89844 2.35547,-5.2539 5.25391,-5.2539 2.89453,0 5.25,2.35546 5.25,5.2539 0,2.89453 -2.35547,5.25 -5.25,5.25 z m 6.96094,-5.25 c 0,-3.84375 -3.125,-6.96484 -6.96094,-6.96484 -3.83984,0 -6.96484,3.12109 -6.96484,6.96484 0,3.83594 3.125,6.96094 6.96484,6.96094 3.83594,0 6.96094,-3.125 6.96094,-6.96094"
           id="path15"
           inkscape:connector-curvature="0" />
      </g>
      <path
         style="fill:#453a33;fill-opacity:1;fill-rule:nonzero;stroke:none"
         d="m 463.55078,202.4375 c 0,0.61328 -0.39062,1.02344 -1.11328,1.02344 l -1.04297,0 0,-2.05469 1.01563,0 c 0.72265,0 1.14062,0.33984 1.14062,1.02344 z m 1.42188,-0.0391 0,-0.0391 c 0,-0.67187 -0.20313,-1.20703 -0.57422,-1.57812 -0.42969,-0.42969 -1.0625,-0.65234 -1.85157,-0.65234 l -2.5625,0 0,6.82031 1.41016,0 0,-2.23828 0.88672,0 1.25781,2.23828 1.6211,0 -1.45313,-2.53125 c 0.75,-0.33203 1.26563,-0.98438 1.26563,-2.01953"
         id="path17"
         inkscape:connector-curvature="0" />
      <path
         style="fill:#453a33;fill-opacity:1;fill-rule:nonzero;stroke:none"
         d="m 11.855469,183.13281 0,-0.6289 c 0,-10.39063 5.351562,-18.04688 13.640625,-18.04688 8.082031,0 13.851562,7.76563 13.851562,18.15234 l 0,0.62891 c 0,10.38672 -5.351562,18.15234 -13.640625,18.15234 -8.078125,0 -13.851562,-7.86718 -13.851562,-18.25781 z m 39.351562,0.21094 0,-0.94531 c 0,-16.47266 -10.808593,-28.4336 -25.5,-28.4336 C 10.914062,153.96484 0,166.13672 0,182.50391 l 0,0.94531 c 0,16.47265 10.808594,28.32812 25.496094,28.32812 14.796875,0 25.710937,-12.0664 25.710937,-28.43359"
         id="path19"
         inkscape:connector-curvature="0" />
      <g
         style="clip-rule:nonzero"
         clip-path="url(#clip2)"
         id="g21">
        <path
           style="fill:#453a33;fill-opacity:1;fill-rule:nonzero;stroke:none"
           d="m 69.5625,183.34375 0,-1.05078 c 0,-10.91016 6.085938,-17.83594 13.21875,-17.83594 7.136719,0 12.90625,6.82031 12.90625,17.94141 l 0,0.94531 c 0,11.12109 -5.664062,17.83984 -12.90625,17.83984 -7.132812,0 -13.21875,-6.92968 -13.21875,-17.83984 z m 38.08984,0.21094 0,-1.46875 c 0,-18.78516 -10.49609,-28.1211 -21.617184,-28.1211 -7.976562,0 -12.800781,4.61719 -16.265625,9.96875 l 0,-8.92187 -11.855469,0 0,71.45703 11.855469,0 0,-24.23828 c 3.359375,4.92969 8.1875,9.44531 16.265625,9.44531 11.226563,0 21.617184,-9.44531 21.617184,-28.12109"
           id="path23"
           inkscape:connector-curvature="0" />
      </g>
      <path
         style="fill:#453a33;fill-opacity:1;fill-rule:nonzero;stroke:none"
         d="m 137.83203,163.93359 c 6.92578,0 10.91406,6.39844 11.54297,15.21094 l -23.50391,0 c 0.83985,-9.44141 5.45703,-15.21094 11.96094,-15.21094 z m 21.19531,39.24219 -6.1914,-7.34766 c -3.67188,3.57032 -7.55469,5.87891 -12.80078,5.87891 -7.23829,0 -13.01172,-5.03906 -14.0586,-14.375 l 34.83594,0 c 0.10156,-1.67969 0.10156,-3.35937 0.10156,-4.09375 0,-16.68359 -7.97265,-29.27344 -23.08203,-29.27344 -13.64062,0 -23.71484,11.96094 -23.71484,28.64453 l 0,0.83985 c 0,17.41797 11.12109,28.32812 25.39453,28.32812 8.28906,0 14.48047,-3.25 19.51562,-8.60156"
         id="path25"
         inkscape:connector-curvature="0" />
      <path
         style="fill:#453a33;fill-opacity:1;fill-rule:nonzero;stroke:none"
         d="m 195.73437,153.96484 c -7.55468,0 -12.0664,4.30078 -15.21484,9.23047 l 0,-8.18359 -11.85937,0 0,55.61328 11.85937,0 0,-33.68359 c 0,-7.66016 4.30078,-12.27344 10.49219,-12.27344 6.29687,0 9.96875,4.30078 9.96875,12.0625 l 0,33.89453 11.85547,0 0,-37.25 c 0,-11.85547 -6.39844,-19.41016 -17.10157,-19.41016"
         id="path27"
         inkscape:connector-curvature="0" />
      <path
         style="fill:#453a33;fill-opacity:1;fill-rule:nonzero;stroke:none"
         d="m 260.63281,194.78125 0,-0.10547 c 0,-8.71094 -6.50781,-12.69531 -15.10937,-16.57812 -6.50782,-2.94141 -10.91407,-4.82813 -10.91407,-8.5 l 0,-0.21094 c 0,-3.04297 2.625,-5.45313 7.03125,-5.45313 4.40625,0 9.02344,2.09766 13.21875,4.92969 l 5.03907,-8.71094 c -5.2461,-3.77343 -11.85938,-5.97656 -18.04688,-5.97656 -10.39062,0 -18.36328,6.29297 -18.36328,16.26172 l 0,0.21094 c 0,9.125 6.92578,12.90625 15.21484,16.47265 6.60938,2.83203 10.91016,4.61719 10.91016,8.60547 l 0,0.10156 c 0,3.46485 -2.83203,6.08594 -7.76172,6.08594 -4.93359,0 -10.28515,-2.41406 -15.32031,-6.5039 l -5.5625,8.5 c 6.40234,5.35156 14.0625,7.76562 20.67187,7.76562 10.70313,0 18.99219,-5.98437 18.99219,-16.89453"
         id="path29"
         inkscape:connector-curvature="0" />
      <path
         style="fill:#453a33;fill-opacity:1;fill-rule:nonzero;stroke:none"
         d="m 297.34766,209.05078 0,-9.75781 c -1.9961,1.05078 -4.09375,1.57422 -6.40235,1.57422 -3.77734,0 -5.98047,-1.78516 -5.98047,-6.08594 l 0,-29.58984 12.48828,0 0,-10.17969 -12.48828,0 0,-15.00391 -11.85547,0 0,15.00391 -6.08593,0 1.94531,10.17969 4.14062,0 0,32.0039 c 0,10.8086 6.19141,14.26953 14.375,14.26953 3.98829,0 7.13282,-0.94531 9.86329,-2.41406"
         id="path31"
         inkscape:connector-curvature="0" />
      <path
         style="fill:#453a33;fill-opacity:1;fill-rule:nonzero;stroke:none"
         d="m 336.90234,191.94922 c 0,6.29297 -5.24609,10.91015 -12.0664,10.80859 -5.14063,-0.10547 -9.02344,-3.25781 -9.02344,-8.8164 l 0,-0.21094 c 0,-5.875 3.98828,-9.33985 10.80469,-9.33985 3.98828,0 7.55859,0.83985 10.28515,1.9961 z m 5.875,-31.89844 c -3.5664,-3.67187 -9.1289,-5.66797 -16.36718,-5.66797 -7.44922,0 -13.01172,1.78516 -18.36329,4.41016 l 3.35938,9.4414 c 3.67187,-1.67968 8.07812,-3.35937 13.42969,-3.35937 7.55468,0 11.96093,3.88281 11.96093,11.33203 l 0,2.30859 c -3.77734,-1.25781 -7.55468,-2.20312 -12.80078,-2.20312 -11.75,0 -19.72656,5.875 -19.72656,17.83984 l 0,0.52344 c 0,10.80859 7.76563,17 17,17 7.23828,0 12.17188,-3.14844 15.42188,-7.87109 l 0,6.82031 11.64843,0 0,-34.52344 c 0,-6.92187 -1.89062,-12.3789 -5.5625,-16.05078"
         id="path33"
         inkscape:connector-curvature="0" />
      <path
         style="fill:#453a33;fill-opacity:1;fill-rule:nonzero;stroke:none"
         d="m 398.74219,203.38672 -6.39844,-7.8711 c -3.25391,3.25391 -6.50781,5.66797 -11.33594,5.66797 -8.07812,0 -13.74219,-7.24218 -13.74219,-18.05078 l 0,-0.52344 c 0,-10.49609 5.66407,-17.9414 13.42969,-17.9414 5.03516,0 8.28906,2.51562 11.22656,5.55859 l 6.60938,-8.70703 c -4.61719,-4.61719 -9.86328,-7.55469 -17.83594,-7.55469 -14.58594,0 -25.39453,11.96094 -25.39453,28.53907 l 0,1.05078 c 0,16.57812 10.49219,28.22265 24.97266,28.22265 8.5,0 14.0625,-3.46093 18.46875,-8.39062"
         id="path35"
         inkscape:connector-curvature="0" />
      <path
         style="fill:#453a33;fill-opacity:1;fill-rule:nonzero;stroke:none"
         d="m 435.03125,181.76172 -8.32031,8.94531 11.16406,19.91797 13.74219,0 -16.58594,-28.86328"
         id="path37"
         inkscape:connector-curvature="0" />
      <path
         style="fill:#453a33;fill-opacity:1;fill-rule:nonzero;stroke:none"
         d="m 437.03516,155.01172 -18.99219,24.44922 0,-44.59766 -11.85938,0 0,75.76172 11.85938,0 0,-16.05469 33.05078,-39.55859 -14.05859,0"
         id="path39"
         inkscape:connector-curvature="0" />
      <path
         style="fill:#eb1742;fill-opacity:1;fill-rule:nonzero;stroke:none"
         d="m 285.00781,36.246094 -26.25,0 0,-4.15625 c 0,-3.230469 -2.61328,-5.84375 -5.83984,-5.84375 l -52.05469,0 c -3.22656,0 -5.83984,2.613281 -5.83984,5.84375 l 0,4.15625 -26.25,0 0,-25.449219 c 0,-5.941406 4.85937,-10.80078125 10.79687,-10.80078125 l 94.64063,0 c 5.9375,0 10.79687,4.85937525 10.79687,10.80078125 l 0,25.449219"
         id="path41"
         inkscape:connector-curvature="0" />
      <path
         style="fill:#eb1742;fill-opacity:1;fill-rule:nonzero;stroke:none"
         d="m 274.21094,113.75781 -94.64063,0 c -5.9375,0 -10.79687,-4.85937 -10.79687,-10.80078 l 0,-25.449218 26.25,0 0,4.15625 c 0,3.226563 2.61328,5.84375 5.83984,5.84375 l 52.05469,0 c 3.22656,0 5.83984,-2.617187 5.83984,-5.84375 l 0,-4.15625 26.25,0 0,25.449218 c 0,5.94141 -4.85937,10.80078 -10.79687,10.80078"
         id="path43"
         inkscape:connector-curvature="0" />
      <path
         style="fill:#eb1742;fill-opacity:1;fill-rule:nonzero;stroke:none"
         d="m 168.77344,70.003906 26.25,0 0,-26.25 -26.25,0 z m 0,0"
         id="path45"
         inkscape:connector-curvature="0" />
      <path
         style="fill:#eb1742;fill-opacity:1;fill-rule:nonzero;stroke:none"
         d="m 258.75781,70.003906 26.25,0 0,-26.25 -26.25,0 z m 0,0"
         id="path47"
         inkscape:connector-curvature="0" />
    </g>
  </g>
</svg>
