<?xml version="1.0" encoding="utf-8"?>
<!-- Generator: Adobe Illustrator 16.0.0, SVG Export Plug-In . SVG Version: 6.00 Build 0)  -->
<!DOCTYPE svg PUBLIC "-//W3C//DTD SVG 1.1//EN" "http://www.w3.org/Graphics/SVG/1.1/DTD/svg11.dtd">
<svg version="1.1" id="Layer_1" xmlns="http://www.w3.org/2000/svg" xmlns:xlink="http://www.w3.org/1999/xlink" x="0px" y="0px"
	 width="338.356px" height="11.417px" viewBox="0 0 338.356 11.417" enable-background="new 0 0 338.356 11.417"
	 xml:space="preserve">
<g>
	<g>
		<g>
			<path fill="#FFFFFF" d="M9.205,10.763L7.493,7.226h-1.17v3.537H3.477V0.277h4.688c0.608,0,1.166,0.062,1.668,0.189
				c0.505,0.126,0.936,0.32,1.295,0.589c0.362,0.269,0.638,0.624,0.833,1.056c0.194,0.436,0.293,0.964,0.293,1.581
				c0,0.788-0.172,1.434-0.513,1.933s-0.799,0.878-1.381,1.136l2.104,4.002H9.205z M9.07,2.959C8.873,2.752,8.545,2.644,8.083,2.644
				H6.323v2.29h1.713c0.482,0,0.824-0.1,1.025-0.297c0.201-0.2,0.301-0.49,0.301-0.867C9.363,3.438,9.262,3.168,9.07,2.959z"/>
		</g>
		<g>
			<path fill="#FFFFFF" d="M14.199,10.763V0.277h8.029v2.444h-5.152v1.406h3.1v2.394h-3.1V8.32h5.256v2.443H14.199z"/>
		</g>
		<g>
			<path fill="#FFFFFF" d="M32.892,7.955c-0.241,0.674-0.599,1.218-1.078,1.631c-0.48,0.416-1.071,0.717-1.775,0.901
				c-0.707,0.185-1.521,0.276-2.452,0.276h-3.399V0.277h3.67c0.817,0,1.564,0.085,2.23,0.255c0.67,0.17,1.239,0.458,1.704,0.863
				c0.462,0.403,0.823,0.934,1.077,1.596c0.255,0.655,0.379,1.48,0.379,2.468C33.249,6.449,33.131,7.279,32.892,7.955z
				 M30.142,4.263c-0.085-0.35-0.222-0.634-0.409-0.856c-0.192-0.217-0.439-0.38-0.749-0.485c-0.31-0.106-0.691-0.157-1.141-0.157
				h-0.718v5.509h0.628c0.451,0,0.834-0.046,1.154-0.139c0.318-0.097,0.58-0.251,0.787-0.464c0.204-0.216,0.352-0.501,0.439-0.855
				c0.092-0.355,0.138-0.793,0.138-1.312C30.272,5.026,30.226,4.609,30.142,4.263z"/>
		</g>
		<g>
			<path fill="#FFFFFF" d="M45.576,10.763V6.629h-3.264v4.134h-2.966V0.277h2.966v3.821h3.264V0.277h2.969v10.486H45.576z"/>
		</g>
		<g>
			<path fill="#FFFFFF" d="M57.437,10.763l-0.567-1.842h-3.143l-0.57,1.842h-3.116l3.801-10.486h2.939l3.802,10.486H57.437z
				 M55.971,5.923c-0.093-0.339-0.17-0.635-0.239-0.882c-0.07-0.25-0.133-0.476-0.187-0.675C55.489,4.168,55.44,3.985,55.4,3.821
				c-0.038-0.167-0.073-0.337-0.102-0.517c-0.031,0.18-0.068,0.355-0.105,0.525c-0.04,0.168-0.087,0.353-0.142,0.551
				c-0.056,0.199-0.12,0.424-0.19,0.676c-0.069,0.247-0.146,0.541-0.239,0.867l-0.194,0.691h1.736L55.971,5.923z"/>
		</g>
		<g>
			<path fill="#FFFFFF" d="M66.067,2.81v7.953H63.16V2.81h-2.936V0.277H69V2.81H66.067z"/>
		</g>
	</g>
	<g>
		<path fill="#FFFFFF" d="M72.417,1.741c-0.052,0.129-0.125,0.24-0.219,0.333c-0.096,0.095-0.207,0.17-0.334,0.223
			c-0.127,0.055-0.266,0.078-0.417,0.078c-0.15,0-0.289-0.023-0.416-0.078c-0.128-0.053-0.24-0.128-0.335-0.223
			c-0.092-0.092-0.167-0.204-0.219-0.333c-0.053-0.129-0.082-0.269-0.082-0.417c0-0.148,0.029-0.287,0.082-0.417
			c0.053-0.128,0.127-0.238,0.219-0.331c0.096-0.097,0.208-0.17,0.335-0.225c0.127-0.053,0.266-0.08,0.416-0.08
			c0.15,0,0.289,0.026,0.417,0.08c0.128,0.055,0.239,0.127,0.334,0.225c0.094,0.092,0.167,0.202,0.219,0.331
			c0.052,0.13,0.083,0.268,0.083,0.417C72.5,1.472,72.469,1.611,72.417,1.741z M72.26,0.978c-0.043-0.108-0.105-0.201-0.185-0.284
			c-0.078-0.08-0.172-0.141-0.279-0.186c-0.107-0.044-0.224-0.065-0.349-0.065c-0.127,0-0.242,0.021-0.35,0.065
			c-0.108,0.045-0.201,0.106-0.278,0.186c-0.08,0.083-0.142,0.176-0.186,0.284c-0.045,0.108-0.069,0.223-0.069,0.346
			c0,0.125,0.024,0.243,0.069,0.349c0.044,0.107,0.106,0.2,0.186,0.282c0.077,0.08,0.169,0.141,0.278,0.187
			c0.108,0.042,0.223,0.063,0.35,0.063c0.125,0,0.242-0.021,0.349-0.063c0.107-0.045,0.202-0.107,0.279-0.187
			c0.08-0.082,0.142-0.174,0.185-0.282c0.046-0.105,0.07-0.224,0.07-0.349C72.33,1.201,72.306,1.086,72.26,0.978z M71.858,1.298
			c-0.045,0.057-0.106,0.096-0.177,0.118l0.233,0.464h-0.226l-0.224-0.446h-0.222V1.88h-0.194V0.731h0.502
			c0.049,0,0.099,0.007,0.143,0.019c0.045,0.013,0.086,0.034,0.12,0.064c0.032,0.026,0.062,0.062,0.081,0.108
			c0.02,0.041,0.029,0.094,0.029,0.155C71.923,1.17,71.903,1.24,71.858,1.298z M71.675,0.963c-0.032-0.031-0.079-0.042-0.131-0.042
			h-0.302v0.327h0.302c0.053,0,0.099-0.015,0.131-0.04c0.038-0.028,0.053-0.068,0.053-0.124C71.729,1.028,71.713,0.986,71.675,0.963
			z"/>
	</g>
	<g>
		<path fill="#FFFFFF" d="M84.532,7.754c-0.227,0.677-0.548,1.249-0.961,1.719c-0.414,0.47-0.909,0.831-1.484,1.083
			s-1.207,0.379-1.893,0.379c-0.697,0-1.331-0.124-1.901-0.371c-0.57-0.248-1.06-0.605-1.469-1.076
			c-0.409-0.469-0.727-1.039-0.954-1.711c-0.228-0.672-0.341-1.436-0.341-2.295c0-0.857,0.113-1.625,0.341-2.301
			c0.227-0.677,0.547-1.25,0.961-1.719c0.414-0.469,0.909-0.83,1.484-1.083C78.891,0.126,79.527,0,80.224,0
			c0.687,0,1.315,0.124,1.886,0.371c0.57,0.248,1.06,0.606,1.469,1.075c0.409,0.47,0.727,1.04,0.954,1.711s0.341,1.437,0.341,2.295
			C84.873,6.31,84.759,7.078,84.532,7.754z M81.996,2.983c-0.464-0.585-1.07-0.878-1.817-0.878c-0.748,0-1.346,0.288-1.795,0.863
			c-0.449,0.576-0.674,1.404-0.674,2.484c0,1.08,0.232,1.913,0.697,2.498c0.464,0.586,1.07,0.879,1.817,0.879
			s1.345-0.287,1.794-0.863s0.674-1.403,0.674-2.484C82.692,4.402,82.46,3.569,81.996,2.983z"/>
		<path fill="#FFFFFF" d="M95.004,5.111c-0.192,0.439-0.461,0.8-0.805,1.083c-0.344,0.282-0.752,0.489-1.222,0.621
			c-0.471,0.131-0.979,0.196-1.526,0.196h-2.338v3.756h-2.105V0.167h4.635c0.494,0,0.964,0.068,1.408,0.205S93.884,0.717,94.217,1
			c0.333,0.283,0.596,0.634,0.788,1.053s0.288,0.911,0.288,1.477C95.293,4.145,95.196,4.672,95.004,5.111z M92.694,2.563
			c-0.279-0.214-0.656-0.322-1.133-0.322h-2.447v2.696h2.478c1.013,0,1.52-0.454,1.52-1.363C93.112,3.115,92.973,2.778,92.694,2.563
			z"/>
		<path fill="#FFFFFF" d="M97.307,10.768V0.167h7.346v2.075h-5.24v1.818h3.044v2.075h-3.044v2.559h5.467v2.075H97.307z"/>
		<path fill="#FFFFFF" d="M113.86,10.768l-3.892-5.785c-0.131-0.202-0.271-0.417-0.417-0.644c-0.146-0.227-0.255-0.411-0.326-0.553
			c0,0.101,0.002,0.25,0.007,0.447s0.008,0.412,0.008,0.644c0,0.222,0.002,0.445,0.007,0.666c0.005,0.223,0.008,0.41,0.008,0.561
			v4.665h-2.105V0.167h2.045l3.743,5.604c0.131,0.202,0.269,0.417,0.415,0.644c0.146,0.228,0.254,0.412,0.325,0.553
			c0-0.101-0.003-0.25-0.008-0.446c-0.005-0.196-0.007-0.406-0.007-0.628c0-0.232-0.003-0.46-0.008-0.682
			c-0.005-0.222-0.007-0.409-0.007-0.561V0.167h2.105v10.602H113.86z"/>
		<path fill="#FFFFFF" d="M125.991,8.939c-0.162,0.413-0.414,0.769-0.757,1.066c-0.343,0.297-0.775,0.525-1.295,0.688
			c-0.52,0.161-1.144,0.242-1.871,0.242c-0.888,0-1.696-0.172-2.423-0.516c-0.727-0.343-1.292-0.812-1.696-1.408l1.53-1.363
			c0.373,0.435,0.79,0.745,1.249,0.932c0.459,0.188,0.947,0.28,1.462,0.28c0.636,0,1.103-0.091,1.401-0.272
			c0.297-0.182,0.447-0.475,0.447-0.879c0-0.172-0.03-0.32-0.091-0.446c-0.061-0.126-0.174-0.245-0.341-0.356
			c-0.167-0.111-0.407-0.217-0.72-0.318c-0.313-0.1-0.717-0.206-1.211-0.317c-0.485-0.11-0.932-0.242-1.34-0.394
			c-0.409-0.152-0.76-0.344-1.053-0.576c-0.293-0.232-0.52-0.525-0.681-0.878c-0.162-0.354-0.243-0.792-0.243-1.318
			c0-0.484,0.099-0.918,0.295-1.302s0.467-0.709,0.811-0.977c0.343-0.267,0.744-0.472,1.204-0.613
			C121.127,0.071,121.619,0,122.145,0c0.828,0,1.552,0.147,2.173,0.442c0.621,0.295,1.184,0.707,1.689,1.236l-1.53,1.487
			c-0.343-0.354-0.709-0.624-1.098-0.811c-0.389-0.187-0.825-0.28-1.31-0.28c-0.283,0-0.52,0.028-0.711,0.083
			c-0.192,0.055-0.349,0.128-0.47,0.219s-0.207,0.191-0.257,0.302c-0.051,0.111-0.076,0.227-0.076,0.348
			c0,0.171,0.033,0.315,0.098,0.431c0.066,0.116,0.179,0.22,0.341,0.31c0.162,0.091,0.379,0.177,0.651,0.257
			s0.621,0.171,1.045,0.272c0.424,0.101,0.846,0.219,1.265,0.355s0.797,0.325,1.136,0.567s0.613,0.549,0.826,0.922
			c0.212,0.373,0.318,0.847,0.318,1.421C126.233,8.067,126.152,8.526,125.991,8.939z"/>
		<path fill="#FFFFFF" d="M132.549,2.241v8.527h-2.105V2.241H127.4V0.167h8.193v2.075H132.549z"/>
		<path fill="#FFFFFF" d="M143.271,10.768l-0.833-2.362h-3.877l-0.833,2.362h-2.271l4.059-10.602h2.06l4.029,10.602H143.271z
			 M141.03,4.468c-0.111-0.313-0.215-0.616-0.311-0.909c-0.096-0.293-0.169-0.54-0.22-0.742c-0.051,0.202-0.124,0.449-0.22,0.742
			c-0.096,0.293-0.199,0.596-0.31,0.909l-0.682,1.923h2.423L141.03,4.468z"/>
		<path fill="#FFFFFF" d="M153.252,3.256c-0.192-0.364-0.442-0.646-0.75-0.848c-0.308-0.202-0.704-0.303-1.189-0.303
			c-0.394,0-0.747,0.083-1.06,0.25s-0.576,0.399-0.788,0.697s-0.374,0.651-0.485,1.06c-0.111,0.409-0.167,0.861-0.167,1.355
			c0,0.475,0.056,0.917,0.167,1.325c0.111,0.409,0.275,0.765,0.492,1.068c0.217,0.303,0.482,0.539,0.795,0.711
			s0.667,0.258,1.06,0.258c0.485,0,0.881-0.105,1.189-0.318c0.308-0.212,0.603-0.555,0.886-1.029l1.787,1.061
			c-0.363,0.756-0.866,1.345-1.507,1.764s-1.446,0.629-2.416,0.629c-0.697,0-1.328-0.129-1.893-0.387s-1.053-0.623-1.461-1.098
			c-0.409-0.475-0.725-1.047-0.947-1.719s-0.333-1.426-0.333-2.265c0-0.808,0.116-1.547,0.348-2.219
			c0.232-0.671,0.555-1.247,0.969-1.727c0.414-0.479,0.909-0.853,1.484-1.121S150.647,0,151.344,0c0.495,0,0.944,0.058,1.348,0.174
			c0.403,0.116,0.765,0.278,1.083,0.484c0.318,0.207,0.596,0.455,0.833,0.742s0.441,0.604,0.613,0.947L153.252,3.256z"/>
		<path fill="#FFFFFF" d="M164.02,10.768l-2.877-5.119l-1.696,1.999v3.12h-2.105V0.167h2.105v3.014c0,0.101,0,0.232,0,0.394
			c0,0.151-0.003,0.308-0.008,0.469c-0.005,0.162-0.01,0.318-0.015,0.47s-0.007,0.268-0.007,0.348c0.07-0.121,0.191-0.288,0.363-0.5
			s0.328-0.404,0.47-0.576l2.968-3.62h2.56l-3.105,3.665l3.893,6.937H164.02z"/>
		<path fill="#FFFFFF" d="M180.633,5.111c-0.192,0.439-0.461,0.8-0.805,1.083c-0.344,0.282-0.752,0.489-1.223,0.621
			c-0.471,0.131-0.979,0.196-1.525,0.196h-2.338v3.756h-2.105V0.167h4.635c0.494,0,0.964,0.068,1.408,0.205s0.833,0.346,1.166,0.628
			c0.334,0.283,0.596,0.634,0.787,1.053c0.192,0.419,0.289,0.911,0.289,1.477C180.922,4.145,180.824,4.672,180.633,5.111z
			 M178.322,2.563c-0.279-0.214-0.656-0.322-1.133-0.322h-2.447v2.696h2.479c1.013,0,1.52-0.454,1.52-1.363
			C178.74,3.115,178.602,2.778,178.322,2.563z"/>
		<path fill="#FFFFFF" d="M182.936,10.768V0.167h2.105v8.526h5.315v2.075H182.936z"/>
		<path fill="#FFFFFF" d="M199.383,10.768l-0.834-2.362h-3.877l-0.832,2.362h-2.271l4.059-10.602h2.059l4.029,10.602H199.383z
			 M197.141,4.468c-0.111-0.313-0.215-0.616-0.311-0.909s-0.169-0.54-0.219-0.742c-0.051,0.202-0.124,0.449-0.221,0.742
			c-0.096,0.293-0.199,0.596-0.31,0.909l-0.682,1.923h2.423L197.141,4.468z"/>
		<path fill="#FFFFFF" d="M206.713,2.241v8.527h-2.105V2.241h-3.043V0.167h8.193v2.075H206.713z"/>
		<path fill="#FFFFFF" d="M213.922,2.241v1.984h3.195V6.3h-3.195v4.468h-2.105V0.167h7.572v2.075H213.922z"/>
		<path fill="#FFFFFF" d="M229.18,7.754c-0.227,0.677-0.547,1.249-0.961,1.719s-0.91,0.831-1.484,1.083
			c-0.576,0.252-1.207,0.379-1.895,0.379c-0.695,0-1.33-0.124-1.9-0.371c-0.57-0.248-1.059-0.605-1.469-1.076
			c-0.408-0.469-0.727-1.039-0.953-1.711c-0.229-0.672-0.342-1.436-0.342-2.295c0-0.857,0.113-1.625,0.342-2.301
			c0.227-0.677,0.547-1.25,0.961-1.719c0.414-0.469,0.908-0.83,1.484-1.083C223.539,0.126,224.174,0,224.871,0
			c0.686,0,1.314,0.124,1.885,0.371s1.061,0.606,1.471,1.075c0.408,0.47,0.727,1.04,0.953,1.711s0.342,1.437,0.342,2.295
			C229.521,6.31,229.406,7.078,229.18,7.754z M226.643,2.983c-0.465-0.585-1.07-0.878-1.816-0.878c-0.748,0-1.346,0.288-1.795,0.863
			c-0.449,0.576-0.674,1.404-0.674,2.484c0,1.08,0.232,1.913,0.697,2.498c0.463,0.586,1.068,0.879,1.816,0.879
			c0.746,0,1.346-0.287,1.795-0.863s0.674-1.403,0.674-2.484C227.34,4.402,227.107,3.569,226.643,2.983z"/>
		<path fill="#FFFFFF" d="M237.799,10.768l-1.896-3.816h-2.141v3.816h-2.105V0.167h4.938c0.494,0,0.965,0.068,1.408,0.205
			c0.445,0.136,0.834,0.346,1.166,0.628c0.334,0.283,0.596,0.634,0.787,1.053c0.193,0.419,0.289,0.911,0.289,1.477
			c0,0.798-0.17,1.452-0.508,1.961c-0.338,0.51-0.846,0.896-1.521,1.158l2.029,4.12H237.799z M237.66,2.55
			c-0.27-0.206-0.641-0.309-1.117-0.309h-2.781v2.711h2.781c1.014,0,1.52-0.457,1.52-1.371C238.062,3.1,237.928,2.756,237.66,2.55z"
			/>
		<path fill="#FFFFFF" d="M250.27,10.768V6.876c0-0.143,0.002-0.324,0.006-0.546c0.006-0.222,0.008-0.449,0.008-0.682
			c0-0.232,0.002-0.449,0.008-0.651c0.006-0.202,0.008-0.354,0.008-0.455c-0.08,0.202-0.189,0.47-0.326,0.803
			s-0.275,0.651-0.418,0.954l-2.156,4.71l-2.145-4.71c-0.141-0.303-0.279-0.621-0.416-0.954c-0.135-0.333-0.244-0.601-0.324-0.803
			c0,0.101,0.002,0.252,0.008,0.455c0.004,0.202,0.008,0.419,0.008,0.651c0,0.232,0.002,0.46,0.008,0.682
			c0.004,0.222,0.006,0.403,0.006,0.546v3.892h-2.074V0.167h2.045l2.205,4.801c0.07,0.151,0.141,0.31,0.211,0.477
			c0.07,0.166,0.139,0.33,0.205,0.492c0.064,0.162,0.125,0.312,0.182,0.454c0.055,0.142,0.098,0.257,0.127,0.349
			c0.072-0.202,0.172-0.473,0.305-0.811c0.131-0.338,0.268-0.659,0.41-0.961l2.141-4.801h2.074v10.602H250.27z"/>
		<path fill="#FFFFFF" d="M267.633,7.868c-0.309,0.672-0.717,1.222-1.227,1.651c-0.51,0.429-1.092,0.744-1.742,0.946
			c-0.652,0.202-1.314,0.303-1.992,0.303h-3.164V0.167h3.316c0.756,0,1.455,0.094,2.098,0.28c0.641,0.187,1.195,0.492,1.666,0.916
			c0.469,0.424,0.838,0.972,1.105,1.644s0.4,1.492,0.4,2.461C268.094,6.396,267.939,7.197,267.633,7.868z M265.168,3.048
			c-0.496-0.538-1.307-0.807-2.432-0.807h-1.125v6.452h1.049c0.559,0,1.041-0.078,1.451-0.233c0.412-0.155,0.748-0.374,1.012-0.655
			s0.461-0.621,0.592-1.018c0.133-0.396,0.199-0.837,0.199-1.319C265.914,4.392,265.666,3.585,265.168,3.048z"/>
		<path fill="#FFFFFF" d="M270.365,10.768V0.167h2.105v10.602H270.365z"/>
		<path fill="#FFFFFF" d="M281.506,10.768l-1.896-3.816h-2.141v3.816h-2.105V0.167h4.938c0.494,0,0.965,0.068,1.408,0.205
			c0.445,0.136,0.834,0.346,1.166,0.628c0.334,0.283,0.596,0.634,0.787,1.053c0.193,0.419,0.289,0.911,0.289,1.477
			c0,0.798-0.17,1.452-0.508,1.961c-0.338,0.51-0.846,0.896-1.521,1.158l2.029,4.12H281.506z M281.367,2.55
			c-0.27-0.206-0.641-0.309-1.117-0.309h-2.781v2.711h2.781c1.014,0,1.52-0.457,1.52-1.371C281.77,3.1,281.635,2.756,281.367,2.55z"
			/>
		<path fill="#FFFFFF" d="M286.178,10.768V0.167h7.344v2.075h-5.24v1.818h3.045v2.075h-3.045v2.559h5.469v2.075H286.178z"/>
		<path fill="#FFFFFF" d="M301.564,3.256c-0.191-0.364-0.441-0.646-0.75-0.848s-0.705-0.303-1.189-0.303
			c-0.393,0-0.746,0.083-1.061,0.25c-0.312,0.167-0.574,0.399-0.787,0.697c-0.211,0.298-0.373,0.651-0.484,1.06
			c-0.111,0.409-0.166,0.861-0.166,1.355c0,0.475,0.055,0.917,0.166,1.325c0.111,0.409,0.275,0.765,0.492,1.068
			c0.217,0.303,0.482,0.539,0.795,0.711s0.666,0.258,1.061,0.258c0.484,0,0.881-0.105,1.189-0.318
			c0.307-0.212,0.604-0.555,0.885-1.029l1.787,1.061c-0.363,0.756-0.865,1.345-1.506,1.764c-0.643,0.419-1.447,0.629-2.416,0.629
			c-0.697,0-1.328-0.129-1.893-0.387c-0.566-0.258-1.053-0.623-1.463-1.098c-0.408-0.475-0.725-1.047-0.945-1.719
			c-0.223-0.672-0.334-1.426-0.334-2.265c0-0.808,0.117-1.547,0.35-2.219c0.23-0.671,0.555-1.247,0.969-1.727
			c0.414-0.479,0.908-0.853,1.484-1.121C298.322,0.134,298.959,0,299.656,0c0.494,0,0.943,0.058,1.348,0.174
			s0.764,0.278,1.082,0.484c0.318,0.207,0.596,0.455,0.834,0.742c0.236,0.288,0.441,0.604,0.613,0.947L301.564,3.256z"/>
		<path fill="#FFFFFF" d="M309.908,2.241v8.527h-2.105V2.241h-3.043V0.167h8.193v2.075H309.908z"/>
		<path fill="#FFFFFF" d="M322.91,7.754c-0.227,0.677-0.547,1.249-0.961,1.719s-0.91,0.831-1.484,1.083
			c-0.576,0.252-1.207,0.379-1.895,0.379c-0.695,0-1.33-0.124-1.9-0.371c-0.57-0.248-1.059-0.605-1.469-1.076
			c-0.408-0.469-0.727-1.039-0.953-1.711c-0.229-0.672-0.342-1.436-0.342-2.295c0-0.857,0.113-1.625,0.342-2.301
			c0.227-0.677,0.547-1.25,0.961-1.719c0.414-0.469,0.908-0.83,1.484-1.083C317.27,0.126,317.904,0,318.602,0
			c0.686,0,1.314,0.124,1.885,0.371s1.061,0.606,1.471,1.075c0.408,0.47,0.727,1.04,0.953,1.711s0.342,1.437,0.342,2.295
			C323.252,6.31,323.137,7.078,322.91,7.754z M320.373,2.983c-0.465-0.585-1.07-0.878-1.816-0.878c-0.748,0-1.346,0.288-1.795,0.863
			c-0.449,0.576-0.674,1.404-0.674,2.484c0,1.08,0.232,1.913,0.697,2.498c0.463,0.586,1.068,0.879,1.816,0.879
			c0.746,0,1.346-0.287,1.795-0.863s0.674-1.403,0.674-2.484C321.07,4.402,320.838,3.569,320.373,2.983z"/>
		<path fill="#FFFFFF" d="M331.529,10.768l-1.896-3.816h-2.141v3.816h-2.105V0.167h4.938c0.494,0,0.965,0.068,1.408,0.205
			c0.445,0.136,0.834,0.346,1.166,0.628c0.334,0.283,0.596,0.634,0.787,1.053c0.193,0.419,0.289,0.911,0.289,1.477
			c0,0.798-0.17,1.452-0.508,1.961c-0.338,0.51-0.846,0.896-1.521,1.158l2.029,4.12H331.529z M331.391,2.55
			c-0.27-0.206-0.641-0.309-1.117-0.309h-2.781v2.711h2.781c1.014,0,1.52-0.457,1.52-1.371C331.793,3.1,331.658,2.756,331.391,2.55z
			"/>
	</g>
</g>
</svg>
