<?xml version="1.0" encoding="UTF-8" standalone="no"?>
<svg
   xmlns:dc="http://purl.org/dc/elements/1.1/"
   xmlns:cc="http://creativecommons.org/ns#"
   xmlns:rdf="http://www.w3.org/1999/02/22-rdf-syntax-ns#"
   xmlns:svg="http://www.w3.org/2000/svg"
   xmlns="http://www.w3.org/2000/svg"
   id="svg2"
   version="1.1"
   viewBox="0 0 412.36 128.52"
   height="128.52pt"
   width="412.36pt">
  <metadata
     id="metadata137">
    <rdf:RDF>
      <cc:Work
         rdf:about="">
        <dc:format>image/svg+xml</dc:format>
        <dc:type
           rdf:resource="http://purl.org/dc/dcmitype/StillImage" />
        <dc:title></dc:title>
      </cc:Work>
    </rdf:RDF>
  </metadata>
  <defs
     id="defs4">
    <clipPath
       id="clip1">
      <path
         id="path7"
         d="M 0 0 L 129 0 L 129 128.519531 L 0 128.519531 Z M 0 0 " />
    </clipPath>
    <clipPath
       id="clip2">
      <path
         id="path10"
         d="M 406 97 L 412.359375 97 L 412.359375 107 L 406 107 Z M 406 97 " />
    </clipPath>
  </defs>
  <g
     id="surface1182">
    <path
       id="path13"
       d="M 63.277344 53.164062 C 63.71875 52.398438 64.804688 52.398438 65.242188 53.164062 C 66.90625 55.984375 69.046875 58.503906 71.554688 60.59375 C 71.992188 60.953125 72.121094 61.578125 71.832031 62.074219 L 65.253906 73.207031 C 64.804688 73.96875 63.71875 73.96875 63.265625 73.207031 L 56.6875 62.074219 C 56.398438 61.578125 56.527344 60.953125 56.964844 60.59375 C 59.464844 58.503906 61.613281 55.996094 63.277344 53.164062 "
       style=" stroke:none;fill-rule:nonzero;fill:rgb(97.587585%,88.517761%,2.690125%);fill-opacity:1;" />
    <path
       id="path15"
       d="M 63.277344 24.632812 C 59.359375 17.964844 52.78125 13.039062 45.023438 11.316406 C 43.867188 11.0625 43.765625 9.480469 44.875 9.097656 C 50.945312 6.945312 57.464844 5.78125 64.261719 5.78125 C 71.058594 5.78125 77.578125 6.945312 83.644531 9.097656 C 84.753906 9.480469 84.652344 11.0625 83.496094 11.316406 C 75.738281 13.039062 69.160156 17.964844 65.242188 24.632812 C 64.804688 25.386719 63.71875 25.386719 63.277344 24.632812 "
       style=" stroke:none;fill-rule:nonzero;fill:rgb(13.250732%,27.851868%,50.527954%);fill-opacity:1;" />
    <path
       id="path17"
       d="M 24.007812 11.847656 C 24.921875 12.089844 25.1875 13.269531 24.449219 13.859375 C 23.476562 14.632812 22.542969 15.421875 21.617188 16.242188 L 21.558594 16.171875 L 19.546875 18.125 C 19.316406 18.34375 19.109375 18.578125 18.890625 18.796875 L 18.738281 18.945312 C 17.0625 20.621094 15.488281 22.378906 14.023438 24.207031 C 13.433594 24.945312 12.242188 24.667969 12.011719 23.753906 L 8.359375 9.582031 C 8.136719 8.738281 8.914062 7.953125 9.757812 8.171875 L 24.007812 11.847656 "
       style=" stroke:none;fill-rule:nonzero;fill:rgb(13.250732%,27.851868%,50.527954%);fill-opacity:1;" />
    <path
       id="path19"
       d="M 118.765625 8.171875 C 119.605469 7.953125 120.382812 8.738281 120.160156 9.582031 L 116.507812 23.753906 C 116.277344 24.667969 115.089844 24.945312 114.496094 24.207031 C 113.03125 22.390625 111.457031 20.632812 109.78125 18.945312 L 109.632812 18.796875 C 109.410156 18.578125 109.203125 18.34375 108.972656 18.125 L 106.960938 16.171875 L 106.902344 16.242188 C 105.976562 15.421875 105.042969 14.632812 104.070312 13.859375 C 103.332031 13.269531 103.597656 12.089844 104.511719 11.847656 L 118.765625 8.171875 "
       style=" stroke:none;fill-rule:nonzero;fill:rgb(13.250732%,27.851868%,50.527954%);fill-opacity:1;" />
    <path
       id="path21"
       d="M 89.621094 16.414062 C 102.015625 16.414062 112.105469 26.507812 112.105469 38.898438 C 112.105469 51.289062 102.015625 61.371094 89.621094 61.371094 C 77.230469 61.371094 67.148438 51.289062 67.148438 38.898438 C 67.148438 26.507812 77.230469 16.414062 89.621094 16.414062 "
       style=" stroke:none;fill-rule:nonzero;fill:rgb(100%,100%,100%);fill-opacity:1;" />
    <path
       id="path23"
       d="M 38.898438 16.414062 C 51.289062 16.414062 61.371094 26.507812 61.371094 38.898438 C 61.371094 51.289062 51.289062 61.371094 38.898438 61.371094 C 26.507812 61.371094 16.414062 51.289062 16.414062 38.898438 C 16.414062 26.507812 26.507812 16.414062 38.898438 16.414062 "
       style=" stroke:none;fill-rule:nonzero;fill:rgb(100%,100%,100%);fill-opacity:1;" />
    <path
       id="path25"
       d="M 36.136719 67.011719 C 36.761719 67.070312 37.246094 67.601562 37.210938 68.238281 C 36.332031 81.308594 31.1875 93.507812 22.425781 103.261719 C 21.964844 103.769531 21.152344 103.769531 20.691406 103.261719 C 11.039062 92.523438 5.78125 78.824219 5.78125 64.261719 C 5.78125 57.519531 6.914062 50.976562 9.074219 44.816406 C 9.46875 43.707031 11.050781 43.824219 11.304688 44.96875 C 13.894531 56.769531 23.882812 65.820312 36.136719 67.011719 "
       style=" stroke:none;fill-rule:nonzero;fill:rgb(13.250732%,27.851868%,50.527954%);fill-opacity:1;" />
    <path
       id="path27"
       d="M 55.324219 97.828125 C 56.492188 98.984375 57.867188 99.921875 59.394531 100.558594 C 60.085938 100.847656 60.304688 101.691406 59.878906 102.304688 C 58.640625 104.070312 56.597656 105.238281 54.273438 105.238281 C 52.03125 105.238281 50.03125 104.152344 48.78125 102.464844 C 48.332031 101.851562 48.585938 100.972656 49.300781 100.695312 C 50.976562 100.046875 52.480469 99.078125 53.730469 97.828125 C 54.167969 97.390625 54.886719 97.378906 55.324219 97.828125 "
       style=" stroke:none;fill-rule:nonzero;fill:rgb(29.33197%,65.371704%,88.465881%);fill-opacity:1;" />
    <path
       id="path29"
       d="M 73.183594 97.828125 C 73.636719 97.390625 74.351562 97.378906 74.789062 97.828125 C 75.945312 98.984375 77.324219 99.921875 78.859375 100.558594 C 79.542969 100.847656 79.773438 101.691406 79.34375 102.304688 C 78.109375 104.070312 76.050781 105.238281 73.738281 105.238281 C 71.484375 105.238281 69.496094 104.152344 68.246094 102.464844 C 67.785156 101.851562 68.050781 100.972656 68.769531 100.695312 C 70.445312 100.046875 71.949219 99.078125 73.183594 97.828125 "
       style=" stroke:none;fill-rule:nonzero;fill:rgb(29.33197%,65.371704%,88.465881%);fill-opacity:1;" />
    <path
       id="path31"
       d="M 90.5 89.808594 C 90.0625 93.160156 87.195312 95.761719 83.714844 95.761719 C 80.28125 95.761719 77.425781 93.207031 76.953125 89.898438 C 76.871094 89.332031 76.386719 88.917969 75.820312 88.917969 L 72.167969 88.917969 C 71.589844 88.917969 71.113281 89.332031 71.035156 89.898438 C 70.546875 93.207031 67.695312 95.761719 64.261719 95.761719 C 60.828125 95.761719 57.972656 93.207031 57.484375 89.898438 C 57.40625 89.332031 56.929688 88.917969 56.351562 88.917969 L 52.699219 88.917969 C 52.132812 88.917969 51.648438 89.332031 51.566406 89.898438 C 51.09375 93.207031 48.238281 95.761719 44.792969 95.761719 C 41.324219 95.761719 38.460938 93.160156 38.019531 89.808594 C 37.996094 89.609375 38.03125 89.402344 38.113281 89.21875 C 40.957031 82.476562 42.609375 75.242188 43.015625 67.761719 C 43.035156 67.21875 43.429688 66.792969 43.960938 66.6875 C 46.191406 66.28125 48.332031 65.625 50.34375 64.722656 C 50.886719 64.480469 51.511719 64.664062 51.808594 65.171875 L 63.265625 84.582031 C 63.71875 85.34375 64.804688 85.34375 65.253906 84.582031 L 76.710938 65.183594 C 77.011719 64.664062 77.632812 64.480469 78.175781 64.722656 C 80.1875 65.625 82.328125 66.28125 84.558594 66.6875 C 85.089844 66.792969 85.484375 67.21875 85.507812 67.761719 C 85.910156 75.242188 87.566406 82.476562 90.40625 89.21875 C 90.488281 89.402344 90.523438 89.609375 90.5 89.808594 "
       style=" stroke:none;fill-rule:nonzero;fill:rgb(29.33197%,65.371704%,88.465881%);fill-opacity:1;" />
    <path
       id="path33"
       d="M 35.582031 97.515625 C 37.128906 99.171875 39.105469 100.40625 41.335938 101.042969 C 41.730469 101.15625 42.03125 101.457031 42.148438 101.863281 C 43.660156 107.132812 48.515625 111.019531 54.273438 111.019531 C 58.191406 111.019531 61.695312 109.226562 64.007812 106.417969 C 66.316406 109.226562 69.820312 111.019531 73.738281 111.019531 C 79.4375 111.019531 84.269531 107.203125 85.820312 101.992188 C 85.945312 101.585938 86.257812 101.273438 86.675781 101.179688 C 89.125 100.59375 91.285156 99.285156 92.941406 97.503906 C 93.472656 96.9375 94.371094 97.03125 94.777344 97.691406 C 96.859375 101.089844 99.261719 104.3125 101.980469 107.320312 C 102.417969 107.804688 102.382812 108.554688 101.886719 108.972656 C 91.714844 117.5625 78.582031 122.738281 64.261719 122.738281 C 49.9375 122.738281 36.804688 117.5625 26.632812 108.972656 C 26.136719 108.554688 26.101562 107.804688 26.539062 107.320312 C 29.257812 104.3125 31.660156 101.089844 33.742188 97.691406 C 34.148438 97.03125 35.046875 96.9375 35.582031 97.515625 "
       style=" stroke:none;fill-rule:nonzero;fill:rgb(29.33197%,65.371704%,88.465881%);fill-opacity:1;" />
    <path
       id="path35"
       d="M 106.09375 103.261719 C 97.332031 93.507812 92.1875 81.308594 91.308594 68.238281 C 91.273438 67.601562 91.761719 67.070312 92.386719 67.011719 C 104.636719 65.820312 114.625 56.769531 117.214844 44.96875 C 117.46875 43.824219 119.054688 43.707031 119.445312 44.816406 C 121.605469 50.976562 122.738281 57.519531 122.738281 64.261719 C 122.738281 78.824219 117.480469 92.523438 107.828125 103.261719 C 107.367188 103.769531 106.554688 103.769531 106.09375 103.261719 "
       style=" stroke:none;fill-rule:nonzero;fill:rgb(13.250732%,27.851868%,50.527954%);fill-opacity:1;" />
    <g
       id="g37"
       clip-rule="nonzero"
       clip-path="url(#clip1)">
      <path
         id="path39"
         d="M 24.449219 13.859375 C 25.1875 13.269531 24.921875 12.089844 24.007812 11.847656 L 9.757812 8.171875 C 8.914062 7.953125 8.136719 8.738281 8.359375 9.582031 L 12.011719 23.753906 C 12.242188 24.667969 13.433594 24.945312 14.023438 24.207031 C 15.488281 22.378906 17.0625 20.621094 18.738281 18.945312 L 18.890625 18.796875 C 19.109375 18.578125 19.316406 18.34375 19.546875 18.125 L 21.558594 16.171875 L 21.617188 16.242188 C 22.542969 15.421875 23.476562 14.632812 24.449219 13.859375 M 37.210938 68.238281 C 37.246094 67.601562 36.761719 67.070312 36.136719 67.011719 C 23.882812 65.820312 13.894531 56.769531 11.304688 44.96875 C 11.050781 43.824219 9.46875 43.707031 9.074219 44.816406 C 6.914062 50.976562 5.78125 57.519531 5.78125 64.261719 C 5.78125 78.824219 11.039062 92.523438 20.691406 103.261719 C 21.152344 103.769531 21.964844 103.769531 22.425781 103.261719 C 31.1875 93.507812 36.332031 81.308594 37.210938 68.238281 M 61.371094 38.898438 C 61.371094 26.507812 51.289062 16.414062 38.898438 16.414062 C 26.507812 16.414062 16.414062 26.507812 16.414062 38.898438 C 16.414062 51.289062 26.507812 61.371094 38.898438 61.371094 C 51.289062 61.371094 61.371094 51.289062 61.371094 38.898438 M 59.878906 102.304688 C 60.304688 101.691406 60.085938 100.847656 59.394531 100.558594 C 57.867188 99.921875 56.492188 98.984375 55.324219 97.828125 C 54.886719 97.378906 54.167969 97.390625 53.730469 97.828125 C 52.480469 99.078125 50.976562 100.046875 49.300781 100.695312 C 48.585938 100.972656 48.332031 101.851562 48.78125 102.464844 C 50.03125 104.152344 52.03125 105.238281 54.273438 105.238281 C 56.597656 105.238281 58.640625 104.070312 59.878906 102.304688 M 71.832031 62.074219 C 72.121094 61.578125 71.992188 60.953125 71.554688 60.59375 C 69.046875 58.503906 66.90625 55.984375 65.242188 53.164062 C 64.804688 52.398438 63.71875 52.398438 63.277344 53.164062 C 61.613281 55.996094 59.464844 58.503906 56.964844 60.59375 C 56.527344 60.953125 56.398438 61.578125 56.6875 62.074219 L 63.265625 73.207031 C 63.71875 73.96875 64.804688 73.96875 65.253906 73.207031 L 71.832031 62.074219 M 79.34375 102.304688 C 79.773438 101.691406 79.542969 100.847656 78.859375 100.558594 C 77.324219 99.921875 75.945312 98.984375 74.789062 97.828125 C 74.351562 97.378906 73.636719 97.390625 73.183594 97.828125 C 71.949219 99.078125 70.445312 100.046875 68.769531 100.695312 C 68.050781 100.972656 67.785156 101.851562 68.246094 102.464844 C 69.496094 104.152344 71.484375 105.238281 73.738281 105.238281 C 76.050781 105.238281 78.109375 104.070312 79.34375 102.304688 M 83.496094 11.316406 C 84.652344 11.0625 84.753906 9.480469 83.644531 9.097656 C 77.578125 6.945312 71.058594 5.78125 64.261719 5.78125 C 57.464844 5.78125 50.945312 6.945312 44.875 9.097656 C 43.765625 9.480469 43.867188 11.0625 45.023438 11.316406 C 52.78125 13.039062 59.359375 17.964844 63.277344 24.632812 C 63.71875 25.386719 64.804688 25.386719 65.242188 24.632812 C 69.160156 17.964844 75.738281 13.039062 83.496094 11.316406 M 90.5 89.808594 C 90.523438 89.609375 90.488281 89.402344 90.40625 89.21875 C 87.566406 82.476562 85.910156 75.242188 85.507812 67.761719 C 85.484375 67.21875 85.089844 66.792969 84.558594 66.6875 C 82.328125 66.28125 80.1875 65.625 78.175781 64.722656 C 77.632812 64.480469 77.011719 64.664062 76.710938 65.183594 L 65.253906 84.582031 C 64.804688 85.34375 63.71875 85.34375 63.265625 84.582031 L 51.808594 65.171875 C 51.511719 64.664062 50.886719 64.480469 50.34375 64.722656 C 48.332031 65.625 46.191406 66.28125 43.960938 66.6875 C 43.429688 66.792969 43.035156 67.21875 43.015625 67.761719 C 42.609375 75.242188 40.957031 82.476562 38.113281 89.21875 C 38.03125 89.402344 37.996094 89.609375 38.019531 89.808594 C 38.460938 93.160156 41.324219 95.761719 44.792969 95.761719 C 48.238281 95.761719 51.09375 93.207031 51.566406 89.898438 C 51.648438 89.332031 52.132812 88.917969 52.699219 88.917969 L 56.351562 88.917969 C 56.929688 88.917969 57.40625 89.332031 57.484375 89.898438 C 57.972656 93.207031 60.828125 95.761719 64.261719 95.761719 C 67.695312 95.761719 70.546875 93.207031 71.035156 89.898438 C 71.113281 89.332031 71.589844 88.917969 72.167969 88.917969 L 75.820312 88.917969 C 76.386719 88.917969 76.871094 89.332031 76.953125 89.898438 C 77.425781 93.207031 80.28125 95.761719 83.714844 95.761719 C 87.195312 95.761719 90.0625 93.160156 90.5 89.808594 M 101.886719 108.972656 C 102.382812 108.554688 102.417969 107.804688 101.980469 107.320312 C 99.261719 104.3125 96.859375 101.089844 94.777344 97.691406 C 94.371094 97.03125 93.472656 96.9375 92.941406 97.503906 C 91.285156 99.285156 89.125 100.59375 86.675781 101.179688 C 86.257812 101.273438 85.945312 101.585938 85.820312 101.992188 C 84.269531 107.203125 79.4375 111.019531 73.738281 111.019531 C 69.820312 111.019531 66.316406 109.226562 64.007812 106.417969 C 61.695312 109.226562 58.191406 111.019531 54.273438 111.019531 C 48.515625 111.019531 43.660156 107.132812 42.148438 101.863281 C 42.03125 101.457031 41.730469 101.15625 41.335938 101.042969 C 39.105469 100.40625 37.128906 99.171875 35.582031 97.515625 C 35.046875 96.9375 34.148438 97.03125 33.742188 97.691406 C 31.660156 101.089844 29.257812 104.3125 26.539062 107.320312 C 26.101562 107.804688 26.136719 108.554688 26.632812 108.972656 C 36.804688 117.5625 49.9375 122.738281 64.261719 122.738281 C 78.582031 122.738281 91.714844 117.5625 101.886719 108.972656 M 112.105469 38.898438 C 112.105469 26.507812 102.015625 16.414062 89.621094 16.414062 C 77.230469 16.414062 67.148438 26.507812 67.148438 38.898438 C 67.148438 51.289062 77.230469 61.371094 89.621094 61.371094 C 102.015625 61.371094 112.105469 51.289062 112.105469 38.898438 M 120.160156 9.582031 C 120.382812 8.738281 119.605469 7.953125 118.765625 8.171875 L 104.511719 11.847656 C 103.597656 12.089844 103.332031 13.269531 104.070312 13.859375 C 105.042969 14.632812 105.976562 15.421875 106.902344 16.242188 L 106.960938 16.171875 L 108.972656 18.125 C 109.203125 18.34375 109.410156 18.578125 109.632812 18.796875 L 109.78125 18.945312 C 111.457031 20.632812 113.03125 22.390625 114.496094 24.207031 C 115.089844 24.945312 116.277344 24.667969 116.507812 23.753906 L 120.160156 9.582031 M 122.738281 64.261719 C 122.738281 57.519531 121.605469 50.976562 119.445312 44.816406 C 119.054688 43.707031 117.46875 43.824219 117.214844 44.96875 C 114.625 56.769531 104.636719 65.820312 92.386719 67.011719 C 91.761719 67.070312 91.273438 67.601562 91.308594 68.238281 C 92.1875 81.308594 97.332031 93.507812 106.09375 103.261719 C 106.554688 103.769531 107.367188 103.769531 107.828125 103.261719 C 117.480469 92.523438 122.738281 78.824219 122.738281 64.261719 M 126.796875 0.136719 C 127.652344 -0.0820312 128.425781 0.695312 128.207031 1.550781 L 120.3125 32.171875 C 120.242188 32.449219 120.277344 32.75 120.429688 33.003906 C 125.699219 42.445312 128.519531 53.117188 128.519531 64.261719 C 128.519531 81.402344 121.871094 97.4375 109.792969 109.5625 L 109.632812 109.722656 C 109.410156 109.957031 109.203125 110.175781 108.972656 110.394531 L 106.960938 112.347656 L 106.902344 112.277344 C 95.539062 122.371094 80.605469 128.519531 64.261719 128.519531 C 47.914062 128.519531 32.980469 122.371094 21.617188 112.277344 L 21.558594 112.347656 L 19.546875 110.394531 C 19.316406 110.175781 19.109375 109.945312 18.890625 109.722656 L 18.738281 109.574219 C 6.648438 97.4375 0 81.402344 0 64.261719 C 0 53.117188 2.820312 42.445312 8.09375 33.003906 C 8.242188 32.75 8.277344 32.449219 8.207031 32.171875 L 0.3125 1.550781 C 0.09375 0.695312 0.867188 -0.0820312 1.722656 0.136719 L 32.492188 8.070312 C 32.773438 8.136719 33.074219 8.101562 33.328125 7.964844 C 42.503906 2.890625 53.046875 0 64.261719 0 C 75.472656 0 86.015625 2.890625 95.195312 7.964844 C 95.449219 8.101562 95.75 8.136719 96.027344 8.070312 L 126.796875 0.136719 "
         style=" stroke:none;fill-rule:nonzero;fill:rgb(6.459045%,5.915833%,5.220032%);fill-opacity:1;" />
    </g>
    <path
       id="path41"
       d="M 74.789062 97.828125 C 74.777344 97.816406 74.765625 97.804688 74.753906 97.792969 C 74.765625 97.804688 74.777344 97.816406 74.789062 97.828125 M 73.183594 97.828125 C 73.191406 97.824219 73.195312 97.816406 73.203125 97.8125 C 73.195312 97.816406 73.191406 97.824219 73.183594 97.828125 M 55.324219 97.828125 C 55.320312 97.824219 55.3125 97.820312 55.308594 97.8125 C 55.3125 97.820312 55.320312 97.824219 55.324219 97.828125 M 53.730469 97.828125 C 53.742188 97.816406 53.753906 97.804688 53.765625 97.796875 C 53.753906 97.804688 53.742188 97.816406 53.730469 97.828125 M 55.300781 97.808594 C 55.300781 97.804688 55.296875 97.804688 55.292969 97.800781 C 55.296875 97.804688 55.300781 97.804688 55.300781 97.808594 M 73.214844 97.800781 C 73.433594 97.601562 73.714844 97.496094 73.992188 97.496094 C 73.714844 97.496094 73.433594 97.601562 73.214844 97.800781 M 53.765625 97.792969 C 53.980469 97.597656 54.253906 97.496094 54.527344 97.496094 C 54.253906 97.496094 53.980469 97.597656 53.765625 97.792969 M 33.742188 97.691406 C 33.75 97.679688 33.757812 97.667969 33.761719 97.660156 C 33.757812 97.667969 33.75 97.679688 33.742188 97.691406 M 94.769531 97.675781 C 94.765625 97.671875 94.761719 97.667969 94.761719 97.664062 C 94.761719 97.667969 94.765625 97.671875 94.769531 97.675781 M 33.765625 97.65625 C 33.988281 97.316406 34.351562 97.136719 34.722656 97.132812 C 34.351562 97.136719 33.988281 97.316406 33.765625 97.65625 M 35.582031 97.515625 C 35.570312 97.507812 35.5625 97.496094 35.550781 97.488281 C 35.5625 97.496094 35.570312 97.507812 35.582031 97.515625 M 92.941406 97.503906 C 92.945312 97.5 92.949219 97.496094 92.953125 97.492188 C 92.949219 97.496094 92.945312 97.5 92.941406 97.503906 M 54.539062 97.496094 C 54.535156 97.496094 54.535156 97.496094 54.53125 97.496094 C 54.535156 97.496094 54.535156 97.496094 54.539062 97.496094 M 74 97.496094 C 74 97.496094 74 97.496094 73.996094 97.496094 C 74 97.496094 74 97.496094 74 97.496094 M 92.960938 97.480469 C 93.195312 97.246094 93.492188 97.132812 93.785156 97.132812 C 93.492188 97.132812 93.195312 97.246094 92.960938 97.480469 M 34.726562 97.132812 C 34.726562 97.132812 34.726562 97.132812 34.722656 97.132812 C 34.726562 97.132812 34.726562 97.132812 34.726562 97.132812 M 93.792969 97.132812 C 93.792969 97.132812 93.789062 97.132812 93.789062 97.132812 C 93.789062 97.132812 93.792969 97.132812 93.792969 97.132812 "
       style=" stroke:none;fill-rule:nonzero;fill:rgb(80.947876%,79.075623%,78.543091%);fill-opacity:1;" />
    <path
       id="path43"
       d="M 21.558594 103.644531 C 21.339844 103.644531 21.121094 103.582031 20.929688 103.460938 C 11.605469 93.121094 5.925781 79.429688 5.925781 64.40625 C 5.925781 59.832031 6.472656 55.386719 7.46875 51.113281 C 10.960938 66.101562 20.226562 78.867188 32.796875 86.941406 C 30.304688 92.863281 26.820312 98.371094 22.425781 103.261719 C 22.195312 103.515625 21.875 103.644531 21.558594 103.644531 "
       style=" stroke:none;fill-rule:nonzero;fill:rgb(12.892151%,24.862671%,43.273926%);fill-opacity:1;" />
    <path
       id="path45"
       d="M 54.273438 105.238281 C 52.03125 105.238281 50.03125 104.152344 48.78125 102.464844 C 48.628906 102.257812 48.554688 102.015625 48.554688 101.78125 C 48.558594 101.324219 48.828125 100.878906 49.300781 100.695312 C 50.976562 100.046875 52.480469 99.078125 53.730469 97.828125 C 53.742188 97.816406 53.753906 97.804688 53.765625 97.796875 C 53.765625 97.792969 53.765625 97.792969 53.765625 97.792969 C 53.980469 97.597656 54.253906 97.496094 54.527344 97.496094 C 54.53125 97.496094 54.53125 97.496094 54.53125 97.496094 C 54.535156 97.496094 54.535156 97.496094 54.539062 97.496094 C 54.8125 97.496094 55.082031 97.597656 55.292969 97.800781 C 55.296875 97.804688 55.300781 97.804688 55.300781 97.808594 C 55.304688 97.808594 55.304688 97.8125 55.308594 97.8125 C 55.3125 97.820312 55.320312 97.824219 55.324219 97.828125 C 56.492188 98.984375 57.867188 99.921875 59.394531 100.558594 C 59.84375 100.746094 60.097656 101.171875 60.097656 101.613281 C 60.097656 101.847656 60.027344 102.089844 59.878906 102.304688 C 58.640625 104.070312 56.597656 105.238281 54.273438 105.238281 "
       style=" stroke:none;fill-rule:nonzero;fill:rgb(25.404358%,54.692078%,72.515869%);fill-opacity:1;" />
    <path
       id="path47"
       d="M 73.738281 105.238281 C 71.484375 105.238281 69.496094 104.152344 68.246094 102.464844 C 68.089844 102.257812 68.019531 102.015625 68.019531 101.78125 C 68.019531 101.324219 68.292969 100.878906 68.769531 100.695312 C 70.445312 100.046875 71.949219 99.078125 73.183594 97.828125 C 73.191406 97.824219 73.195312 97.816406 73.203125 97.8125 C 73.207031 97.808594 73.210938 97.804688 73.214844 97.800781 C 73.433594 97.601562 73.714844 97.496094 73.992188 97.496094 C 73.996094 97.496094 73.996094 97.496094 73.996094 97.496094 C 74 97.496094 74 97.496094 74 97.496094 C 74.273438 97.496094 74.539062 97.59375 74.753906 97.792969 C 74.765625 97.804688 74.777344 97.816406 74.789062 97.828125 C 75.945312 98.984375 77.324219 99.921875 78.859375 100.558594 C 79.308594 100.746094 79.558594 101.175781 79.5625 101.621094 C 79.5625 101.855469 79.492188 102.09375 79.34375 102.304688 C 78.109375 104.070312 76.050781 105.238281 73.738281 105.238281 "
       style=" stroke:none;fill-rule:nonzero;fill:rgb(25.404358%,54.692078%,72.515869%);fill-opacity:1;" />
    <path
       id="path49"
       d="M 83.714844 95.761719 C 82.058594 95.761719 80.539062 95.167969 79.355469 94.179688 C 83.238281 93.144531 86.964844 91.710938 90.480469 89.9375 C 89.984375 93.226562 87.148438 95.761719 83.714844 95.761719 M 44.792969 95.761719 C 41.371094 95.761719 38.535156 93.226562 38.039062 89.9375 C 41.554688 91.710938 45.28125 93.140625 49.164062 94.179688 C 47.976562 95.167969 46.453125 95.761719 44.792969 95.761719 "
       style=" stroke:none;fill-rule:nonzero;fill:rgb(25.404358%,54.692078%,72.515869%);fill-opacity:1;" />
    <path
       id="path51"
       d="M 64.261719 122.738281 C 49.9375 122.738281 36.804688 117.5625 26.632812 108.972656 C 26.367188 108.75 26.234375 108.429688 26.234375 108.109375 C 26.234375 107.828125 26.335938 107.546875 26.539062 107.320312 C 29.257812 104.3125 31.660156 101.089844 33.742188 97.691406 C 33.75 97.679688 33.757812 97.667969 33.761719 97.660156 C 33.761719 97.65625 33.765625 97.65625 33.765625 97.65625 C 33.988281 97.316406 34.351562 97.136719 34.722656 97.132812 C 34.726562 97.132812 34.726562 97.132812 34.726562 97.132812 C 35.023438 97.136719 35.320312 97.25 35.550781 97.488281 C 35.5625 97.496094 35.570312 97.507812 35.582031 97.515625 C 37.128906 99.171875 39.105469 100.40625 41.335938 101.042969 C 41.730469 101.15625 42.03125 101.457031 42.148438 101.863281 C 43.660156 107.132812 48.515625 111.019531 54.273438 111.019531 C 58.191406 111.019531 61.695312 109.226562 64.007812 106.417969 C 66.316406 109.226562 69.820312 111.019531 73.738281 111.019531 C 79.4375 111.019531 84.269531 107.203125 85.820312 101.992188 C 85.945312 101.585938 86.257812 101.273438 86.675781 101.179688 C 89.125 100.59375 91.285156 99.285156 92.941406 97.503906 C 92.945312 97.5 92.949219 97.496094 92.953125 97.492188 C 92.957031 97.488281 92.957031 97.484375 92.960938 97.480469 C 93.195312 97.246094 93.492188 97.132812 93.785156 97.132812 C 93.785156 97.132812 93.789062 97.132812 93.789062 97.132812 C 93.789062 97.132812 93.792969 97.132812 93.792969 97.132812 C 94.167969 97.132812 94.535156 97.316406 94.761719 97.664062 C 94.761719 97.667969 94.765625 97.671875 94.769531 97.675781 C 94.773438 97.679688 94.773438 97.6875 94.777344 97.691406 C 96.859375 101.089844 99.261719 104.3125 101.980469 107.320312 C 102.183594 107.546875 102.285156 107.828125 102.285156 108.109375 C 102.285156 108.429688 102.152344 108.75 101.886719 108.972656 C 91.714844 117.5625 78.582031 122.738281 64.261719 122.738281 "
       style=" stroke:none;fill-rule:nonzero;fill:rgb(25.404358%,54.692078%,72.515869%);fill-opacity:1;" />
    <path
       id="path53"
       d="M 106.960938 103.644531 C 106.644531 103.644531 106.324219 103.515625 106.09375 103.261719 C 101.699219 98.371094 98.214844 92.863281 95.722656 86.941406 C 108.292969 78.867188 117.558594 66.101562 121.050781 51.113281 C 122.046875 55.386719 122.59375 59.832031 122.59375 64.40625 C 122.59375 79.429688 116.914062 93.121094 107.589844 103.460938 C 107.398438 103.582031 107.179688 103.644531 106.960938 103.644531 "
       style=" stroke:none;fill-rule:nonzero;fill:rgb(12.892151%,24.862671%,43.273926%);fill-opacity:1;" />
    <path
       id="path55"
       d="M 64.261719 122.738281 C 47.066406 122.738281 31.605469 115.300781 20.929688 103.460938 C 21.121094 103.582031 21.339844 103.644531 21.558594 103.644531 C 21.875 103.644531 22.195312 103.515625 22.425781 103.261719 C 26.820312 98.371094 30.304688 92.863281 32.796875 86.941406 C 34.484375 88.027344 36.234375 89.027344 38.039062 89.9375 C 38.535156 93.226562 41.371094 95.761719 44.792969 95.761719 C 46.453125 95.761719 47.976562 95.167969 49.164062 94.179688 C 53.980469 95.46875 59.039062 96.152344 64.261719 96.152344 C 69.480469 96.152344 74.539062 95.46875 79.355469 94.179688 C 80.539062 95.167969 82.058594 95.761719 83.714844 95.761719 C 87.148438 95.761719 89.984375 93.226562 90.480469 89.9375 C 92.285156 89.027344 94.035156 88.027344 95.722656 86.941406 C 98.214844 92.863281 101.699219 98.371094 106.09375 103.261719 C 106.324219 103.515625 106.644531 103.644531 106.960938 103.644531 C 107.179688 103.644531 107.398438 103.582031 107.589844 103.460938 C 96.914062 115.300781 81.457031 122.738281 64.261719 122.738281 M 26.234375 108.109375 C 26.234375 108.429688 26.367188 108.75 26.632812 108.972656 C 36.804688 117.5625 49.9375 122.738281 64.261719 122.738281 C 78.582031 122.738281 91.714844 117.5625 101.886719 108.972656 C 102.152344 108.75 102.285156 108.429688 102.285156 108.109375 C 102.285156 107.828125 102.183594 107.546875 101.980469 107.320312 C 99.261719 104.3125 96.859375 101.089844 94.777344 97.691406 C 94.773438 97.6875 94.773438 97.679688 94.769531 97.675781 C 94.765625 97.671875 94.761719 97.667969 94.761719 97.664062 C 94.535156 97.316406 94.167969 97.132812 93.792969 97.132812 C 93.792969 97.132812 93.789062 97.132812 93.789062 97.132812 C 93.789062 97.132812 93.785156 97.132812 93.785156 97.132812 C 93.492188 97.132812 93.195312 97.246094 92.960938 97.480469 C 92.957031 97.484375 92.957031 97.488281 92.953125 97.492188 C 92.949219 97.496094 92.945312 97.5 92.941406 97.503906 C 91.285156 99.285156 89.125 100.59375 86.675781 101.179688 C 86.257812 101.273438 85.945312 101.585938 85.820312 101.992188 C 84.269531 107.203125 79.4375 111.019531 73.738281 111.019531 C 69.820312 111.019531 66.316406 109.226562 64.007812 106.417969 C 61.695312 109.226562 58.191406 111.019531 54.273438 111.019531 C 48.515625 111.019531 43.660156 107.132812 42.148438 101.863281 C 42.03125 101.457031 41.730469 101.15625 41.335938 101.042969 C 39.105469 100.40625 37.128906 99.171875 35.582031 97.515625 C 35.570312 97.507812 35.5625 97.496094 35.550781 97.488281 C 35.320312 97.25 35.023438 97.136719 34.726562 97.132812 C 34.726562 97.132812 34.726562 97.132812 34.722656 97.132812 C 34.351562 97.136719 33.988281 97.316406 33.765625 97.65625 C 33.765625 97.65625 33.761719 97.65625 33.761719 97.660156 C 33.757812 97.667969 33.75 97.679688 33.742188 97.691406 C 31.660156 101.089844 29.257812 104.3125 26.539062 107.320312 C 26.335938 107.546875 26.234375 107.828125 26.234375 108.109375 M 68.019531 101.78125 C 68.019531 102.015625 68.089844 102.257812 68.246094 102.464844 C 69.496094 104.152344 71.484375 105.238281 73.738281 105.238281 C 76.050781 105.238281 78.109375 104.070312 79.34375 102.304688 C 79.492188 102.09375 79.5625 101.855469 79.5625 101.621094 C 79.558594 101.175781 79.308594 100.746094 78.859375 100.558594 C 77.324219 99.921875 75.945312 98.984375 74.789062 97.828125 C 74.777344 97.816406 74.765625 97.804688 74.753906 97.792969 C 74.539062 97.59375 74.273438 97.496094 74 97.496094 C 74 97.496094 74 97.496094 73.996094 97.496094 C 73.996094 97.496094 73.996094 97.496094 73.992188 97.496094 C 73.714844 97.496094 73.433594 97.601562 73.214844 97.800781 C 73.210938 97.804688 73.207031 97.808594 73.203125 97.8125 C 73.195312 97.816406 73.191406 97.824219 73.183594 97.828125 C 71.949219 99.078125 70.445312 100.046875 68.769531 100.695312 C 68.292969 100.878906 68.019531 101.324219 68.019531 101.78125 M 48.554688 101.78125 C 48.554688 102.015625 48.628906 102.257812 48.78125 102.464844 C 50.03125 104.152344 52.03125 105.238281 54.273438 105.238281 C 56.597656 105.238281 58.640625 104.070312 59.878906 102.304688 C 60.027344 102.089844 60.097656 101.847656 60.097656 101.613281 C 60.097656 101.171875 59.84375 100.746094 59.394531 100.558594 C 57.867188 99.921875 56.492188 98.984375 55.324219 97.828125 C 55.320312 97.824219 55.3125 97.820312 55.308594 97.8125 C 55.304688 97.8125 55.304688 97.808594 55.300781 97.808594 C 55.300781 97.804688 55.296875 97.804688 55.292969 97.800781 C 55.082031 97.597656 54.8125 97.496094 54.539062 97.496094 C 54.535156 97.496094 54.535156 97.496094 54.53125 97.496094 C 54.53125 97.496094 54.53125 97.496094 54.527344 97.496094 C 54.253906 97.496094 53.980469 97.597656 53.765625 97.792969 C 53.765625 97.792969 53.765625 97.792969 53.765625 97.796875 C 53.753906 97.804688 53.742188 97.816406 53.730469 97.828125 C 52.480469 99.078125 50.976562 100.046875 49.300781 100.695312 C 48.828125 100.878906 48.558594 101.324219 48.554688 101.78125 "
       style=" stroke:none;fill-rule:nonzero;fill:rgb(5.665588%,5.178833%,4.473877%);fill-opacity:1;" />
    <path
       id="path57"
       d="M 53.851562 38.898438 C 53.851562 30.636719 47.152344 23.941406 38.894531 23.941406 C 30.632812 23.941406 23.933594 30.636719 23.933594 38.898438 C 23.933594 47.160156 30.632812 53.855469 38.894531 53.855469 C 47.152344 53.855469 53.851562 47.160156 53.851562 38.898438 "
       style=" stroke:none;fill-rule:nonzero;fill:rgb(97.587585%,88.517761%,2.690125%);fill-opacity:1;" />
    <path
       id="path59"
       d="M 38.886719 33.117188 C 42.082031 33.117188 44.671875 35.707031 44.671875 38.902344 C 44.671875 42.089844 42.082031 44.679688 38.886719 44.679688 C 35.691406 44.679688 33.113281 42.089844 33.113281 38.902344 C 33.113281 35.707031 35.691406 33.117188 38.886719 33.117188 "
       style=" stroke:none;fill-rule:nonzero;fill:rgb(6.459045%,5.915833%,5.220032%);fill-opacity:1;" />
    <path
       id="path61"
       d="M 104.714844 38.898438 C 104.714844 30.636719 98.015625 23.941406 89.753906 23.941406 C 81.492188 23.941406 74.796875 30.636719 74.796875 38.898438 C 74.796875 47.160156 81.492188 53.855469 89.753906 53.855469 C 98.015625 53.855469 104.714844 47.160156 104.714844 38.898438 "
       style=" stroke:none;fill-rule:nonzero;fill:rgb(97.587585%,88.517761%,2.690125%);fill-opacity:1;" />
    <path
       id="path63"
       d="M 89.75 33.117188 C 92.945312 33.117188 95.535156 35.707031 95.535156 38.902344 C 95.535156 42.089844 92.945312 44.679688 89.75 44.679688 C 86.554688 44.679688 83.976562 42.089844 83.976562 38.902344 C 83.976562 35.707031 86.554688 33.117188 89.75 33.117188 "
       style=" stroke:none;fill-rule:nonzero;fill:rgb(6.459045%,5.915833%,5.220032%);fill-opacity:1;" />
    <path
       id="path65"
       d="M 167.878906 50.984375 L 156.804688 50.984375 L 156.804688 40.617188 L 190.46875 40.617188 L 190.46875 50.984375 L 179.394531 50.984375 L 179.394531 85.414062 L 167.878906 85.414062 L 167.878906 50.984375 "
       style=" stroke:none;fill-rule:nonzero;fill:rgb(12.452698%,9.849548%,8.714294%);fill-opacity:1;" />
    <path
       id="path67"
       d="M 212.226562 62.375 C 216.128906 62.375 218.433594 60.132812 218.433594 56.550781 L 218.433594 56.421875 C 218.433594 52.582031 216.003906 50.664062 212.160156 50.664062 L 206.53125 50.664062 L 206.53125 62.375 Z M 195.078125 40.617188 L 212.675781 40.617188 C 218.691406 40.617188 223.234375 42.214844 226.113281 45.160156 C 228.609375 47.65625 230.019531 51.109375 230.019531 55.65625 L 230.019531 55.972656 C 230.019531 62.628906 226.753906 66.789062 222.019531 69.15625 L 231.234375 85.414062 L 218.242188 85.414062 L 210.628906 71.527344 L 206.53125 71.527344 L 206.53125 85.414062 L 195.078125 85.414062 L 195.078125 40.617188 "
       style=" stroke:none;fill-rule:nonzero;fill:rgb(12.452698%,9.849548%,8.714294%);fill-opacity:1;" />
    <path
       id="path69"
       d="M 235.394531 40.617188 L 246.914062 40.617188 L 246.914062 85.414062 L 235.394531 85.414062 L 235.394531 40.617188 "
       style=" stroke:none;fill-rule:nonzero;fill:rgb(12.452698%,9.849548%,8.714294%);fill-opacity:1;" />
    <path
       id="path71"
       d="M 269.3125 63.015625 C 273.347656 63.015625 275.777344 60.644531 275.777344 56.871094 L 275.777344 56.679688 C 275.777344 52.582031 273.410156 50.472656 269.25 50.472656 L 265.28125 50.472656 L 265.28125 63.015625 Z M 253.828125 40.617188 L 269.824219 40.617188 C 280.386719 40.617188 287.296875 46.121094 287.296875 56.167969 L 287.296875 56.421875 C 287.296875 67.175781 279.488281 72.292969 269.699219 72.421875 L 265.28125 72.421875 L 265.28125 85.414062 L 253.828125 85.414062 L 253.828125 40.617188 "
       style=" stroke:none;fill-rule:nonzero;fill:rgb(12.452698%,9.849548%,8.714294%);fill-opacity:1;" />
    <path
       id="path73"
       d="M 291.652344 40.617188 L 303.167969 40.617188 L 303.167969 75.046875 L 320.769531 75.046875 L 320.769531 85.414062 L 291.652344 85.414062 L 291.652344 40.617188 "
       style=" stroke:none;fill-rule:nonzero;fill:rgb(12.452698%,9.849548%,8.714294%);fill-opacity:1;" />
    <path
       id="path75"
       d="M 325.3125 40.617188 L 356.160156 40.617188 L 356.160156 50.726562 L 336.703125 50.726562 L 336.703125 58.085938 L 354.238281 58.085938 L 354.238281 67.621094 L 336.703125 67.621094 L 336.703125 75.300781 L 356.414062 75.300781 L 356.414062 85.414062 L 325.3125 85.414062 L 325.3125 40.617188 "
       style=" stroke:none;fill-rule:nonzero;fill:rgb(12.452698%,9.849548%,8.714294%);fill-opacity:1;" />
    <path
       id="path77"
       d="M 389.824219 63.398438 L 389.824219 62.695312 C 389.824219 54.949219 386.113281 50.214844 380.800781 50.214844 C 375.488281 50.214844 371.839844 54.886719 371.839844 62.628906 L 371.839844 63.332031 C 371.839844 71.078125 375.554688 75.8125 380.863281 75.8125 C 386.238281 75.8125 389.824219 71.140625 389.824219 63.398438 Z M 360.066406 63.527344 L 360.066406 62.566406 C 360.066406 49.191406 368.832031 39.785156 380.863281 39.785156 C 392.960938 39.785156 401.597656 49.0625 401.597656 62.503906 L 401.597656 63.460938 C 401.597656 76.835938 392.832031 86.246094 380.800781 86.246094 C 368.703125 86.246094 360.066406 76.964844 360.066406 63.527344 "
       style=" stroke:none;fill-rule:nonzero;fill:rgb(12.452698%,9.849548%,8.714294%);fill-opacity:1;" />
    <path
       id="path79"
       d="M 161.15625 101.332031 C 161.15625 100.484375 160.84375 100.027344 160.273438 100.027344 C 158.820312 100.027344 157.855469 102.734375 157.855469 104.058594 C 157.855469 105.023438 158.199219 105.511719 158.804688 105.511719 C 160.125 105.511719 161.15625 102.65625 161.15625 101.332031 Z M 162.410156 104.140625 C 162.28125 104.566406 162.230469 104.859375 162.230469 105.070312 C 162.230469 105.347656 162.363281 105.496094 162.609375 105.496094 C 162.96875 105.496094 163.324219 104.941406 163.703125 103.847656 L 164.484375 104.089844 C 163.847656 106.082031 162.96875 106.816406 161.972656 106.816406 C 161.203125 106.816406 160.632812 106.328125 160.632812 105.382812 C 160.632812 105.265625 160.632812 105.183594 160.648438 105.023438 L 160.535156 104.972656 C 159.914062 106.199219 158.984375 106.816406 158.054688 106.816406 C 156.648438 106.816406 155.882812 105.660156 155.882812 104.222656 C 155.882812 102.558594 156.550781 101.070312 157.433594 100.207031 C 158.199219 99.421875 159.066406 98.964844 159.980469 98.964844 C 160.894531 98.964844 161.414062 99.601562 161.5625 100.335938 L 161.890625 99.078125 L 163.75 99.078125 L 162.410156 104.140625 "
       style=" stroke:none;fill-rule:nonzero;fill:rgb(29.33197%,65.371704%,88.465881%);fill-opacity:1;" />
    <path
       id="path81"
       d="M 172.664062 105.496094 C 173.007812 105.496094 173.347656 104.972656 173.789062 103.847656 L 174.558594 104.089844 C 173.90625 106.066406 172.992188 106.816406 172.058594 106.816406 C 171.179688 106.816406 170.605469 106.246094 170.605469 105.300781 C 170.605469 103.667969 171.683594 102.050781 171.683594 100.941406 C 171.683594 100.566406 171.519531 100.402344 171.242188 100.402344 C 170.492188 100.402344 169.089844 101.640625 167.78125 106.65625 L 165.824219 106.65625 L 167.226562 101.363281 C 167.472656 100.433594 167.421875 100.171875 167.128906 100.171875 C 166.753906 100.171875 166.328125 100.875 165.855469 101.886719 L 165.089844 101.5625 C 165.789062 99.929688 166.605469 98.980469 167.699219 98.980469 C 168.402344 98.980469 168.890625 99.488281 168.890625 100.5 C 168.890625 100.972656 168.792969 101.5625 168.550781 102.3125 L 168.664062 102.359375 C 169.742188 100.058594 170.949219 98.964844 172.109375 98.964844 C 173.023438 98.964844 173.59375 99.683594 173.59375 100.660156 C 173.59375 102.050781 172.386719 104.140625 172.386719 105.136719 C 172.386719 105.382812 172.484375 105.496094 172.664062 105.496094 "
       style=" stroke:none;fill-rule:nonzero;fill:rgb(29.33197%,65.371704%,88.465881%);fill-opacity:1;" />
    <path
       id="path83"
       d="M 180.808594 102.914062 C 180.808594 104.808594 181.738281 105.722656 183.273438 105.722656 C 185.9375 105.722656 187.015625 101.757812 187.015625 99.652344 C 187.015625 97.757812 186.066406 96.84375 184.546875 96.84375 C 181.871094 96.84375 180.808594 100.808594 180.808594 102.914062 Z M 184.628906 95.652344 C 187.308594 95.652344 189.183594 97.5625 189.183594 100.367188 C 189.183594 103.519531 186.816406 106.914062 183.191406 106.914062 C 180.515625 106.914062 178.621094 105.003906 178.621094 102.199219 C 178.621094 99.046875 180.988281 95.652344 184.628906 95.652344 "
       style=" stroke:none;fill-rule:nonzero;fill:rgb(29.33197%,65.371704%,88.465881%);fill-opacity:1;" />
    <path
       id="path85"
       d="M 193.035156 104.304688 C 193.035156 105.105469 193.378906 105.660156 194.097656 105.660156 C 195.550781 105.660156 196.367188 102.914062 196.367188 101.625 C 196.367188 100.710938 196.074219 100.238281 195.46875 100.238281 C 194.164062 100.238281 193.035156 102.867188 193.035156 104.304688 Z M 191.714844 100.320312 C 191.339844 100.320312 191.046875 100.792969 190.523438 101.886719 L 189.753906 101.5625 C 190.539062 99.765625 191.308594 98.980469 192.335938 98.980469 C 193.070312 98.980469 193.558594 99.519531 193.558594 100.449219 C 193.558594 100.566406 193.542969 100.710938 193.527344 100.859375 L 193.65625 100.90625 C 194.277344 99.617188 195.273438 98.964844 196.171875 98.964844 C 197.542969 98.964844 198.328125 100.089844 198.328125 101.609375 C 198.328125 104.238281 196.515625 106.671875 194.507812 106.671875 C 193.640625 106.671875 192.953125 106.230469 192.644531 105.578125 L 191.992188 108.011719 L 193.527344 108.011719 L 193.199219 109.21875 L 188.679688 109.21875 L 189.003906 108.011719 L 190.113281 108.011719 L 191.84375 101.542969 C 192.089844 100.628906 192.007812 100.320312 191.714844 100.320312 "
       style=" stroke:none;fill-rule:nonzero;fill:rgb(29.33197%,65.371704%,88.465881%);fill-opacity:1;" />
    <path
       id="path87"
       d="M 201.363281 102.816406 C 203.632812 102.574219 204.464844 101.691406 204.464844 100.679688 C 204.464844 100.222656 204.203125 99.863281 203.714844 99.863281 C 202.570312 99.863281 201.703125 101.414062 201.363281 102.816406 Z M 201.214844 103.585938 C 201.199219 103.714844 201.199219 103.847656 201.199219 103.960938 C 201.199219 105.316406 201.902344 105.742188 202.71875 105.742188 C 203.515625 105.742188 204.316406 105.199219 205.003906 104.238281 L 205.6875 104.726562 C 204.855469 105.921875 203.84375 106.816406 202.113281 106.816406 C 200.433594 106.816406 199.257812 105.640625 199.257812 103.847656 C 199.257812 101.332031 201.429688 98.964844 203.992188 98.964844 C 205.394531 98.964844 206.179688 99.667969 206.179688 100.660156 C 206.179688 102.132812 204.644531 103.390625 201.214844 103.585938 "
       style=" stroke:none;fill-rule:nonzero;fill:rgb(29.33197%,65.371704%,88.465881%);fill-opacity:1;" />
    <path
       id="path89"
       d="M 214.585938 105.496094 C 214.929688 105.496094 215.269531 104.972656 215.710938 103.847656 L 216.480469 104.089844 C 215.828125 106.066406 214.910156 106.816406 213.980469 106.816406 C 213.101562 106.816406 212.527344 106.246094 212.527344 105.300781 C 212.527344 103.667969 213.605469 102.050781 213.605469 100.941406 C 213.605469 100.566406 213.441406 100.402344 213.164062 100.402344 C 212.414062 100.402344 211.011719 101.640625 209.703125 106.65625 L 207.742188 106.65625 L 209.148438 101.363281 C 209.394531 100.433594 209.34375 100.171875 209.050781 100.171875 C 208.675781 100.171875 208.25 100.875 207.777344 101.886719 L 207.011719 101.5625 C 207.710938 99.929688 208.527344 98.980469 209.621094 98.980469 C 210.324219 98.980469 210.8125 99.488281 210.8125 100.5 C 210.8125 100.972656 210.714844 101.5625 210.472656 102.3125 L 210.585938 102.359375 C 211.664062 100.058594 212.871094 98.964844 214.03125 98.964844 C 214.945312 98.964844 215.515625 99.683594 215.515625 100.660156 C 215.515625 102.050781 214.308594 104.140625 214.308594 105.136719 C 214.308594 105.382812 214.40625 105.496094 214.585938 105.496094 "
       style=" stroke:none;fill-rule:nonzero;fill:rgb(29.33197%,65.371704%,88.465881%);fill-opacity:1;" />
    <path
       id="path91"
       d="M 218.175781 102.835938 L 219.335938 102.835938 C 219.644531 104.792969 220.789062 105.757812 222.226562 105.757812 C 223.515625 105.757812 224.265625 104.941406 224.265625 104.089844 C 224.265625 103.144531 223.1875 102.703125 222.03125 102.164062 C 220.675781 101.5625 219.1875 100.84375 219.1875 99.113281 C 219.1875 97.28125 220.835938 95.652344 223.007812 95.652344 C 224.167969 95.652344 225.246094 96.125 225.785156 96.890625 L 226.453125 95.699219 L 227.679688 95.699219 L 226.714844 99.570312 L 225.574219 99.570312 C 225.230469 97.542969 224.410156 96.792969 223.007812 96.792969 C 221.949219 96.792969 221.195312 97.5625 221.195312 98.410156 C 221.195312 99.4375 222.308594 99.878906 223.484375 100.402344 C 224.820312 100.972656 226.257812 101.660156 226.257812 103.375 C 226.257812 105.382812 224.476562 106.914062 222.242188 106.914062 C 220.820312 106.914062 219.761719 106.394531 219.140625 105.609375 L 218.421875 106.867188 L 217.195312 106.867188 L 218.175781 102.835938 "
       style=" stroke:none;fill-rule:nonzero;fill:rgb(29.33197%,65.371704%,88.465881%);fill-opacity:1;" />
    <path
       id="path93"
       d="M 231.613281 100.304688 L 230.632812 103.878906 C 230.519531 104.285156 230.4375 104.660156 230.4375 104.859375 C 230.4375 105.300781 230.664062 105.445312 231.007812 105.445312 C 231.59375 105.445312 232.085938 104.726562 232.542969 103.683594 L 233.324219 103.945312 C 232.527344 106.261719 231.269531 106.816406 230.386719 106.816406 C 229.308594 106.816406 228.542969 106.277344 228.542969 105.167969 C 228.542969 104.695312 228.722656 104.011719 228.835938 103.550781 L 229.71875 100.304688 L 228.28125 100.304688 L 228.542969 99.308594 L 229.980469 99.308594 L 230.519531 97.347656 L 232.460938 97.136719 L 231.871094 99.308594 L 234.191406 99.308594 L 233.929688 100.304688 L 231.613281 100.304688 "
       style=" stroke:none;fill-rule:nonzero;fill:rgb(29.33197%,65.371704%,88.465881%);fill-opacity:1;" />
    <path
       id="path95"
       d="M 239.871094 101.332031 C 239.871094 100.484375 239.5625 100.027344 238.992188 100.027344 C 237.535156 100.027344 236.574219 102.734375 236.574219 104.058594 C 236.574219 105.023438 236.917969 105.511719 237.519531 105.511719 C 238.84375 105.511719 239.871094 102.65625 239.871094 101.332031 Z M 241.128906 104.140625 C 240.996094 104.566406 240.949219 104.859375 240.949219 105.070312 C 240.949219 105.347656 241.078125 105.496094 241.324219 105.496094 C 241.683594 105.496094 242.042969 104.941406 242.417969 103.847656 L 243.203125 104.089844 C 242.566406 106.082031 241.683594 106.816406 240.6875 106.816406 C 239.921875 106.816406 239.351562 106.328125 239.351562 105.382812 C 239.351562 105.265625 239.351562 105.183594 239.367188 105.023438 L 239.25 104.972656 C 238.632812 106.199219 237.699219 106.816406 236.769531 106.816406 C 235.367188 106.816406 234.597656 105.660156 234.597656 104.222656 C 234.597656 102.558594 235.269531 101.070312 236.148438 100.207031 C 236.917969 99.421875 237.78125 98.964844 238.695312 98.964844 C 239.609375 98.964844 240.132812 99.601562 240.28125 100.335938 L 240.605469 99.078125 L 242.46875 99.078125 L 241.128906 104.140625 "
       style=" stroke:none;fill-rule:nonzero;fill:rgb(29.33197%,65.371704%,88.465881%);fill-opacity:1;" />
    <path
       id="path97"
       d="M 250.679688 100.890625 C 250.679688 101.59375 250.238281 102.296875 249.535156 102.296875 C 248.949219 102.296875 248.574219 101.902344 248.574219 101.414062 C 248.574219 100.957031 248.851562 100.582031 249.242188 100.304688 C 249.113281 100.074219 248.835938 99.894531 248.34375 99.894531 C 246.710938 99.894531 245.746094 102.394531 245.746094 103.8125 C 245.746094 105.21875 246.5 105.660156 247.234375 105.660156 C 247.984375 105.660156 248.703125 105.117188 249.355469 104.109375 L 250.058594 104.582031 C 249.355469 105.804688 248.394531 106.816406 246.792969 106.816406 C 244.996094 106.816406 243.789062 105.59375 243.789062 103.8125 C 243.789062 101.265625 245.976562 98.964844 248.3125 98.964844 C 249.683594 98.964844 250.679688 99.730469 250.679688 100.890625 "
       style=" stroke:none;fill-rule:nonzero;fill:rgb(29.33197%,65.371704%,88.465881%);fill-opacity:1;" />
    <path
       id="path99"
       d="M 257.601562 105.496094 C 257.960938 105.496094 258.269531 104.972656 258.695312 103.847656 L 259.460938 104.089844 C 258.84375 106.066406 257.992188 106.816406 257.046875 106.816406 C 256.132812 106.816406 255.527344 106.214844 255.527344 105.152344 C 255.527344 104.695312 255.707031 104.042969 255.707031 103.683594 C 255.707031 103.078125 255.445312 102.933594 254.253906 102.933594 L 254.222656 102.933594 L 253.226562 106.65625 L 251.378906 106.65625 L 254.027344 96.679688 L 252.671875 96.679688 L 252.996094 95.40625 L 256.246094 95.40625 L 254.417969 102.199219 L 254.496094 102.199219 C 255.363281 102.199219 255.722656 101.707031 256.441406 100.515625 C 256.980469 99.632812 257.519531 98.964844 258.484375 98.964844 C 259.265625 98.964844 259.691406 99.453125 259.691406 100.15625 C 259.691406 100.84375 259.25 101.527344 258.578125 101.527344 C 257.925781 101.527344 257.585938 100.957031 257.8125 100.285156 C 257.585938 100.335938 257.339844 100.613281 256.964844 101.234375 C 256.636719 101.839844 256.375 102.179688 255.886719 102.441406 C 257.046875 102.539062 257.421875 103.046875 257.421875 103.8125 C 257.421875 104.285156 257.289062 104.761719 257.289062 105.054688 C 257.289062 105.382812 257.421875 105.496094 257.601562 105.496094 "
       style=" stroke:none;fill-rule:nonzero;fill:rgb(29.33197%,65.371704%,88.465881%);fill-opacity:1;" />
    <path
       id="path101"
       d="M 266.53125 102.359375 C 266.53125 99.078125 268.945312 95.652344 272.539062 95.652344 C 273.894531 95.652344 274.90625 96.140625 275.460938 96.972656 L 276.128906 95.699219 L 277.386719 95.699219 L 276.34375 99.945312 L 275.117188 99.945312 C 274.953125 97.59375 273.925781 96.84375 272.605469 96.84375 C 269.714844 96.84375 268.71875 100.726562 268.71875 102.523438 C 268.71875 104.695312 269.828125 105.609375 271.246094 105.609375 C 272.980469 105.609375 273.992188 104.304688 274.808594 102.378906 L 275.96875 102.785156 C 275.152344 105.070312 273.632812 106.914062 271.019531 106.914062 C 268.015625 106.914062 266.53125 105.003906 266.53125 102.359375 "
       style=" stroke:none;fill-rule:nonzero;fill:rgb(29.33197%,65.371704%,88.465881%);fill-opacity:1;" />
    <path
       id="path103"
       d="M 281.351562 99.863281 C 279.835938 99.863281 278.96875 102.835938 278.96875 104.417969 C 278.96875 105.464844 279.410156 105.902344 280.113281 105.902344 C 281.632812 105.902344 282.496094 102.933594 282.496094 101.347656 C 282.496094 100.304688 282.054688 99.863281 281.351562 99.863281 Z M 284.4375 102.117188 C 284.4375 104.660156 282.398438 106.816406 280.128906 106.816406 C 278.25 106.816406 277.027344 105.496094 277.027344 103.652344 C 277.027344 101.105469 279.066406 98.964844 281.335938 98.964844 C 283.214844 98.964844 284.4375 100.269531 284.4375 102.117188 "
       style=" stroke:none;fill-rule:nonzero;fill:rgb(29.33197%,65.371704%,88.465881%);fill-opacity:1;" />
    <path
       id="path105"
       d="M 295.050781 105.300781 C 295.050781 103.667969 296.128906 102.050781 296.128906 100.941406 C 296.128906 100.566406 295.964844 100.402344 295.6875 100.402344 C 294.96875 100.402344 293.546875 101.640625 292.242188 106.65625 L 290.316406 106.65625 L 291.457031 102.34375 C 291.605469 101.804688 291.6875 101.414062 291.6875 101.105469 C 291.6875 100.710938 291.558594 100.402344 291.199219 100.402344 C 290.445312 100.402344 289.042969 101.640625 287.734375 106.65625 L 285.777344 106.65625 L 287.179688 101.363281 C 287.425781 100.433594 287.378906 100.171875 287.082031 100.171875 C 286.707031 100.171875 286.28125 100.875 285.808594 101.886719 L 285.042969 101.5625 C 285.742188 99.929688 286.5625 98.980469 287.65625 98.980469 C 288.355469 98.980469 288.847656 99.488281 288.847656 100.5 C 288.847656 100.972656 288.746094 101.5625 288.503906 102.3125 L 288.617188 102.359375 C 289.695312 100.058594 290.902344 98.964844 292.015625 98.964844 C 292.910156 98.964844 293.386719 99.570312 293.386719 100.546875 C 293.386719 101.003906 293.253906 101.5625 293.011719 102.3125 L 293.125 102.359375 C 294.203125 100.058594 295.410156 98.964844 296.570312 98.964844 C 297.46875 98.964844 298.039062 99.683594 298.039062 100.660156 C 298.039062 102.050781 296.828125 104.140625 296.828125 105.136719 C 296.828125 105.382812 296.929688 105.496094 297.109375 105.496094 C 297.449219 105.496094 297.792969 104.972656 298.234375 103.847656 L 299.003906 104.089844 C 298.347656 106.066406 297.433594 106.816406 296.503906 106.816406 C 295.621094 106.816406 295.050781 106.246094 295.050781 105.300781 "
       style=" stroke:none;fill-rule:nonzero;fill:rgb(29.33197%,65.371704%,88.465881%);fill-opacity:1;" />
    <path
       id="path107"
       d="M 309.367188 105.300781 C 309.367188 103.667969 310.445312 102.050781 310.445312 100.941406 C 310.445312 100.566406 310.28125 100.402344 310.003906 100.402344 C 309.285156 100.402344 307.867188 101.640625 306.558594 106.65625 L 304.632812 106.65625 L 305.777344 102.34375 C 305.921875 101.804688 306.003906 101.414062 306.003906 101.105469 C 306.003906 100.710938 305.871094 100.402344 305.515625 100.402344 C 304.761719 100.402344 303.359375 101.640625 302.054688 106.65625 L 300.09375 106.65625 L 301.496094 101.363281 C 301.742188 100.433594 301.695312 100.171875 301.398438 100.171875 C 301.023438 100.171875 300.601562 100.875 300.125 101.886719 L 299.359375 101.5625 C 300.0625 99.929688 300.878906 98.980469 301.972656 98.980469 C 302.671875 98.980469 303.164062 99.488281 303.164062 100.5 C 303.164062 100.972656 303.066406 101.5625 302.820312 102.3125 L 302.933594 102.359375 C 304.011719 100.058594 305.222656 98.964844 306.328125 98.964844 C 307.230469 98.964844 307.703125 99.570312 307.703125 100.546875 C 307.703125 101.003906 307.570312 101.5625 307.328125 102.3125 L 307.441406 102.359375 C 308.519531 100.058594 309.726562 98.964844 310.886719 98.964844 C 311.785156 98.964844 312.355469 99.683594 312.355469 100.660156 C 312.355469 102.050781 311.148438 104.140625 311.148438 105.136719 C 311.148438 105.382812 311.246094 105.496094 311.425781 105.496094 C 311.769531 105.496094 312.109375 104.972656 312.550781 103.847656 L 313.320312 104.089844 C 312.664062 106.066406 311.75 106.816406 310.820312 106.816406 C 309.9375 106.816406 309.367188 106.246094 309.367188 105.300781 "
       style=" stroke:none;fill-rule:nonzero;fill:rgb(29.33197%,65.371704%,88.465881%);fill-opacity:1;" />
    <path
       id="path109"
       d="M 319.40625 105.285156 C 319.40625 104.875 319.503906 104.253906 319.765625 103.421875 L 319.652344 103.375 C 318.574219 105.742188 317.433594 106.816406 316.257812 106.816406 C 315.359375 106.816406 314.769531 106.117188 314.769531 105.105469 C 314.769531 103.730469 315.929688 101.5625 315.929688 100.628906 C 315.929688 100.402344 315.832031 100.285156 315.683594 100.285156 C 315.34375 100.285156 315.066406 100.644531 314.476562 101.871094 L 313.710938 101.542969 C 314.378906 99.929688 315.242188 98.964844 316.371094 98.964844 C 317.234375 98.964844 317.742188 99.503906 317.742188 100.449219 C 317.742188 101.96875 316.664062 103.699219 316.664062 104.742188 C 316.664062 105.199219 316.84375 105.382812 317.121094 105.382812 C 317.855469 105.382812 319.210938 104.171875 320.550781 99.078125 L 322.507812 99.078125 L 321.171875 104.140625 C 321.039062 104.582031 320.992188 104.859375 320.992188 105.070312 C 320.992188 105.347656 321.136719 105.496094 321.367188 105.496094 C 321.742188 105.496094 322.085938 104.941406 322.460938 103.847656 L 323.242188 104.089844 C 322.609375 106.082031 321.726562 106.816406 320.796875 106.816406 C 319.945312 106.816406 319.40625 106.34375 319.40625 105.285156 "
       style=" stroke:none;fill-rule:nonzero;fill:rgb(29.33197%,65.371704%,88.465881%);fill-opacity:1;" />
    <path
       id="path111"
       d="M 331.046875 105.496094 C 331.390625 105.496094 331.734375 104.972656 332.175781 103.847656 L 332.941406 104.089844 C 332.289062 106.066406 331.371094 106.816406 330.441406 106.816406 C 329.5625 106.816406 328.988281 106.246094 328.988281 105.300781 C 328.988281 103.667969 330.066406 102.050781 330.066406 100.941406 C 330.066406 100.566406 329.90625 100.402344 329.625 100.402344 C 328.875 100.402344 327.472656 101.640625 326.164062 106.65625 L 324.207031 106.65625 L 325.609375 101.363281 C 325.855469 100.433594 325.804688 100.171875 325.511719 100.171875 C 325.136719 100.171875 324.710938 100.875 324.238281 101.886719 L 323.472656 101.5625 C 324.171875 99.929688 324.988281 98.980469 326.082031 98.980469 C 326.785156 98.980469 327.277344 99.488281 327.277344 100.5 C 327.277344 100.972656 327.179688 101.5625 326.933594 102.3125 L 327.046875 102.359375 C 328.125 100.058594 329.332031 98.964844 330.492188 98.964844 C 331.40625 98.964844 331.976562 99.683594 331.976562 100.660156 C 331.976562 102.050781 330.769531 104.140625 330.769531 105.136719 C 330.769531 105.382812 330.867188 105.496094 331.046875 105.496094 "
       style=" stroke:none;fill-rule:nonzero;fill:rgb(29.33197%,65.371704%,88.465881%);fill-opacity:1;" />
    <path
       id="path113"
       d="M 337.054688 97.820312 C 336.484375 97.820312 336.039062 97.429688 336.039062 96.777344 C 336.039062 96.109375 336.546875 95.339844 337.414062 95.339844 C 338.035156 95.339844 338.457031 95.730469 338.457031 96.386719 C 338.457031 97.039062 337.917969 97.820312 337.054688 97.820312 Z M 336.269531 105.105469 C 336.269531 105.382812 336.382812 105.496094 336.597656 105.496094 C 336.90625 105.496094 337.265625 105.054688 337.757812 103.847656 L 338.523438 104.089844 C 337.886719 106.019531 336.972656 106.816406 335.925781 106.816406 C 335.078125 106.816406 334.457031 106.261719 334.457031 105.285156 C 334.457031 103.730469 335.8125 101.542969 335.8125 100.53125 C 335.8125 100.269531 335.714844 100.171875 335.566406 100.171875 C 335.109375 100.171875 334.703125 100.875 334.246094 101.886719 L 333.460938 101.5625 C 334.164062 99.929688 335.03125 98.964844 336.140625 98.964844 C 336.988281 98.964844 337.59375 99.570312 337.59375 100.613281 C 337.59375 101.886719 336.269531 104.15625 336.269531 105.105469 "
       style=" stroke:none;fill-rule:nonzero;fill:rgb(29.33197%,65.371704%,88.465881%);fill-opacity:1;" />
    <path
       id="path115"
       d="M 342.816406 100.304688 L 341.835938 103.878906 C 341.722656 104.285156 341.640625 104.660156 341.640625 104.859375 C 341.640625 105.300781 341.871094 105.445312 342.214844 105.445312 C 342.800781 105.445312 343.289062 104.726562 343.746094 103.683594 L 344.53125 103.945312 C 343.730469 106.261719 342.472656 106.816406 341.59375 106.816406 C 340.515625 106.816406 339.746094 106.277344 339.746094 105.167969 C 339.746094 104.695312 339.925781 104.011719 340.039062 103.550781 L 340.921875 100.304688 L 339.488281 100.304688 L 339.746094 99.308594 L 341.183594 99.308594 L 341.722656 97.347656 L 343.664062 97.136719 L 343.078125 99.308594 L 345.398438 99.308594 L 345.136719 100.304688 L 342.816406 100.304688 "
       style=" stroke:none;fill-rule:nonzero;fill:rgb(29.33197%,65.371704%,88.465881%);fill-opacity:1;" />
    <path
       id="path117"
       d="M 349.246094 100.386719 C 349.246094 101.886719 348.300781 103.355469 348.300781 104.304688 C 348.300781 104.710938 348.480469 104.875 348.839844 104.875 C 349.707031 104.875 350.867188 103.894531 352.105469 99.078125 L 353.933594 99.078125 L 352.433594 105.382812 C 351.730469 108.386719 350.082031 109.429688 348.039062 109.429688 C 346.898438 109.429688 345.527344 109.121094 345.527344 107.910156 C 345.527344 107.390625 345.917969 106.738281 346.652344 106.738281 C 347.304688 106.738281 347.632812 107.195312 347.601562 107.730469 C 347.582031 107.992188 347.4375 108.285156 347.273438 108.433594 C 347.46875 108.5 347.714844 108.546875 348.023438 108.546875 C 349.296875 108.546875 350.164062 107.519531 350.71875 105.25 L 351.046875 103.960938 L 350.945312 103.910156 C 350 105.640625 348.988281 106.277344 348.039062 106.277344 C 346.964844 106.277344 346.425781 105.527344 346.425781 104.582031 C 346.425781 103.324219 347.46875 101.5625 347.46875 100.628906 C 347.46875 100.417969 347.371094 100.285156 347.222656 100.285156 C 346.816406 100.285156 346.425781 100.957031 345.984375 101.886719 L 345.214844 101.5625 C 345.933594 99.929688 346.832031 98.964844 347.910156 98.964844 C 348.742188 98.964844 349.246094 99.519531 349.246094 100.386719 "
       style=" stroke:none;fill-rule:nonzero;fill:rgb(29.33197%,65.371704%,88.465881%);fill-opacity:1;" />
    <path
       id="path119"
       d="M 362.601562 101.199219 C 364.691406 101.199219 365.425781 99.894531 365.425781 98.636719 C 365.425781 97.691406 364.855469 97.121094 363.238281 97.121094 L 362.535156 97.121094 L 361.523438 101.199219 Z M 360.464844 105.429688 L 362.242188 105.429688 L 361.964844 106.65625 L 356.480469 106.65625 L 356.757812 105.429688 L 358.40625 105.429688 L 360.464844 97.136719 L 358.796875 97.136719 L 359.109375 95.910156 L 363.632812 95.910156 C 366.585938 95.910156 367.714844 97.121094 367.714844 98.65625 C 367.714844 100.285156 366.585938 102.359375 362.535156 102.359375 L 361.230469 102.359375 L 360.464844 105.429688 "
       style=" stroke:none;fill-rule:nonzero;fill:rgb(29.33197%,65.371704%,88.465881%);fill-opacity:1;" />
    <path
       id="path121"
       d="M 370.257812 101.363281 C 370.503906 100.433594 370.453125 100.171875 370.160156 100.171875 C 369.785156 100.171875 369.359375 100.875 368.886719 101.886719 L 368.117188 101.5625 C 368.820312 99.929688 369.636719 98.980469 370.730469 98.980469 C 371.433594 98.980469 371.925781 99.488281 371.925781 100.5 C 371.925781 100.972656 371.828125 101.542969 371.597656 102.261719 L 371.726562 102.3125 C 372.675781 100.15625 373.460938 98.964844 374.601562 98.964844 C 375.285156 98.964844 375.792969 99.4375 375.792969 100.207031 C 375.792969 101.023438 375.269531 101.675781 374.617188 101.675781 C 374.046875 101.675781 373.605469 101.300781 373.636719 100.613281 C 373.164062 100.808594 371.988281 102.199219 370.8125 106.65625 L 368.855469 106.65625 L 370.257812 101.363281 "
       style=" stroke:none;fill-rule:nonzero;fill:rgb(29.33197%,65.371704%,88.465881%);fill-opacity:1;" />
    <path
       id="path123"
       d="M 380.460938 99.863281 C 378.945312 99.863281 378.078125 102.835938 378.078125 104.417969 C 378.078125 105.464844 378.519531 105.902344 379.222656 105.902344 C 380.738281 105.902344 381.605469 102.933594 381.605469 101.347656 C 381.605469 100.304688 381.164062 99.863281 380.460938 99.863281 Z M 383.546875 102.117188 C 383.546875 104.660156 381.507812 106.816406 379.238281 106.816406 C 377.359375 106.816406 376.136719 105.496094 376.136719 103.652344 C 376.136719 101.105469 378.175781 98.964844 380.445312 98.964844 C 382.324219 98.964844 383.546875 100.269531 383.546875 102.117188 "
       style=" stroke:none;fill-rule:nonzero;fill:rgb(29.33197%,65.371704%,88.465881%);fill-opacity:1;" />
    <path
       id="path125"
       d="M 388.558594 97.820312 C 387.988281 97.820312 387.546875 97.429688 387.546875 96.777344 C 387.546875 96.109375 388.070312 95.339844 388.917969 95.339844 C 389.539062 95.339844 389.964844 95.730469 389.964844 96.386719 C 389.964844 97.039062 389.425781 97.820312 388.558594 97.820312 Z M 388.867188 101.902344 L 387.839844 105.804688 C 387.15625 108.402344 385.882812 109.429688 384.378906 109.429688 C 383.234375 109.429688 382.746094 108.890625 382.746094 108.269531 C 382.746094 107.667969 383.1875 107.113281 383.824219 107.113281 C 384.378906 107.113281 384.671875 107.519531 384.671875 107.945312 C 384.671875 108.285156 384.542969 108.566406 384.410156 108.726562 C 385.113281 108.742188 385.390625 108.320312 385.996094 105.984375 L 387.074219 101.855469 C 387.171875 101.460938 387.316406 100.890625 387.316406 100.546875 C 387.316406 100.253906 387.1875 100.171875 387.039062 100.171875 C 386.648438 100.171875 386.222656 100.875 385.75 101.886719 L 384.984375 101.5625 C 385.683594 99.929688 386.535156 98.964844 387.675781 98.964844 C 388.511719 98.964844 389.097656 99.601562 389.097656 100.515625 C 389.097656 100.890625 389.015625 101.347656 388.867188 101.902344 "
       style=" stroke:none;fill-rule:nonzero;fill:rgb(29.33197%,65.371704%,88.465881%);fill-opacity:1;" />
    <path
       id="path127"
       d="M 392.542969 102.816406 C 394.8125 102.574219 395.644531 101.691406 395.644531 100.679688 C 395.644531 100.222656 395.382812 99.863281 394.894531 99.863281 C 393.75 99.863281 392.886719 101.414062 392.542969 102.816406 Z M 392.394531 103.585938 C 392.378906 103.714844 392.378906 103.847656 392.378906 103.960938 C 392.378906 105.316406 393.082031 105.742188 393.898438 105.742188 C 394.699219 105.742188 395.496094 105.199219 396.183594 104.238281 L 396.867188 104.726562 C 396.035156 105.921875 395.023438 106.816406 393.292969 106.816406 C 391.613281 106.816406 390.4375 105.640625 390.4375 103.847656 C 390.4375 101.332031 392.609375 98.964844 395.171875 98.964844 C 396.574219 98.964844 397.359375 99.667969 397.359375 100.660156 C 397.359375 102.132812 395.824219 103.390625 392.394531 103.585938 "
       style=" stroke:none;fill-rule:nonzero;fill:rgb(29.33197%,65.371704%,88.465881%);fill-opacity:1;" />
    <path
       id="path129"
       d="M 405.226562 100.890625 C 405.226562 101.59375 404.785156 102.296875 404.085938 102.296875 C 403.496094 102.296875 403.121094 101.902344 403.121094 101.414062 C 403.121094 100.957031 403.398438 100.582031 403.789062 100.304688 C 403.660156 100.074219 403.382812 99.894531 402.894531 99.894531 C 401.261719 99.894531 400.296875 102.394531 400.296875 103.8125 C 400.296875 105.21875 401.046875 105.660156 401.78125 105.660156 C 402.535156 105.660156 403.25 105.117188 403.90625 104.109375 L 404.605469 104.582031 C 403.90625 105.804688 402.941406 106.816406 401.339844 106.816406 C 399.546875 106.816406 398.335938 105.59375 398.335938 103.8125 C 398.335938 101.265625 400.523438 98.964844 402.859375 98.964844 C 404.230469 98.964844 405.226562 99.730469 405.226562 100.890625 "
       style=" stroke:none;fill-rule:nonzero;fill:rgb(29.33197%,65.371704%,88.465881%);fill-opacity:1;" />
    <g
       id="g131"
       clip-rule="nonzero"
       clip-path="url(#clip2)">
      <path
         id="path133"
         d="M 409.78125 100.304688 L 408.800781 103.878906 C 408.6875 104.285156 408.605469 104.660156 408.605469 104.859375 C 408.605469 105.300781 408.835938 105.445312 409.175781 105.445312 C 409.765625 105.445312 410.253906 104.726562 410.710938 103.683594 L 411.496094 103.945312 C 410.695312 106.261719 409.4375 106.816406 408.558594 106.816406 C 407.480469 106.816406 406.710938 106.277344 406.710938 105.167969 C 406.710938 104.695312 406.890625 104.011719 407.003906 103.550781 L 407.886719 100.304688 L 406.449219 100.304688 L 406.710938 99.308594 L 408.148438 99.308594 L 408.6875 97.347656 L 410.628906 97.136719 L 410.042969 99.308594 L 412.359375 99.308594 L 412.101562 100.304688 L 409.78125 100.304688 "
         style=" stroke:none;fill-rule:nonzero;fill:rgb(29.33197%,65.371704%,88.465881%);fill-opacity:1;" />
    </g>
  </g>
</svg>
