<?xml version="1.0" encoding="UTF-8" standalone="no"?>
<svg
   xmlns:dc="http://purl.org/dc/elements/1.1/"
   xmlns:cc="http://creativecommons.org/ns#"
   xmlns:rdf="http://www.w3.org/1999/02/22-rdf-syntax-ns#"
   xmlns:svg="http://www.w3.org/2000/svg"
   xmlns="http://www.w3.org/2000/svg"
   xmlns:sodipodi="http://sodipodi.sourceforge.net/DTD/sodipodi-0.dtd"
   xmlns:inkscape="http://www.inkscape.org/namespaces/inkscape"
   id="svg2"
   version="1.1"
   viewBox="0 0 566.40005 128.52"
   height="160.65001"
   width="708"
   inkscape:version="0.91 r13725"
   sodipodi:docname="tripleo-owl.svg">
  <sodipodi:namedview
     pagecolor="#ffffff"
     bordercolor="#666666"
     borderopacity="1"
     objecttolerance="10"
     gridtolerance="10"
     guidetolerance="10"
     inkscape:pageopacity="0"
     inkscape:pageshadow="2"
     inkscape:window-width="2560"
     inkscape:window-height="1016"
     id="namedview71"
     showgrid="false"
     inkscape:zoom="1.4511592"
     inkscape:cx="566.12745"
     inkscape:cy="-16.836837"
     inkscape:window-x="0"
     inkscape:window-y="27"
     inkscape:window-maximized="1"
     inkscape:current-layer="svg2"
     units="px" />
  <metadata
     id="metadata137">
    <rdf:RDF>
      <cc:Work
         rdf:about="">
        <dc:format>image/svg+xml</dc:format>
        <dc:type
           rdf:resource="http://purl.org/dc/dcmitype/StillImage" />
        <dc:title></dc:title>
      </cc:Work>
    </rdf:RDF>
  </metadata>
  <defs
     id="defs4">
    <clipPath
       id="clip1">
      <path
         id="path7"
         d="m 0,0 129,0 0,128.51953 -129,0 z m 0,0"
         inkscape:connector-curvature="0" />
    </clipPath>
    <clipPath
       id="clip2">
      <path
         id="path10"
         d="m 406,97 6.35937,0 0,10 L 406,107 Z m 0,0"
         inkscape:connector-curvature="0" />
    </clipPath>
  </defs>
  <path
     inkscape:connector-curvature="0"
     style="fill:#f8e105;fill-opacity:1;fill-rule:nonzero;stroke:none"
     d="m 63.277344,53.164069 c 0.441406,-0.765624 1.527344,-0.765624 1.964844,0 1.664062,2.820313 3.804687,5.339844 6.3125,7.429688 0.4375,0.359375 0.566406,0.984375 0.277343,1.480469 l -6.578125,11.132812 c -0.449218,0.761719 -1.535156,0.761719 -1.988281,0 L 56.6875,62.074226 c -0.289062,-0.496094 -0.160156,-1.121094 0.277344,-1.480469 2.5,-2.089844 4.648437,-4.597656 6.3125,-7.429688"
     id="path13" />
  <path
     inkscape:connector-curvature="0"
     style="fill:#21457f;fill-opacity:1;fill-rule:nonzero;stroke:none"
     d="M 63.277344,24.632819 C 59.359375,17.964851 52.78125,13.039069 45.023438,11.316413 43.867188,11.062507 43.765625,9.4804739 44.875,9.0976609 c 6.070312,-2.152344 12.589844,-3.316406 19.386719,-3.316406 6.796875,0 13.316406,1.164062 19.382812,3.316406 1.109375,0.382813 1.007813,1.9648461 -0.148437,2.2187521 -7.757813,1.722656 -14.335938,6.648438 -18.253906,13.316406 -0.4375,0.753907 -1.523438,0.753907 -1.964844,0"
     id="path15" />
  <path
     inkscape:connector-curvature="0"
     style="fill:#21457f;fill-opacity:1;fill-rule:nonzero;stroke:none"
     d="m 24.007812,11.847663 c 0.914063,0.242188 1.179688,1.421875 0.441407,2.011719 -0.972657,0.773437 -1.90625,1.5625 -2.832031,2.382813 l -0.05859,-0.07031 -2.011719,1.953125 c -0.230469,0.21875 -0.4375,0.453125 -0.65625,0.671875 l -0.152344,0.148437 c -1.675781,1.675782 -3.25,3.433594 -4.714843,5.261719 -0.589844,0.738281 -1.78125,0.460938 -2.011719,-0.453125 L 8.359375,9.5820359 c -0.222656,-0.84375 0.554687,-1.628906 1.398437,-1.410156 l 14.25,3.6757831"
     id="path17" />
  <path
     inkscape:connector-curvature="0"
     style="fill:#21457f;fill-opacity:1;fill-rule:nonzero;stroke:none"
     d="m 118.76563,8.1718799 c 0.83984,-0.21875 1.61718,0.566406 1.39453,1.410156 l -3.65235,14.1718771 c -0.23047,0.914063 -1.41797,1.191406 -2.01172,0.453125 -1.46484,-1.816406 -3.03906,-3.574219 -4.71484,-5.261719 l -0.14844,-0.148437 c -0.22265,-0.21875 -0.42968,-0.453125 -0.66015,-0.671875 l -2.01172,-1.953125 -0.0586,0.07031 c -0.92578,-0.820313 -1.85937,-1.609376 -2.83203,-2.382813 -0.73828,-0.589844 -0.47265,-1.769531 0.44141,-2.011719 l 14.25391,-3.6757831"
     id="path19" />
  <path
     inkscape:connector-curvature="0"
     style="fill:#ffffff;fill-opacity:1;fill-rule:nonzero;stroke:none"
     d="m 89.621094,16.414069 c 12.394536,0 22.484376,10.09375 22.484376,22.484376 0,12.390624 -10.08984,22.472656 -22.484376,22.472656 -12.390625,0 -22.472656,-10.082032 -22.472656,-22.472656 0,-12.390626 10.082031,-22.484376 22.472656,-22.484376"
     id="path21" />
  <path
     inkscape:connector-curvature="0"
     style="fill:#ffffff;fill-opacity:1;fill-rule:nonzero;stroke:none"
     d="m 38.898438,16.414069 c 12.390624,0 22.472656,10.09375 22.472656,22.484376 0,12.390624 -10.082032,22.472656 -22.472656,22.472656 -12.390626,0 -22.484376,-10.082032 -22.484376,-22.472656 0,-12.390626 10.09375,-22.484376 22.484376,-22.484376"
     id="path23" />
  <path
     inkscape:connector-curvature="0"
     style="fill:#21457f;fill-opacity:1;fill-rule:nonzero;stroke:none"
     d="m 36.136719,67.011726 c 0.625,0.05859 1.109375,0.589843 1.074219,1.226562 -0.878907,13.070313 -6.023438,25.269531 -14.785157,35.023432 -0.460937,0.50781 -1.273437,0.50781 -1.734375,0 C 11.039062,92.523445 5.78125,78.824226 5.78125,64.261726 c 0,-6.742188 1.132812,-13.285157 3.292969,-19.445313 0.394531,-1.109375 1.976562,-0.992187 2.230469,0.152344 2.589843,11.800781 12.578124,20.851562 24.832031,22.042969"
     id="path25" />
  <path
     inkscape:connector-curvature="0"
     style="fill:#4aa6e1;fill-opacity:1;fill-rule:nonzero;stroke:none"
     d="m 55.324219,97.828132 c 1.167969,1.15625 2.542969,2.09375 4.070312,2.730458 0.691407,0.28907 0.910157,1.13282 0.484375,1.7461 -1.238281,1.76562 -3.28125,2.93359 -5.605468,2.93359 -2.242188,0 -4.242188,-1.08594 -5.492188,-2.77344 -0.449219,-0.61328 -0.195312,-1.49218 0.519531,-1.76953 1.675781,-0.64843 3.179688,-1.617178 4.429688,-2.867178 0.4375,-0.4375 1.15625,-0.449219 1.59375,0"
     id="path27" />
  <path
     inkscape:connector-curvature="0"
     style="fill:#4aa6e1;fill-opacity:1;fill-rule:nonzero;stroke:none"
     d="m 73.183594,97.828132 c 0.453125,-0.4375 1.167968,-0.449219 1.605468,0 1.15625,1.15625 2.535157,2.09375 4.070313,2.730458 0.683594,0.28907 0.914063,1.13282 0.484375,1.7461 -1.234375,1.76562 -3.292969,2.93359 -5.605469,2.93359 -2.253906,0 -4.242187,-1.08594 -5.492187,-2.77344 -0.460938,-0.61328 -0.195313,-1.49218 0.523437,-1.76953 1.675781,-0.64843 3.179688,-1.617178 4.414063,-2.867178"
     id="path29" />
  <path
     inkscape:connector-curvature="0"
     style="fill:#4aa6e1;fill-opacity:1;fill-rule:nonzero;stroke:none"
     d="m 90.5,89.808601 c -0.4375,3.351562 -3.304688,5.953125 -6.785156,5.953125 -3.433594,0 -6.289063,-2.554688 -6.761719,-5.863281 -0.08203,-0.566407 -0.566406,-0.980469 -1.132813,-0.980469 l -3.652343,0 c -0.578125,0 -1.054688,0.414062 -1.132813,0.980469 -0.488281,3.308593 -3.339844,5.863281 -6.773437,5.863281 -3.433594,0 -6.289063,-2.554688 -6.777344,-5.863281 -0.07813,-0.566407 -0.554687,-0.980469 -1.132813,-0.980469 l -3.652343,0 c -0.566407,0 -1.050781,0.414062 -1.132813,0.980469 -0.472656,3.308593 -3.328125,5.863281 -6.773437,5.863281 -3.46875,0 -6.332031,-2.601563 -6.773438,-5.953125 -0.02344,-0.199219 0.01172,-0.40625 0.09375,-0.589844 2.84375,-6.742188 4.496094,-13.976562 4.902344,-21.457031 0.01953,-0.542969 0.414063,-0.96875 0.945313,-1.074219 2.230468,-0.40625 4.371093,-1.0625 6.382812,-1.964844 0.542969,-0.242187 1.167969,-0.05859 1.464844,0.449219 l 11.457031,19.410156 c 0.453125,0.761719 1.539063,0.761719 1.988281,0 L 76.710938,65.183601 c 0.300781,-0.519532 0.921874,-0.703125 1.464843,-0.460938 2.011719,0.902344 4.152344,1.558594 6.382813,1.964844 0.53125,0.105469 0.925781,0.53125 0.949218,1.074219 0.402344,7.480469 2.058594,14.714843 4.898438,21.457031 0.08203,0.183594 0.117188,0.390625 0.09375,0.589844"
     id="path31" />
  <path
     inkscape:connector-curvature="0"
     style="fill:#4aa6e1;fill-opacity:1;fill-rule:nonzero;stroke:none"
     d="m 35.582031,97.515632 c 1.546875,1.65625 3.523438,2.890618 5.753907,3.527338 0.394531,0.11328 0.695312,0.41406 0.8125,0.82031 1.511718,5.26953 6.367187,9.15625 12.125,9.15625 3.917968,0 7.421874,-1.79297 9.734374,-4.60156 2.308594,2.80859 5.8125,4.60156 9.730469,4.60156 5.699219,0 10.53125,-3.8164 12.082031,-9.02734 0.125,-0.40625 0.4375,-0.71875 0.855469,-0.8125 2.449219,-0.58594 4.609375,-1.894527 6.265625,-3.675777 0.53125,-0.566406 1.429688,-0.472656 1.835938,0.1875 2.082031,3.398427 4.484375,6.621087 7.203126,9.628897 0.4375,0.48438 0.40234,1.23438 -0.0937,1.65235 -10.171876,8.58984 -23.304689,13.76562 -37.625001,13.76562 -14.324219,0 -27.457031,-5.17578 -37.628907,-13.76562 -0.496093,-0.41797 -0.53125,-1.16797 -0.09375,-1.65235 2.71875,-3.00781 5.121094,-6.23047 7.203126,-9.628897 0.40625,-0.660156 1.304687,-0.753906 1.839843,-0.175781"
     id="path33" />
  <path
     inkscape:connector-curvature="0"
     style="fill:#21457f;fill-opacity:1;fill-rule:nonzero;stroke:none"
     d="M 106.09375,103.26172 C 97.332031,93.507819 92.1875,81.308601 91.308594,68.238288 91.273438,67.601569 91.761719,67.070319 92.386719,67.011726 104.63672,65.820319 114.625,56.769538 117.21484,44.968757 c 0.25391,-1.144531 1.83985,-1.261719 2.23047,-0.152344 2.16016,6.160156 3.29297,12.703125 3.29297,19.445313 0,14.5625 -5.25781,28.261719 -14.91015,38.999994 -0.46094,0.50781 -1.27344,0.50781 -1.73438,0"
     id="path35" />
  <g
     style="clip-rule:nonzero"
     clip-path="url(#clip1)"
     id="g37"
     transform="translate(0,4.7304698e-6)">
    <path
       inkscape:connector-curvature="0"
       style="fill:#0f0c0c;fill-opacity:1;fill-rule:nonzero;stroke:none"
       d="m 24.449219,13.859375 c 0.738281,-0.589844 0.472656,-1.769531 -0.441407,-2.011719 l -14.25,-3.675781 C 8.914062,7.953125 8.136719,8.738281 8.359375,9.582031 l 3.652344,14.171875 c 0.230469,0.914063 1.421875,1.191406 2.011719,0.453125 1.464843,-1.828125 3.039062,-3.585937 4.714843,-5.261719 l 0.152344,-0.148437 c 0.21875,-0.21875 0.425781,-0.453125 0.65625,-0.671875 l 2.011719,-1.953125 0.05859,0.07031 c 0.925781,-0.820313 1.859374,-1.609376 2.832031,-2.382813 M 37.210938,68.238281 C 37.246094,67.601562 36.761719,67.070312 36.136719,67.011719 23.882812,65.820312 13.894531,56.769531 11.304688,44.96875 11.050781,43.824219 9.46875,43.707031 9.074219,44.816406 6.914062,50.976562 5.78125,57.519531 5.78125,64.261719 c 0,14.5625 5.257812,28.261719 14.910156,39.000001 0.460938,0.50781 1.273438,0.50781 1.734375,0 C 31.1875,93.507812 36.332031,81.308594 37.210938,68.238281 M 61.371094,38.898438 c 0,-12.390626 -10.082032,-22.484376 -22.472656,-22.484376 -12.390626,0 -22.484376,10.09375 -22.484376,22.484376 0,12.390624 10.09375,22.472656 22.484376,22.472656 12.390624,0 22.472656,-10.082032 22.472656,-22.472656 m -1.492188,63.406252 c 0.425782,-0.61328 0.207032,-1.45703 -0.484375,-1.7461 -1.527343,-0.636715 -2.902343,-1.574215 -4.070312,-2.730465 -0.4375,-0.449219 -1.15625,-0.4375 -1.59375,0 -1.25,1.25 -2.753907,2.218755 -4.429688,2.867185 -0.714843,0.27735 -0.96875,1.15625 -0.519531,1.76953 1.25,1.6875 3.25,2.77344 5.492188,2.77344 2.324218,0 4.367187,-1.16797 5.605468,-2.93359 M 71.832031,62.074219 c 0.289063,-0.496094 0.160157,-1.121094 -0.277343,-1.480469 -2.507813,-2.089844 -4.648438,-4.609375 -6.3125,-7.429688 -0.4375,-0.765624 -1.523438,-0.765624 -1.964844,0 -1.664063,2.832032 -3.8125,5.339844 -6.3125,7.429688 -0.4375,0.359375 -0.566406,0.984375 -0.277344,1.480469 l 6.578125,11.132812 c 0.453125,0.761719 1.539063,0.761719 1.988281,0 l 6.578125,-11.132812 m 7.511719,40.230471 c 0.429688,-0.61328 0.199219,-1.45703 -0.484375,-1.7461 -1.535156,-0.636715 -2.914063,-1.574215 -4.070313,-2.730465 -0.4375,-0.449219 -1.152343,-0.4375 -1.605468,0 -1.234375,1.25 -2.738282,2.218755 -4.414063,2.867185 -0.71875,0.27735 -0.984375,1.15625 -0.523437,1.76953 1.25,1.6875 3.238281,2.77344 5.492187,2.77344 2.3125,0 4.371094,-1.16797 5.605469,-2.93359 M 83.496094,11.316406 C 84.652344,11.0625 84.753906,9.480469 83.644531,9.097656 77.578125,6.945312 71.058594,5.78125 64.261719,5.78125 c -6.796875,0 -13.316407,1.164062 -19.386719,3.316406 -1.109375,0.382813 -1.007812,1.964844 0.148438,2.21875 7.757812,1.722656 14.335937,6.648438 18.253906,13.316406 0.441406,0.753907 1.527344,0.753907 1.964844,0 3.917968,-6.667968 10.496093,-11.59375 18.253906,-13.316406 M 90.5,89.808594 C 90.52344,89.609375 90.48828,89.402344 90.40625,89.21875 87.566406,82.476562 85.910156,75.242188 85.507812,67.761719 85.484375,67.21875 85.089844,66.792969 84.558594,66.6875 82.328125,66.28125 80.1875,65.625 78.175781,64.722656 77.632812,64.480469 77.011719,64.664062 76.710938,65.183594 L 65.253906,84.582031 c -0.449218,0.761719 -1.535156,0.761719 -1.988281,0 L 51.808594,65.171875 C 51.511719,64.664062 50.886719,64.480469 50.34375,64.722656 48.332031,65.625 46.191406,66.28125 43.960938,66.6875 c -0.53125,0.105469 -0.925782,0.53125 -0.945313,1.074219 -0.40625,7.480469 -2.058594,14.714843 -4.902344,21.457031 -0.08203,0.183594 -0.117187,0.390625 -0.09375,0.589844 0.441407,3.351562 3.304688,5.953125 6.773438,5.953125 3.445312,0 6.300781,-2.554688 6.773437,-5.863281 0.08203,-0.566407 0.566406,-0.980469 1.132813,-0.980469 l 3.652343,0 c 0.578126,0 1.054688,0.414062 1.132813,0.980469 0.488281,3.308593 3.34375,5.863281 6.777344,5.863281 3.433593,0 6.285156,-2.554688 6.773437,-5.863281 0.07813,-0.566407 0.554688,-0.980469 1.132813,-0.980469 l 3.652343,0 c 0.566407,0 1.050782,0.414062 1.132813,0.980469 0.472656,3.308593 3.328125,5.863281 6.761719,5.863281 3.480468,0 6.347656,-2.601563 6.785156,-5.953125 m 11.38672,19.164066 c 0.49609,-0.41797 0.53125,-1.16797 0.0937,-1.65235 -2.718751,-3.00781 -5.121095,-6.23047 -7.203126,-9.628904 -0.40625,-0.660156 -1.304688,-0.753906 -1.835938,-0.1875 -1.65625,1.78125 -3.816406,3.089844 -6.265625,3.675784 -0.417969,0.0937 -0.730469,0.40625 -0.855469,0.8125 -1.550781,5.21094 -6.382812,9.02734 -12.082031,9.02734 -3.917969,0 -7.421875,-1.79297 -9.730469,-4.60156 -2.3125,2.80859 -5.816406,4.60156 -9.734374,4.60156 -5.757813,0 -10.613282,-3.88672 -12.125,-9.15625 -0.117188,-0.40625 -0.417969,-0.70703 -0.8125,-0.82031 -2.230469,-0.63672 -4.207032,-1.871095 -5.753907,-3.527345 -0.535156,-0.578125 -1.433593,-0.484375 -1.839843,0.175781 -2.082032,3.398434 -4.484376,6.621094 -7.203126,9.628904 -0.4375,0.48438 -0.402343,1.23438 0.09375,1.65235 10.171876,8.58984 23.304688,13.76562 37.628907,13.76562 14.320312,0 27.453125,-5.17578 37.625001,-13.76562 m 10.21875,-70.074222 c 0,-12.390626 -10.08984,-22.484376 -22.484376,-22.484376 -12.390625,0 -22.472656,10.09375 -22.472656,22.484376 0,12.390624 10.082031,22.472656 22.472656,22.472656 12.394536,0 22.484376,-10.082032 22.484376,-22.472656 m 8.05469,-29.316407 c 0.22265,-0.84375 -0.55469,-1.628906 -1.39453,-1.410156 l -14.25391,3.675781 c -0.91406,0.242188 -1.17969,1.421875 -0.44141,2.011719 0.97266,0.773437 1.90625,1.5625 2.83203,2.382813 l 0.0586,-0.07031 2.01172,1.953125 c 0.23047,0.21875 0.4375,0.453125 0.66015,0.671875 l 0.14844,0.148437 c 1.67578,1.6875 3.25,3.445313 4.71484,5.261719 0.59375,0.738281 1.78125,0.460938 2.01172,-0.453125 l 3.65235,-14.171875 m 2.57812,54.679688 c 0,-6.742188 -1.13281,-13.285157 -3.29297,-19.445313 -0.39062,-1.109375 -1.97656,-0.992187 -2.23047,0.152344 -2.58984,11.800781 -12.57812,20.851562 -24.828121,22.042969 -0.625,0.05859 -1.113281,0.589843 -1.078125,1.226562 0.878906,13.070313 6.023437,25.269531 14.785156,35.023436 0.46094,0.50781 1.27344,0.50781 1.73438,0 9.65234,-10.738279 14.91015,-24.437498 14.91015,-38.999998 m 4.0586,-64.125 c 0.85546,-0.2187502 1.6289,0.558593 1.41015,1.414062 l -7.89453,30.621094 c -0.0703,0.277344 -0.0352,0.578125 0.11719,0.832031 5.26953,9.441406 8.08984,20.113282 8.08984,31.257813 0,17.140625 -6.64844,33.175781 -18.72656,45.300778 l -0.16016,0.16016 c -0.22265,0.23437 -0.42968,0.45312 -0.66015,0.67187 l -2.01172,1.95313 -0.0586,-0.0703 c -11.363278,10.09375 -26.296871,16.24219 -42.640621,16.24219 -16.347657,0 -31.28125,-6.14844 -42.644531,-16.24219 l -0.05859,0.0703 -2.011719,-1.95313 c -0.230469,-0.21875 -0.4375,-0.44922 -0.65625,-0.67187 l -0.152344,-0.14844 C 6.648438,97.4375 0,81.402344 0,64.261719 0,53.117188 2.820312,42.445312 8.09375,33.003906 8.242188,32.75 8.277344,32.449219 8.207031,32.171875 L 0.3125,1.550781 C 0.09375,0.695312 0.867188,-0.0820312 1.722656,0.136719 l 30.769532,7.933593 c 0.28125,0.066407 0.582031,0.03125 0.835937,-0.105468 C 42.503906,2.890625 53.046875,0 64.261719,0 75.472656,0 86.015625,2.890625 95.195312,7.964844 95.449219,8.101562 95.75,8.136719 96.027344,8.070312 L 126.79688,0.136719"
       id="path39" />
  </g>
  <path
     inkscape:connector-curvature="0"
     style="fill:#cccac7;fill-opacity:1;fill-rule:nonzero;stroke:none"
     d="m 74.789062,97.828132 c -0.01172,-0.01172 -0.02344,-0.02344 -0.03516,-0.03516 0.01172,0.01172 0.02344,0.02344 0.03516,0.03516 m -1.605468,0 c 0.0078,-0.0039 0.01172,-0.01172 0.01953,-0.01563 -0.0078,0.0039 -0.01172,0.01172 -0.01953,0.01563 m -17.859375,0 c -0.0039,-0.0039 -0.01172,-0.0078 -0.01563,-0.01563 0.0039,0.0078 0.01172,0.01172 0.01563,0.01563 m -1.59375,0 c 0.01172,-0.01172 0.02344,-0.02344 0.03516,-0.03125 -0.01172,0.0078 -0.02344,0.01953 -0.03516,0.03125 m 1.570312,-0.01953 c 0,-0.0039 -0.0039,-0.0039 -0.0078,-0.0078 0.0039,0.0039 0.0078,0.0039 0.0078,0.0078 m 17.914063,-0.0078 c 0.21875,-0.199219 0.5,-0.304687 0.777344,-0.304687 -0.277344,0 -0.558594,0.105468 -0.777344,0.304687 m -19.449219,-0.0078 c 0.214844,-0.195313 0.488281,-0.296875 0.761719,-0.296875 -0.273438,0 -0.546875,0.101562 -0.761719,0.296875 M 33.742188,97.691413 c 0.0078,-0.01172 0.01562,-0.02344 0.01953,-0.03125 -0.0039,0.0078 -0.01172,0.01953 -0.01953,0.03125 m 61.027343,-0.01563 c -0.0039,-0.0039 -0.0078,-0.0078 -0.0078,-0.01172 0,0.0039 0.0039,0.0078 0.0078,0.01172 m -61.003906,-0.01953 c 0.222656,-0.339844 0.585937,-0.519531 0.957031,-0.523438 -0.371094,0.0039 -0.734375,0.183594 -0.957031,0.523438 m 1.816406,-0.140625 c -0.01172,-0.0078 -0.01953,-0.01953 -0.03125,-0.02734 0.01172,0.0078 0.01953,0.01953 0.03125,0.02734 m 57.359375,-0.01172 c 0.0039,-0.0039 0.0078,-0.0078 0.01172,-0.01172 -0.0039,0.0039 -0.0078,0.0078 -0.01172,0.01172 m -38.402344,-0.0078 c -0.0039,0 -0.0039,0 -0.0078,0 0.0039,0 0.0039,0 0.0078,0 m 19.460938,0 c 0,0 0,0 -0.0039,0 0.0039,0 0.0039,0 0.0039,0 m 18.960938,-0.01563 c 0.234374,-0.234375 0.53125,-0.347657 0.824218,-0.347657 -0.292968,0 -0.589844,0.113282 -0.824218,0.347657 M 34.726562,97.132819 c 0,0 0,0 -0.0039,0 0.0039,0 0.0039,0 0.0039,0 m 59.066407,0 c 0,0 -0.0039,0 -0.0039,0 0,0 0.0039,0 0.0039,0"
     id="path41" />
  <path
     inkscape:connector-curvature="0"
     style="fill:#1e3d6e;fill-opacity:1;fill-rule:nonzero;stroke:none"
     d="m 21.558594,103.64453 c -0.21875,0 -0.4375,-0.0625 -0.628906,-0.18359 C 11.605469,93.121101 5.925781,79.429695 5.925781,64.406257 c 0,-4.574219 0.546875,-9.019531 1.542969,-13.292969 3.492188,14.988281 12.757812,27.753907 25.328125,35.828125 -2.492187,5.921875 -5.976563,11.429688 -10.371094,16.320307 -0.230469,0.25391 -0.550781,0.38281 -0.867187,0.38281"
     id="path43" />
  <path
     inkscape:connector-curvature="0"
     style="fill:#3f8ab8;fill-opacity:1;fill-rule:nonzero;stroke:none"
     d="m 54.273438,105.23828 c -2.242188,0 -4.242188,-1.08594 -5.492188,-2.77344 -0.152344,-0.20703 -0.226562,-0.44921 -0.226562,-0.68359 0.0039,-0.45703 0.273437,-0.90234 0.746093,-1.08594 1.675781,-0.64843 3.179688,-1.617178 4.429688,-2.867178 0.01172,-0.01172 0.02344,-0.02344 0.03516,-0.03125 0,-0.0039 0,-0.0039 0,-0.0039 0.214844,-0.195313 0.488281,-0.296875 0.761719,-0.296875 0.0039,0 0.0039,0 0.0039,0 0.0039,0 0.0039,0 0.0078,0 0.273438,0 0.542969,0.101562 0.753907,0.304687 0.0039,0.0039 0.0078,0.0039 0.0078,0.0078 0.0039,0 0.0039,0.0039 0.0078,0.0039 0.0039,0.0078 0.01172,0.01172 0.01563,0.01563 1.167969,1.15625 2.542969,2.09375 4.070312,2.730456 0.449219,0.1875 0.703125,0.61329 0.703125,1.05469 0,0.23438 -0.07031,0.47656 -0.21875,0.69141 -1.238281,1.76562 -3.28125,2.93359 -5.605468,2.93359"
     id="path45" />
  <path
     inkscape:connector-curvature="0"
     style="fill:#3f8ab8;fill-opacity:1;fill-rule:nonzero;stroke:none"
     d="m 73.738281,105.23828 c -2.253906,0 -4.242187,-1.08594 -5.492187,-2.77344 -0.15625,-0.20703 -0.226563,-0.44921 -0.226563,-0.68359 0,-0.45703 0.273438,-0.90234 0.75,-1.08594 1.675781,-0.64843 3.179688,-1.617178 4.414063,-2.867178 0.0078,-0.0039 0.01172,-0.01172 0.01953,-0.01563 0.0039,-0.0039 0.0078,-0.0078 0.01172,-0.01172 0.21875,-0.199219 0.5,-0.304687 0.777344,-0.304687 0.0039,0 0.0039,0 0.0039,0 0.0039,0 0.0039,0 0.0039,0 0.273438,0 0.539062,0.09766 0.753906,0.296875 0.01172,0.01172 0.02344,0.02344 0.03516,0.03516 1.15625,1.15625 2.535157,2.09375 4.070313,2.73046 0.449219,0.1875 0.699219,0.61719 0.703125,1.0625 0,0.23438 -0.07031,0.47266 -0.21875,0.6836 -1.234375,1.76562 -3.292969,2.93359 -5.605469,2.93359"
     id="path47" />
  <path
     inkscape:connector-curvature="0"
     style="fill:#3f8ab8;fill-opacity:1;fill-rule:nonzero;stroke:none"
     d="m 83.714844,95.761726 c -1.65625,0 -3.175782,-0.59375 -4.359375,-1.582031 3.882812,-1.035157 7.609375,-2.46875 11.125,-4.242188 -0.496094,3.289062 -3.332031,5.824219 -6.765625,5.824219 m -38.921875,0 c -3.421875,0 -6.257813,-2.535157 -6.753907,-5.824219 3.515626,1.773438 7.242188,3.203125 11.125,4.242188 -1.1875,0.988281 -2.710937,1.582031 -4.371093,1.582031"
     id="path49" />
  <path
     inkscape:connector-curvature="0"
     style="fill:#3f8ab8;fill-opacity:1;fill-rule:nonzero;stroke:none"
     d="m 64.261719,122.73828 c -14.324219,0 -27.457031,-5.17578 -37.628907,-13.76562 -0.265624,-0.22266 -0.398437,-0.54297 -0.398437,-0.86328 0,-0.28125 0.101563,-0.5625 0.304687,-0.78907 2.71875,-3.00781 5.121094,-6.23047 7.203126,-9.628897 0.0078,-0.01172 0.01562,-0.02344 0.01953,-0.03125 0,-0.0039 0.0039,-0.0039 0.0039,-0.0039 0.222656,-0.339844 0.585937,-0.519531 0.957031,-0.523438 0.0039,0 0.0039,0 0.0039,0 0.296876,0.0039 0.59375,0.117188 0.824219,0.355469 0.01172,0.0078 0.01953,0.01953 0.03125,0.02734 1.546875,1.65625 3.523438,2.890616 5.753907,3.527336 0.394531,0.11328 0.695312,0.41406 0.8125,0.82031 1.511718,5.26953 6.367187,9.15625 12.125,9.15625 3.917968,0 7.421874,-1.79297 9.734374,-4.60156 2.308594,2.80859 5.8125,4.60156 9.730469,4.60156 5.699219,0 10.53125,-3.8164 12.082031,-9.02734 0.125,-0.40625 0.4375,-0.71875 0.855469,-0.8125 2.449219,-0.58594 4.609375,-1.894525 6.265625,-3.675775 0.0039,-0.0039 0.0078,-0.0078 0.01172,-0.01172 0.0039,-0.0039 0.0039,-0.0078 0.0078,-0.01172 0.234374,-0.234375 0.53125,-0.347657 0.824218,-0.347657 0,0 0.0039,0 0.0039,0 0,0 0.0039,0 0.0039,0 0.375,0 0.742187,0.183594 0.96875,0.53125 0,0.0039 0.0039,0.0078 0.0078,0.01172 0.0039,0.0039 0.0039,0.01172 0.0078,0.01563 2.082031,3.398422 4.484375,6.621092 7.203129,9.628902 0.20312,0.22657 0.30469,0.50782 0.30469,0.78907 0,0.32031 -0.13282,0.64062 -0.39844,0.86328 -10.171879,8.58984 -23.304692,13.76562 -37.625004,13.76562"
     id="path51" />
  <path
     inkscape:connector-curvature="0"
     style="fill:#1e3d6e;fill-opacity:1;fill-rule:nonzero;stroke:none"
     d="m 106.96094,103.64453 c -0.31641,0 -0.63672,-0.1289 -0.86719,-0.38281 -4.39453,-4.890619 -7.878906,-10.398432 -10.371094,-16.320307 12.570314,-8.074218 21.835934,-20.839844 25.328124,-35.828125 0.9961,4.273438 1.54297,8.71875 1.54297,13.292969 0,15.023438 -5.67969,28.714844 -15.00391,39.054683 -0.1914,0.12109 -0.41015,0.18359 -0.6289,0.18359"
     id="path53" />
  <path
     inkscape:connector-curvature="0"
     style="fill:#0c0c0a;fill-opacity:1;fill-rule:nonzero;stroke:none"
     d="m 64.261719,122.73828 c -17.195313,0 -32.65625,-7.4375 -43.332031,-19.27734 0.191406,0.12109 0.410156,0.18359 0.628906,0.18359 0.316406,0 0.636718,-0.1289 0.867187,-0.38281 4.394531,-4.890619 7.878907,-10.398432 10.371094,-16.320307 1.6875,1.085938 3.4375,2.085938 5.242187,2.996094 0.496094,3.289062 3.332032,5.824219 6.753907,5.824219 1.660156,0 3.183593,-0.59375 4.371093,-1.582031 4.816407,1.289062 9.875,1.972656 15.097657,1.972656 5.21875,0 10.277343,-0.683594 15.09375,-1.972656 1.183593,0.988281 2.703125,1.582031 4.359375,1.582031 3.433594,0 6.269531,-2.535157 6.765625,-5.824219 1.804687,-0.910156 3.554687,-1.910156 5.242187,-2.996094 2.492188,5.921875 5.976564,11.429688 10.371094,16.320307 0.23047,0.25391 0.55078,0.38281 0.86719,0.38281 0.21875,0 0.4375,-0.0625 0.6289,-0.18359 -10.675778,11.83984 -26.132809,19.27734 -43.328121,19.27734 m -38.027344,-14.6289 c 0,0.32031 0.132813,0.64062 0.398437,0.86328 10.171876,8.58984 23.304688,13.76562 37.628907,13.76562 14.320312,0 27.453125,-5.17578 37.625001,-13.76562 0.26562,-0.22266 0.39844,-0.54297 0.39844,-0.86328 0,-0.28125 -0.10157,-0.5625 -0.30469,-0.78907 -2.718751,-3.00781 -5.121095,-6.23047 -7.203126,-9.628897 -0.0039,-0.0039 -0.0039,-0.01172 -0.0078,-0.01563 -0.0039,-0.0039 -0.0078,-0.0078 -0.0078,-0.01172 -0.226563,-0.347656 -0.59375,-0.53125 -0.96875,-0.53125 0,0 -0.0039,0 -0.0039,0 0,0 -0.0039,0 -0.0039,0 -0.292968,0 -0.589844,0.113282 -0.824218,0.347657 -0.0039,0.0039 -0.0039,0.0078 -0.0078,0.01172 -0.0039,0.0039 -0.0078,0.0078 -0.01172,0.01172 -1.65625,1.78125 -3.816406,3.08984 -6.265625,3.67578 -0.417969,0.0937 -0.730469,0.40625 -0.855469,0.8125 -1.550781,5.21094 -6.382812,9.02734 -12.082031,9.02734 -3.917969,0 -7.421875,-1.79297 -9.730469,-4.60156 -2.3125,2.80859 -5.816406,4.60156 -9.734374,4.60156 -5.757813,0 -10.613282,-3.88672 -12.125,-9.15625 -0.117188,-0.40625 -0.417969,-0.70703 -0.8125,-0.82031 -2.230469,-0.63672 -4.207032,-1.871091 -5.753907,-3.527341 -0.01172,-0.0078 -0.01953,-0.01953 -0.03125,-0.02734 -0.230469,-0.238281 -0.527343,-0.351562 -0.824219,-0.355469 0,0 0,0 -0.0039,0 -0.371094,0.0039 -0.734375,0.183594 -0.957031,0.523438 0,0 -0.0039,0 -0.0039,0.0039 -0.0039,0.0078 -0.01172,0.01953 -0.01953,0.03125 -2.082032,3.398422 -4.484376,6.621092 -7.203126,9.628902 -0.203124,0.22657 -0.304687,0.50782 -0.304687,0.78907 m 41.785156,-6.32813 c 0,0.23438 0.07031,0.47656 0.226563,0.68358 1.25,1.6875 3.238281,2.77344 5.492187,2.77344 2.3125,0 4.371094,-1.16797 5.605469,-2.93359 0.148438,-0.21093 0.21875,-0.44922 0.21875,-0.6836 -0.0039,-0.44531 -0.253906,-0.875 -0.703125,-1.0625 -1.535156,-0.636703 -2.914063,-1.574203 -4.070313,-2.730453 -0.01172,-0.01172 -0.02344,-0.02344 -0.03516,-0.03516 C 74.539062,97.593757 74.273438,97.496101 74,97.496101 c 0,0 0,0 -0.0039,0 0,0 0,0 -0.0039,0 -0.277344,0 -0.558594,0.105468 -0.777344,0.304687 -0.0039,0.0039 -0.0078,0.0078 -0.01172,0.01172 -0.0078,0.0039 -0.01172,0.01172 -0.01953,0.01563 -1.234375,1.25 -2.738282,2.218752 -4.414063,2.867182 -0.476562,0.1836 -0.75,0.62891 -0.75,1.08594 m -19.464843,0 c 0,0.23438 0.07422,0.47656 0.226562,0.68359 1.25,1.6875 3.25,2.77344 5.492188,2.77344 2.324218,0 4.367187,-1.16797 5.605468,-2.93359 0.148438,-0.21485 0.21875,-0.45703 0.21875,-0.69141 0,-0.4414 -0.253906,-0.86719 -0.703125,-1.05469 -1.527343,-0.636712 -2.902343,-1.574212 -4.070312,-2.730462 -0.0039,-0.0039 -0.01172,-0.0078 -0.01563,-0.01563 -0.0039,0 -0.0039,-0.0039 -0.0078,-0.0039 0,-0.0039 -0.0039,-0.0039 -0.0078,-0.0078 -0.210938,-0.203125 -0.480469,-0.304687 -0.753907,-0.304687 -0.0039,0 -0.0039,0 -0.0078,0 0,0 0,0 -0.0039,0 -0.273438,0 -0.546875,0.101562 -0.761719,0.296875 0,0 0,0 0,0.0039 -0.01172,0.0078 -0.02344,0.01953 -0.03516,0.03125 -1.25,1.25 -2.753907,2.218744 -4.429688,2.867174 -0.472656,0.1836 -0.742187,0.62891 -0.746093,1.08594"
     id="path55" />
  <path
     inkscape:connector-curvature="0"
     style="fill:#f8e105;fill-opacity:1;fill-rule:nonzero;stroke:none"
     d="m 53.851562,38.898445 c 0,-8.261719 -6.699218,-14.957032 -14.957031,-14.957032 -8.261719,0 -14.960937,6.695313 -14.960937,14.957032 0,8.261718 6.699218,14.957031 14.960937,14.957031 8.257813,0 14.957031,-6.695313 14.957031,-14.957031"
     id="path57" />
  <path
     inkscape:connector-curvature="0"
     style="fill:#0f0c0c;fill-opacity:1;fill-rule:nonzero;stroke:none"
     d="m 38.886719,33.117195 c 3.195312,0 5.785156,2.589843 5.785156,5.785156 0,3.1875 -2.589844,5.777344 -5.785156,5.777344 -3.195313,0 -5.773438,-2.589844 -5.773438,-5.777344 0,-3.195313 2.578125,-5.785156 5.773438,-5.785156"
     id="path59" />
  <path
     inkscape:connector-curvature="0"
     style="fill:#f8e105;fill-opacity:1;fill-rule:nonzero;stroke:none"
     d="m 104.71484,38.898445 c 0,-8.261719 -6.699215,-14.957032 -14.960934,-14.957032 -8.261718,0 -14.957031,6.695313 -14.957031,14.957032 0,8.261718 6.695313,14.957031 14.957031,14.957031 8.261719,0 14.960934,-6.695313 14.960934,-14.957031"
     id="path61" />
  <path
     inkscape:connector-curvature="0"
     style="fill:#0f0c0c;fill-opacity:1;fill-rule:nonzero;stroke:none"
     d="m 89.75,33.117195 c 3.195312,0 5.785156,2.589843 5.785156,5.785156 0,3.1875 -2.589844,5.777344 -5.785156,5.777344 -3.195312,0 -5.773438,-2.589844 -5.773438,-5.777344 0,-3.195313 2.578126,-5.785156 5.773438,-5.785156"
     id="path63" />
  <path
     inkscape:connector-curvature="0"
     style="fill:#808080;fill-opacity:1;fill-rule:nonzero;stroke:none"
     d="m 168.98055,27.236289 -17.99935,0 0,-16.850184 54.71548,0 0,16.850184 -17.99935,0 0,55.959889 -18.71678,0 0,-55.959889"
     id="path65" />
  <path
     inkscape:connector-curvature="0"
     style="fill:#808080;fill-opacity:1;fill-rule:nonzero;stroke:none"
     d="m 241.06048,45.749908 c 6.34264,0 10.08853,-3.644314 10.08853,-9.466326 l 0,-0.209516 c 0,-6.241045 -3.94906,-9.358394 -10.19645,-9.358394 l -9.14888,0 0,19.034236 z m -27.87201,-35.363803 28.60215,0 c 9.77743,0 17.16128,2.596731 21.84048,7.383859 4.05699,4.056997 6.34898,9.669493 6.34898,17.059703 l 0,0.514266 c 0,10.818658 -5.30774,17.580319 -13.00271,21.4278 l 14.97723,26.424445 -21.11668,0 -12.37416,-22.570615 -6.66008,0 0,22.570615 -18.61521,0 0,-72.810073"
     id="path67" />
  <path
     inkscape:connector-curvature="0"
     style="fill:#808080;fill-opacity:1;fill-rule:nonzero;stroke:none"
     d="m 278.71627,10.386105 18.72313,0 0,72.810073 -18.72313,0 0,-72.810073"
     id="path69" />
  <path
     inkscape:connector-curvature="0"
     style="fill:#808080;fill-opacity:1;fill-rule:nonzero;stroke:none"
     d="m 333.84445,46.79114 c 6.5585,0 10.50755,-3.853829 10.50755,-9.986941 l 0,-0.311099 c 0,-6.660079 -3.84747,-10.088527 -10.60914,-10.088527 l -6.45056,0 0,20.386567 z m -25.16736,-36.405035 25.99907,0 c 17.16764,0 28.39897,8.945708 28.39897,25.275278 l 0,0.412683 c 0,17.478735 -12.6916,25.795897 -28.60213,26.005413 l -7.1807,0 0,21.116699 -18.61521,0 0,-72.810073"
     id="path71" />
  <path
     inkscape:connector-curvature="0"
     style="fill:#808080;fill-opacity:1;fill-rule:nonzero;stroke:none"
     d="m 370.15424,10.386105 18.7168,0 0,55.959887 28.60849,0 0,16.850186 -47.32529,0 0,-72.810073"
     id="path73" />
  <path
     inkscape:connector-curvature="0"
     style="fill:#808080;fill-opacity:1;fill-rule:nonzero;stroke:none"
     d="m 424.86339,10.386105 50.13788,0 0,16.431151 -31.62427,0 0,11.961476 28.50057,0 0,15.497854 -28.50057,0 0,12.482089 32.03695,0 0,16.437503 -50.55056,0 0,-72.810073"
     id="path75" />
  <path
     inkscape:connector-curvature="0"
     style="fill:#808080;fill-opacity:1;fill-rule:nonzero;stroke:none"
     d="m 529.71676,47.413341 0,-1.142817 c 0,-12.590022 -6.03154,-20.284983 -14.66615,-20.284983 -8.6346,0 -14.56455,7.593377 -14.56455,20.17705 l 0,1.142816 c 0,12.590023 6.03788,20.284984 14.66614,20.284984 8.73619,0 14.56456,-7.593377 14.56456,-20.17705 z m -48.36651,0.209516 0,-1.561849 c 0,-21.7389 14.2471,-37.0272383 33.80195,-37.0272383 19.66279,0 33.70038,15.0788223 33.70038,36.9256543 l 0,1.555501 c 0,21.738899 -14.24711,37.033586 -33.80197,37.033586 -19.66278,0 -33.70036,-15.085171 -33.70036,-36.925654"
     id="path77" />
  <path
     inkscape:connector-curvature="0"
     style="fill:#4aa6e1;fill-opacity:1;fill-rule:nonzero;stroke:none"
     d="m 158.05395,109.06825 c 0,-1.37771 -0.50792,-2.12056 -1.43486,-2.12056 -2.36183,0 -3.93002,4.39986 -3.93002,6.55215 0,1.5682 0.55871,2.36182 1.5428,2.36182 2.14595,0 3.82208,-4.6411 3.82208,-6.79341 z m 2.03803,4.56493 c -0.20952,0.69203 -0.29206,1.16821 -0.29206,1.51104 0,0.45079 0.21586,0.69204 0.61584,0.69204 0.58412,0 1.16188,-0.90154 1.77772,-2.67926 l 1.26979,0.39363 c -1.03487,3.23798 -2.46339,4.4316 -4.08237,4.4316 -1.25077,0 -2.17771,-0.79362 -2.17771,-2.33009 0,-0.19046 0,-0.3238 0.0253,-0.5841 l -0.18412,-0.0826 c -1.0095,1.99357 -2.52056,2.99671 -4.0316,2.99671 -2.28563,0 -3.53004,-1.87929 -3.53004,-4.21572 0,-2.70467 1.08568,-5.12363 2.52054,-6.52675 1.24441,-1.27615 2.65389,-2.01898 4.13954,-2.01898 1.48566,0 2.33007,1.03489 2.57134,2.2285 l 0.5333,-2.04438 3.02213,0 -2.1777,8.22829"
     id="path79" />
  <path
     inkscape:connector-curvature="0"
     style="fill:#4aa6e1;fill-opacity:1;fill-rule:nonzero;stroke:none"
     d="m 176.75804,115.83626 c 0.55871,0 1.11108,-0.85075 1.8285,-2.67926 l 1.25075,0.39363 c -1.06027,3.21259 -2.54593,4.4316 -4.06335,4.4316 -1.42851,0 -2.36181,-0.92697 -2.36181,-2.46342 0,-2.65386 1.75231,-5.28234 1.75231,-7.08545 0,-0.6095 -0.26665,-0.87617 -0.71742,-0.87617 -1.21901,0 -3.4983,2.01264 -5.6252,10.16472 l -3.18084,0 2.27928,-8.60286 c 0.4,-1.51107 0.31744,-1.93643 -0.1588,-1.93643 -0.6095,0 -1.30155,1.14281 -2.06977,2.78719 l -1.2444,-0.52696 c 1.13646,-2.65388 2.46341,-4.19668 4.24112,-4.19668 1.14281,0 1.93643,0.82537 1.93643,2.46975 0,0.76824 -0.1588,1.72693 -0.55236,2.94593 l 0.18412,0.0762 c 1.75233,-3.73956 3.71416,-5.51727 5.5998,-5.51727 1.48567,0 2.41262,1.16821 2.41262,2.75546 0,2.26023 -1.96184,5.65694 -1.96184,7.27592 0,0.39998 0.1588,0.5841 0.45078,0.5841"
     id="path81" />
  <path
     inkscape:connector-curvature="0"
     style="fill:#4aa6e1;fill-opacity:1;fill-rule:nonzero;stroke:none"
     d="m 189.99565,111.63959 c 0,3.07925 1.51106,4.56492 4.00622,4.56492 4.33,0 6.08231,-6.44422 6.08231,-9.86631 0,-3.07926 -1.54279,-4.56492 -4.01256,-4.56492 -4.34904,0 -6.07597,6.44421 -6.07597,9.86631 z m 6.20932,-11.802743 c 4.35538,0 7.40289,3.104643 7.40289,7.663213 0,5.12362 -3.84747,10.64088 -9.73932,10.64088 -4.34906,0 -7.42831,-3.10464 -7.42831,-7.66321 0,-5.12363 3.84748,-10.640883 9.76474,-10.640883"
     id="path83" />
  <path
     inkscape:connector-curvature="0"
     style="fill:#4aa6e1;fill-opacity:1;fill-rule:nonzero;stroke:none"
     d="m 209.86797,113.89983 c 0,1.30154 0.55871,2.2031 1.72692,2.2031 2.36181,0 3.68875,-4.46334 3.68875,-6.5585 0,-1.48566 -0.47617,-2.25389 -1.46027,-2.25389 -2.12056,0 -3.9554,4.27287 -3.9554,6.60929 z m -2.14597,-6.47596 c -0.6095,0 -1.08568,0.76823 -1.93643,2.54594 l -1.25075,-0.52696 c 1.27614,-2.92053 2.52689,-4.19668 4.19668,-4.19668 1.1936,0 1.98722,0.87616 1.98722,2.38722 0,0.19047 -0.0254,0.42538 -0.0507,0.66665 l 0.20952,0.0762 c 1.00948,-2.09516 2.62848,-3.15544 4.08873,-3.15544 2.2285,0 3.50464,1.8285 3.50464,4.29826 0,4.27285 -2.94593,8.22827 -6.2093,8.22827 -1.40948,0 -2.5269,-0.71744 -3.02846,-1.77771 l -1.06027,3.95541 2.49514,0 -0.53331,1.96183 -7.34577,0 0.52697,-1.96183 1.8031,0 2.8126,-10.51391 c 0.39998,-1.48565 0.26666,-1.98723 -0.20952,-1.98723"
     id="path85" />
  <path
     inkscape:connector-curvature="0"
     style="fill:#4aa6e1;fill-opacity:1;fill-rule:nonzero;stroke:none"
     d="m 223.40398,111.48087 c 3.68875,-0.39364 5.04108,-1.8285 5.04108,-3.47289 0,-0.74283 -0.42538,-1.32694 -1.219,-1.32694 -1.86025,0 -3.26973,2.52054 -3.82208,4.79983 z m -0.24127,1.25075 c -0.0254,0.20951 -0.0254,0.42538 -0.0254,0.6095 0,2.2031 1.1428,2.89514 2.46975,2.89514 1.29518,0 2.59674,-0.88251 3.71416,-2.44437 l 1.11106,0.79362 c -1.35233,1.9428 -2.99672,3.39672 -5.80932,3.39672 -2.73006,0 -4.6411,-1.91104 -4.6411,-4.82523 0,-4.08875 3.53004,-7.93622 7.69497,-7.93622 2.27928,0 3.55543,1.14281 3.55543,2.75546 0,2.39355 -2.49516,4.43794 -8.06957,4.75538"
     id="path87" />
  <path
     inkscape:connector-curvature="0"
     style="fill:#4aa6e1;fill-opacity:1;fill-rule:nonzero;stroke:none"
     d="m 244.89527,115.83626 c 0.55871,0 1.11107,-0.85075 1.82851,-2.67926 l 1.25075,0.39363 c -1.06029,3.21259 -2.55229,4.4316 -4.06335,4.4316 -1.42853,0 -2.36183,-0.92697 -2.36183,-2.46342 0,-2.65386 1.75233,-5.28234 1.75233,-7.08545 0,-0.6095 -0.26666,-0.87617 -0.71744,-0.87617 -1.21901,0 -3.49828,2.01264 -5.6252,10.16472 l -3.18718,0 2.28564,-8.60286 c 0.39998,-1.51107 0.31744,-1.93643 -0.1588,-1.93643 -0.6095,0 -1.30154,1.14281 -2.06977,2.78719 l -1.24439,-0.52696 c 1.13647,-2.65388 2.46339,-4.19668 4.24111,-4.19668 1.14282,0 1.93644,0.82537 1.93644,2.46975 0,0.76824 -0.15879,1.72693 -0.55235,2.94593 l 0.18411,0.0762 c 1.75231,-3.73956 3.71415,-5.51727 5.5998,-5.51727 1.48566,0 2.4126,1.16821 2.4126,2.75546 0,2.26023 -1.96183,5.65694 -1.96183,7.27592 0,0.39998 0.1588,0.5841 0.45079,0.5841"
     id="path89" />
  <path
     inkscape:connector-curvature="0"
     style="fill:#4aa6e1;fill-opacity:1;fill-rule:nonzero;stroke:none"
     d="m 250.72998,111.51262 1.88565,0 c 0.50156,3.18083 2.36181,4.74902 4.69824,4.74902 2.09515,0 3.31416,-1.32692 3.31416,-2.71101 0,-1.53645 -1.75231,-2.25387 -3.63161,-3.13005 -2.2031,-0.97773 -4.62206,-2.14595 -4.62206,-4.95854 0,-2.97767 2.67928,-5.625193 6.2093,-5.625193 1.88565,0 3.63796,0.768223 4.51413,2.012623 l 1.08566,-1.936433 1.9936,0 -1.56821,6.291833 -1.85389,0 c -0.55871,-3.29512 -1.892,-4.51413 -4.17129,-4.51413 -1.72057,0 -2.94592,1.25075 -2.94592,2.62848 0,1.66978 1.80945,2.38722 3.72049,3.23797 2.17136,0.92697 4.50778,2.04439 4.50778,4.83158 0,3.26337 -2.89513,5.75217 -6.52674,5.75217 -2.31104,0 -4.0316,-0.84441 -5.0411,-2.12055 l -1.16821,2.04437 -1.99358,0 1.5936,-6.55214"
     id="path91" />
  <path
     inkscape:connector-curvature="0"
     style="fill:#4aa6e1;fill-opacity:1;fill-rule:nonzero;stroke:none"
     d="m 272.57046,107.39848 -1.59359,5.80931 c -0.18412,0.6603 -0.31745,1.2698 -0.31745,1.5936 0,0.71742 0.36824,0.95233 0.92695,0.95233 0.95235,0 1.75232,-1.16821 2.49515,-2.86339 l 1.2698,0.42539 c -1.2952,3.76495 -3.33957,4.66651 -4.77443,4.66651 -1.75233,0 -2.99672,-0.87618 -2.99672,-2.67928 0,-0.76823 0.29206,-1.87929 0.47617,-2.62848 l 1.43487,-5.27599 -2.33643,0 0.42539,-1.61899 2.33642,0 0.87616,-3.18719 3.15544,-0.34285 -0.9587,3.53004 3.7713,0 -0.42538,1.61899 -3.76495,0"
     id="path93" />
  <path
     inkscape:connector-curvature="0"
     style="fill:#4aa6e1;fill-opacity:1;fill-rule:nonzero;stroke:none"
     d="m 285.9922,109.06825 c 0,-1.37771 -0.50157,-2.12056 -1.42851,-2.12056 -2.36817,0 -3.93002,4.39986 -3.93002,6.55215 0,1.5682 0.55871,2.36182 1.53644,2.36182 2.15231,0 3.82209,-4.6411 3.82209,-6.79341 z m 2.04438,4.56493 c -0.21588,0.69203 -0.29206,1.16821 -0.29206,1.51104 0,0.45079 0.20951,0.69204 0.6095,0.69204 0.5841,0 1.16821,-0.90154 1.77772,-2.67926 l 1.27613,0.39363 c -1.03487,3.23798 -2.46975,4.4316 -4.08873,4.4316 -1.24441,0 -2.17136,-0.79362 -2.17136,-2.33009 0,-0.19046 0,-0.3238 0.0254,-0.5841 l -0.19047,-0.0826 c -1.00315,1.99357 -2.52055,2.99671 -4.03161,2.99671 -2.27927,0 -3.53002,-1.87929 -3.53002,-4.21572 0,-2.70467 1.09201,-5.12363 2.52054,-6.52675 1.25075,-1.27615 2.65387,-2.01898 4.13953,-2.01898 1.48565,0 2.33642,1.03489 2.57769,2.2285 l 0.52696,-2.04438 3.02846,0 -2.17769,8.22829"
     id="path95" />
  <path
     inkscape:connector-curvature="0"
     style="fill:#4aa6e1;fill-opacity:1;fill-rule:nonzero;stroke:none"
     d="m 303.55983,108.35083 c 0,1.14281 -0.71744,2.28563 -1.86025,2.28563 -0.95235,0 -1.56185,-0.64126 -1.56185,-1.43488 0,-0.74283 0.45077,-1.35233 1.08567,-1.8031 -0.20952,-0.37459 -0.66029,-0.66665 -1.46027,-0.66665 -2.65386,0 -4.22207,4.06335 -4.22207,6.36803 0,2.28563 1.22536,3.00307 2.41896,3.00307 1.219,0 2.38721,-0.88251 3.4475,-2.52054 l 1.14281,0.76821 c -1.14281,1.98724 -2.70466,3.63163 -5.30774,3.63163 -2.92054,0 -4.88237,-1.98724 -4.88237,-4.88237 0,-4.13953 3.55543,-7.87908 7.35212,-7.87908 2.22849,0 3.84749,1.2444 3.84749,3.13005"
     id="path97" />
  <path
     inkscape:connector-curvature="0"
     style="fill:#4aa6e1;fill-opacity:1;fill-rule:nonzero;stroke:none"
     d="m 314.81021,115.83626 c 0.58411,0 1.08567,-0.85075 1.77771,-2.67926 l 1.24441,0.39363 c -1.00314,3.21259 -2.38722,4.4316 -3.92368,4.4316 -1.48566,0 -2.46975,-0.97776 -2.46975,-2.70468 0,-0.74283 0.29205,-1.8031 0.29205,-2.38722 0,-0.98407 -0.42538,-1.219 -2.36181,-1.219 l -0.0507,0 -1.619,6.05058 -3.00305,0 4.30459,-16.21529 -2.2031,0 0.52697,-2.069753 5.28235,0 -2.97131,11.040863 0.12694,0 c 1.40947,0 1.99359,-0.79997 3.1618,-2.7364 0.87615,-1.43488 1.75231,-2.52055 3.3205,-2.52055 1.2698,0 1.96185,0.79362 1.96185,1.93643 0,1.11742 -0.71744,2.22849 -1.80947,2.22849 -1.06028,0 -1.61263,-0.92695 -1.2444,-2.01896 -0.36823,0.0826 -0.76823,0.5333 -1.37773,1.5428 -0.53331,0.98408 -0.95869,1.53645 -1.75231,1.96183 1.88564,0.1588 2.49514,0.9841 2.49514,2.22849 0,0.76823 -0.21586,1.5428 -0.21586,2.01898 0,0.5333 0.21586,0.71742 0.50792,0.71742"
     id="path99" />
  <path
     inkscape:connector-curvature="0"
     style="fill:#4aa6e1;fill-opacity:1;fill-rule:nonzero;stroke:none"
     d="m 329.32397,110.73805 c 0,-5.33315 3.92367,-10.901203 9.76473,-10.901203 2.20309,0 3.84748,0.793613 4.74904,2.145953 l 1.08568,-2.069763 2.04436,0 -1.69517,6.901333 -1.99358,0 c -0.26667,-3.82209 -1.93644,-5.04109 -4.08239,-5.04109 -4.69826,0 -6.31724,6.31088 -6.31724,9.23142 0,3.53002 1.8031,5.01569 4.10778,5.01569 2.81896,0 4.46335,-2.12056 5.79027,-5.2506 l 1.88565,0.66029 c -1.32694,3.71414 -3.79669,6.71086 -8.04415,6.71086 -4.88237,0 -7.29498,-3.10464 -7.29498,-7.40289"
     id="path101" />
  <path
     inkscape:connector-curvature="0"
     style="fill:#4aa6e1;fill-opacity:1;fill-rule:nonzero;stroke:none"
     d="m 353.41199,106.68104 c -2.46339,0 -3.87287,4.83158 -3.87287,7.40291 0,1.70152 0.71744,2.4126 1.86025,2.4126 2.46975,0 3.87287,-4.82522 3.87287,-7.40289 0,-1.69518 -0.71742,-2.41262 -1.86025,-2.41262 z m 5.0157,3.66336 c 0,4.13319 -3.31416,7.63783 -7.00292,7.63783 -3.05386,0 -5.0411,-2.14597 -5.0411,-5.14269 0,-4.13952 3.31418,-7.61876 7.00293,-7.61876 3.05385,0 5.04109,2.12055 5.04109,5.12362"
     id="path103" />
  <path
     inkscape:connector-curvature="0"
     style="fill:#4aa6e1;fill-opacity:1;fill-rule:nonzero;stroke:none"
     d="m 375.67786,115.51881 c 0,-2.65386 1.75232,-5.28234 1.75232,-7.08545 0,-0.6095 -0.26667,-0.87617 -0.71744,-0.87617 -1.16821,0 -3.47924,2.01264 -5.59979,10.16472 l -3.13005,0 1.8539,-7.00927 c 0.24126,-0.87615 0.37459,-1.51106 0.37459,-2.01262 0,-0.64125 -0.20952,-1.14283 -0.79362,-1.14283 -1.22536,0 -3.50464,2.01264 -5.63155,10.16472 l -3.18084,0 2.27929,-8.60286 c 0.39998,-1.51107 0.3238,-1.93643 -0.15879,-1.93643 -0.6095,0 -1.30154,1.14281 -2.06977,2.78719 l -1.24439,-0.52696 c 1.13646,-2.65388 2.46975,-4.19668 4.24746,-4.19668 1.13647,0 1.93644,0.82537 1.93644,2.46975 0,0.76824 -0.16508,1.72693 -0.55871,2.94593 l 0.18412,0.0762 c 1.75231,-3.73956 3.71414,-5.51727 5.5236,-5.51727 1.45393,0 2.2285,0.98409 2.2285,2.57134 0,0.74283 -0.21586,1.65073 -0.6095,2.86973 l 0.18412,0.0762 c 1.75231,-3.73956 3.71416,-5.51727 5.59979,-5.51727 1.46027,0 2.38722,1.16822 2.38722,2.75547 0,2.26022 -1.96819,5.65693 -1.96819,7.27592 0,0.39998 0.16509,0.58409 0.45713,0.58409 0.55237,0 1.11108,-0.85075 1.8285,-2.67925 l 1.25077,0.39362 c -1.06663,3.2126 -2.55231,4.4316 -4.06335,4.4316 -1.43488,0 -2.36183,-0.92696 -2.36183,-2.46341"
     id="path105" />
  <path
     inkscape:connector-curvature="0"
     style="fill:#4aa6e1;fill-opacity:1;fill-rule:nonzero;stroke:none"
     d="m 398.94687,115.51881 c 0,-2.65386 1.75231,-5.28234 1.75231,-7.08545 0,-0.6095 -0.26666,-0.87617 -0.71743,-0.87617 -1.16821,0 -3.47289,2.01264 -5.59981,10.16472 l -3.13004,0 1.86025,-7.00927 c 0.23491,-0.87615 0.36825,-1.51106 0.36825,-2.01262 0,-0.64125 -0.21588,-1.14283 -0.79364,-1.14283 -1.22534,0 -3.50463,2.01264 -5.62518,10.16472 l -3.18719,0 2.27928,-8.60286 c 0.39999,-1.51107 0.3238,-1.93643 -0.15864,-1.93643 -0.6095,0 -1.2952,1.14281 -2.06977,2.78719 l -1.2444,-0.52696 c 1.14282,-2.65388 2.46976,-4.19668 4.24748,-4.19668 1.13645,0 1.93642,0.82537 1.93642,2.46975 0,0.76824 -0.15863,1.72693 -0.55871,2.94593 l 0.18412,0.0762 c 1.75233,-3.73956 3.72051,-5.51727 5.51726,-5.51727 1.46663,0 2.23484,0.98409 2.23484,2.57134 0,0.74283 -0.21586,1.65073 -0.6095,2.86973 l 0.18413,0.0762 c 1.75231,-3.73956 3.71415,-5.51727 5.5998,-5.51727 1.46027,0 2.38721,1.16822 2.38721,2.75547 0,2.26022 -1.96183,5.65693 -1.96183,7.27592 0,0.39998 0.15863,0.58409 0.45077,0.58409 0.55871,0 1.11107,-0.85075 1.82851,-2.67925 l 1.25075,0.39362 c -1.06663,3.2126 -2.55229,4.4316 -4.06335,4.4316 -1.43487,0 -2.36181,-0.92696 -2.36181,-2.46341"
     id="path107" />
  <path
     inkscape:connector-curvature="0"
     style="fill:#4aa6e1;fill-opacity:1;fill-rule:nonzero;stroke:none"
     d="m 415.26374,115.49343 c 0,-0.66665 0.15879,-1.67613 0.58409,-3.02846 l -0.18412,-0.0762 c -1.7523,3.84748 -3.60621,5.59345 -5.51725,5.59345 -1.46027,0 -2.41896,-1.13647 -2.41896,-2.78085 0,-2.23484 1.88565,-5.75853 1.88565,-7.27593 0,-0.36825 -0.1588,-0.55871 -0.4,-0.55871 -0.55235,0 -1.00312,0.5841 -1.96183,2.57767 l -1.24439,-0.5333 c 1.08568,-2.62213 2.4888,-4.19033 4.32364,-4.19033 1.40313,0 2.2285,0.87616 2.2285,2.41261 0,2.46975 -1.75232,5.28236 -1.75232,6.97753 0,0.74283 0.29206,1.04123 0.74283,1.04123 1.19361,0 3.39671,-1.96817 5.5744,-10.24725 l 3.18084,0 -2.17135,8.22829 c -0.21587,0.71742 -0.29205,1.16821 -0.29205,1.51104 0,0.45079 0.23491,0.69204 0.60951,0.69204 0.6095,0 1.16821,-0.90155 1.77771,-2.67926 l 1.2698,0.39362 c -1.02855,3.23799 -2.46342,4.4316 -3.97448,4.4316 -1.38407,0 -2.26022,-0.76823 -2.26022,-2.4888"
     id="path109" />
  <path
     inkscape:connector-curvature="0"
     style="fill:#4aa6e1;fill-opacity:1;fill-rule:nonzero;stroke:none"
     d="m 434.18368,115.83626 c 0.55871,0 1.11742,-0.85075 1.83486,-2.67926 l 1.24441,0.39363 c -1.06029,3.21259 -2.5523,4.4316 -4.06335,4.4316 -1.42852,0 -2.36182,-0.92697 -2.36182,-2.46342 0,-2.65386 1.75232,-5.28234 1.75232,-7.08545 0,-0.6095 -0.26031,-0.87617 -0.71744,-0.87617 -1.219,0 -3.49828,2.01264 -5.6252,10.16472 l -3.18083,0 2.27927,-8.60286 c 0.4,-1.51107 0.31746,-1.93643 -0.15863,-1.93643 -0.6095,0 -1.30154,1.14281 -2.06977,2.78719 l -1.24439,-0.52696 c 1.13645,-2.65388 2.46339,-4.19668 4.24111,-4.19668 1.14282,0 1.94278,0.82537 1.94278,2.46975 0,0.76824 -0.15863,1.72693 -0.55871,2.94593 l 0.18412,0.0762 c 1.75232,-3.73956 3.71416,-5.51727 5.59981,-5.51727 1.48566,0 2.4126,1.16821 2.4126,2.75546 0,2.26023 -1.96183,5.65694 -1.96183,7.27592 0,0.39998 0.1588,0.5841 0.45077,0.5841"
     id="path111" />
  <path
     inkscape:connector-curvature="0"
     style="fill:#4aa6e1;fill-opacity:1;fill-rule:nonzero;stroke:none"
     d="m 443.94842,103.36052 c -0.92696,0 -1.65074,-0.63489 -1.65074,-1.69517 0,-1.08568 0.82536,-2.336423 2.23484,-2.336423 1.0095,0 1.69518,0.6349 1.69518,1.701523 0,1.06028 -0.87616,2.33007 -2.27928,2.33007 z m -1.27615,11.84085 c 0,0.45077 0.18412,0.63489 0.53332,0.63489 0.50157,0 1.08566,-0.71742 1.88564,-2.67926 l 1.24441,0.39363 c -1.03489,3.1364 -2.52055,4.4316 -4.22208,4.4316 -1.37773,0 -2.38722,-0.90156 -2.38722,-2.4888 0,-2.5269 2.2031,-6.08233 2.2031,-7.72671 0,-0.42539 -0.15879,-0.5841 -0.39998,-0.5841 -0.74284,0 -1.40314,1.14281 -2.14596,2.78719 l -1.27614,-0.52696 c 1.14281,-2.65388 2.55229,-4.22207 4.35539,-4.22207 1.37773,0 2.36183,0.98409 2.36183,2.67926 0,2.06977 -2.15231,5.75853 -2.15231,7.30133"
     id="path113" />
  <path
     inkscape:connector-curvature="0"
     style="fill:#4aa6e1;fill-opacity:1;fill-rule:nonzero;stroke:none"
     d="m 453.31316,107.39848 -1.59359,5.80931 c -0.18412,0.6603 -0.31746,1.2698 -0.31746,1.5936 0,0.71742 0.37459,0.95233 0.9333,0.95233 0.95235,0 1.74597,-1.16821 2.4888,-2.86339 l 1.27615,0.42539 c -1.30154,3.76495 -3.34591,4.66651 -4.77443,4.66651 -1.75233,0 -3.00307,-0.87618 -3.00307,-2.67928 0,-0.76823 0.29205,-1.87929 0.47617,-2.62848 l 1.43487,-5.27599 -2.33007,0 0.41903,-1.61899 2.33642,0 0.87617,-3.18719 3.15543,-0.34285 -0.95235,3.53004 3.77131,0 -0.42539,1.61899 -3.77129,0"
     id="path115" />
  <path
     inkscape:connector-curvature="0"
     style="fill:#4aa6e1;fill-opacity:1;fill-rule:nonzero;stroke:none"
     d="m 463.76357,107.53181 c 0,2.438 -1.53645,4.82522 -1.53645,6.36802 0,0.66029 0.29206,0.92695 0.87616,0.92695 1.40947,0 3.29513,-1.5936 5.30775,-9.42188 l 2.97131,0 -2.438,10.24724 c -1.14281,4.88237 -3.82209,6.57755 -7.1426,6.57755 -1.8539,0 -4.0824,-0.50158 -4.0824,-2.46975 0,-0.84441 0.63491,-1.9047 1.82851,-1.9047 1.06029,0 1.59359,0.74283 1.5428,1.61264 -0.0317,0.42539 -0.26665,0.90156 -0.5333,1.14281 0.31744,0.10792 0.71742,0.18414 1.219,0.18414 2.06975,0 3.47923,-1.6698 4.38079,-5.35855 l 0.53331,-2.09516 -0.16507,-0.0826 c -1.53645,2.8126 -3.18084,3.84747 -4.72364,3.84747 -1.74597,0 -2.62213,-1.219 -2.62213,-2.75545 0,-2.04437 1.69518,-4.90776 1.69518,-6.42516 0,-0.34285 -0.15879,-0.55871 -0.39998,-0.55871 -0.66029,0 -1.2952,1.09202 -2.01264,2.60308 l -1.25075,-0.52697 c 1.16822,-2.65387 2.62849,-4.22207 4.38081,-4.22207 1.35233,0 2.17134,0.90156 2.17134,2.31103"
     id="path117" />
  <path
     inkscape:connector-curvature="0"
     style="fill:#4aa6e1;fill-opacity:1;fill-rule:nonzero;stroke:none"
     d="m 485.47073,108.85239 c 3.39671,0 4.59031,-2.12056 4.59031,-4.16493 0,-1.53645 -0.92695,-2.4634 -3.55543,-2.4634 l -1.14281,0 -1.64438,6.62833 z m -3.4729,6.87595 2.8888,0 -0.45079,1.99357 -8.91396,0 0.45078,-1.99357 2.67927,0 3.3459,-13.47889 -2.71101,0 0.50792,-1.99358 7.35212,0 c 4.79983,0 6.63468,1.96819 6.63468,4.46334 0,2.64753 -1.83485,6.01884 -8.41874,6.01884 l -2.12056,0 -1.24441,4.99029"
     id="path119" />
  <path
     inkscape:connector-curvature="0"
     style="fill:#4aa6e1;fill-opacity:1;fill-rule:nonzero;stroke:none"
     d="m 497.91472,109.11905 c 0.4,-1.51107 0.31745,-1.93643 -0.15863,-1.93643 -0.6095,0 -1.30156,1.14281 -2.06977,2.78719 l -1.25075,-0.52696 c 1.14281,-2.65388 2.46975,-4.19668 4.24747,-4.19668 1.1428,0 1.94278,0.82537 1.94278,2.46975 0,0.76824 -0.1588,1.69518 -0.53331,2.86339 l 0.20951,0.0826 c 1.5428,-3.50463 2.81895,-5.44107 4.67285,-5.44107 1.11108,0 1.93644,0.76823 1.93644,2.01897 0,1.32695 -0.85077,2.38722 -1.91104,2.38722 -0.92696,0 -1.64439,-0.6095 -1.59359,-1.72692 -0.76824,0.31744 -2.67928,2.57769 -4.59032,9.82186 l -3.18083,0 2.27927,-8.60286"
     id="path121" />
  <path
     inkscape:connector-curvature="0"
     style="fill:#4aa6e1;fill-opacity:1;fill-rule:nonzero;stroke:none"
     d="m 514.49826,106.68104 c -2.46341,0 -3.87289,4.83158 -3.87289,7.40291 0,1.70152 0.71744,2.4126 1.86027,2.4126 2.46339,0 3.87287,-4.82522 3.87287,-7.40289 0,-1.69518 -0.71744,-2.41262 -1.86025,-2.41262 z m 5.01568,3.66336 c 0,4.13319 -3.31416,7.63783 -7.00292,7.63783 -3.05386,0 -5.04108,-2.14597 -5.04108,-5.14269 0,-4.13952 3.31416,-7.61876 7.00292,-7.61876 3.05386,0 5.04108,2.12055 5.04108,5.12362"
     id="path123" />
  <path
     inkscape:connector-curvature="0"
     style="fill:#4aa6e1;fill-opacity:1;fill-rule:nonzero;stroke:none"
     d="m 527.65968,103.36052 c -0.92695,0 -1.64439,-0.63489 -1.64439,-1.69517 0,-1.08568 0.85077,-2.336423 2.2285,-2.336423 1.00949,0 1.70152,0.6349 1.70152,1.701523 0,1.06028 -0.87615,2.33007 -2.28563,2.33007 z m 0.50158,6.63468 -1.66979,6.34264 c -1.11107,4.22206 -3.18084,5.89185 -5.62518,5.89185 -1.86027,0 -2.65389,-0.87615 -2.65389,-1.88565 0,-0.97774 0.71744,-1.8793 1.75233,-1.8793 0.90156,0 1.37772,0.66029 1.37772,1.35233 0,0.55237 -0.20951,1.0095 -0.42537,1.2698 1.14281,0.0254 1.59358,-0.6603 2.57767,-4.45697 l 1.75233,-6.71088 c 0.15863,-0.64124 0.39364,-1.56819 0.39364,-2.1269 0,-0.47618 -0.20952,-0.6095 -0.45079,-0.6095 -0.63489,0 -1.32693,1.14281 -2.09516,2.78719 l -1.24441,-0.52696 c 1.13647,-2.65388 2.52056,-4.22207 4.37446,-4.22207 1.35868,0 2.31103,1.03488 2.31103,2.52055 0,0.6095 -0.13328,1.35233 -0.37459,2.25387"
     id="path125" />
  <path
     inkscape:connector-curvature="0"
     style="fill:#4aa6e1;fill-opacity:1;fill-rule:nonzero;stroke:none"
     d="m 534.13565,111.48087 c 3.68875,-0.39364 5.04108,-1.8285 5.04108,-3.47289 0,-0.74283 -0.42538,-1.32694 -1.219,-1.32694 -1.86025,0 -3.26337,2.52054 -3.82208,4.79983 z m -0.24127,1.25075 c -0.0254,0.20951 -0.0254,0.42538 -0.0254,0.6095 0,2.2031 1.1428,2.89514 2.46975,2.89514 1.30153,0 2.59672,-0.88251 3.71414,-2.44437 l 1.11108,0.79362 c -1.35233,1.9428 -2.99672,3.39672 -5.80932,3.39672 -2.73006,0 -4.6411,-1.91104 -4.6411,-4.82523 0,-4.08875 3.53002,-7.93622 7.69495,-7.93622 2.27929,0 3.55543,1.14281 3.55543,2.75546 0,2.39355 -2.49514,4.43794 -8.06955,4.75538"
     id="path127" />
  <path
     inkscape:connector-curvature="0"
     style="fill:#4aa6e1;fill-opacity:1;fill-rule:nonzero;stroke:none"
     d="m 554.75077,108.35083 c 0,1.14281 -0.71742,2.28563 -1.85389,2.28563 -0.95871,0 -1.56821,-0.64126 -1.56821,-1.43488 0,-0.74283 0.45079,-1.35233 1.08568,-1.8031 -0.20951,-0.37459 -0.6603,-0.66665 -1.45392,-0.66665 -2.65387,0 -4.22207,4.06335 -4.22207,6.36803 0,2.28563 1.219,3.00307 2.41262,3.00307 1.22535,0 2.38721,-0.88251 3.45384,-2.52054 l 1.13647,0.76821 c -1.13647,1.98724 -2.70466,3.63163 -5.30775,3.63163 -2.91419,0 -4.88236,-1.98724 -4.88236,-4.88237 0,-4.13953 3.55543,-7.87908 7.35211,-7.87908 2.2285,0 3.84748,1.2444 3.84748,3.13005"
     id="path129" />
  <g
     style="clip-rule:nonzero"
     clip-path="url(#clip2)"
     id="g131"
     transform="matrix(1.6253383,0,0,1.6253383,-103.87947,-55.630567)">
    <path
       inkscape:connector-curvature="0"
       style="fill:#4aa6e1;fill-opacity:1;fill-rule:nonzero;stroke:none"
       d="m 409.78125,100.30469 -0.98047,3.57422 c -0.11328,0.40625 -0.19531,0.78125 -0.19531,0.98047 0,0.4414 0.23047,0.58593 0.57031,0.58593 0.58984,0 1.07813,-0.71875 1.53516,-1.76172 l 0.78515,0.26172 c -0.80078,2.31641 -2.05859,2.8711 -2.9375,2.8711 -1.07812,0 -1.84765,-0.53907 -1.84765,-1.64844 0,-0.47266 0.17968,-1.15625 0.29297,-1.61719 l 0.88281,-3.24609 -1.4375,0 0.26172,-0.996096 1.4375,0 0.53906,-1.960938 1.94141,-0.210937 -0.58594,2.171875 2.3164,0 -0.25781,0.996096 -2.32031,0"
       id="path133" />
  </g>
</svg>
